<svg viewBox="30 90 2459.9999999999995 1499.9999999999998" fill="none" xmlns="http://www.w3.org/2000/svg" xmlns:xlink="http://www.w3.org/1999/xlink" overflow="visible" width="2459.9999999999995px" height="1499.9999999999998px"><g id="Master/Scenes/Sitting in the Park"><g id="Big Plants" transform="translate(1411.5 153) scale(1 1)"><g id="Big Plants/1"><g id="Assets 9"><path id="Fill 1" fill-rule="evenodd" clip-rule="evenodd" d="M170.146 1360C170.146 1360 -36.4123 1236.21 5.65104 1012.23C30.7592 878.521 115.925 885.075 165.218 783.85C196.677 719.246 148.878 545.865 246.991 431.808C338.645 325.258 488.511 334.916 536.783 311.771C601.478 280.75 626.117 215.582 644.609 162.06C713.567 -37.4858 872.886 -32.097 898.819 67.179C930.086 186.868 900.15 259.004 753.048 376.302C642.517 464.441 804.348 563.327 708.082 723.805C654.29 813.477 509.646 860.087 580.301 976.035C677.053 1134.81 658.88 1290.9 609.553 1360H170.146Z" fill="#D3E2F2"/><path id="Fill 10" fill-rule="evenodd" clip-rule="evenodd" d="M772.813 169.151C771.247 167.603 768.722 167.617 767.173 169.191C766.654 169.716 714.488 222.933 646.564 314.949C583.902 399.847 494.563 536.155 424.821 703.398C362.868 851.969 294.235 1060.83 313.216 1360H321.209C302.22 1062.21 370.528 854.329 432.181 706.476C565.022 387.914 770.788 176.894 772.852 174.799C774.398 173.231 774.38 170.698 772.813 169.151" fill="white"/><path id="Fill 4" fill-rule="evenodd" clip-rule="evenodd" d="M909.457 628C896.972 628 884.26 638.327 884.26 650.841C884.26 652.922 884.564 654.926 885.088 656.842C779.394 708.805 685.128 776.102 604.639 857.123C536.159 926.056 477.442 1005.01 430.121 1091.79C388.019 1169 362.916 1238.25 349.272 1282.75C336.51 1324.37 331.103 1352.75 329.818 1360H337.927C339.537 1351.2 344.946 1324.09 356.9 1285.1C370.437 1240.96 395.342 1172.25 437.123 1095.63C484.083 1009.51 542.348 931.166 610.295 862.769C690.142 782.394 783.664 715.624 888.534 664.058C892.637 669.765 899.309 673.495 906.863 673.495C919.348 673.495 929.818 665.528 929.818 653.016C929.818 640.505 921.94 628 909.457 628" fill="white"/><path id="Fill 7" fill-rule="evenodd" clip-rule="evenodd" d="M1042.67 885.906C1030.16 885.906 1017.42 896.234 1017.42 908.748V908.754C978.675 915.698 913.295 930.202 794.467 973.952C636.303 1032.19 526.979 1133.86 463.121 1208.89C393.917 1290.2 361.629 1358.77 361.309 1359.46C361.227 1359.63 361.177 1359.82 361.123 1360H369.947C376.705 1346.41 408.681 1285.16 469.389 1213.87C532.609 1139.64 640.801 1039.06 797.233 981.46C915.455 937.934 980.391 923.524 1018.85 916.624C1022.05 925.248 1030.33 931.404 1040.07 931.404C1052.59 931.404 1063.08 923.438 1063.08 910.924C1063.08 898.41 1055.19 885.906 1042.67 885.906" fill="white"/></g></g></g><g id="Big Plants" transform="matrix(-1 0 0 1 1177 153) scale(1 1)"><g id="Big Plants/2"><g id="leafs"><path id="Fill 4 (Stroke)" fill-rule="evenodd" clip-rule="evenodd" d="M514.671 378.608C522.067 395.79 522.658 418.491 511.316 447.554C493.383 493.509 458.263 524.573 426.021 552.555C425.464 553.039 424.908 553.521 424.352 554.003C408.984 567.337 394.213 580.152 382.94 593.473C371.204 607.342 362.803 622.273 361.488 639.635C360.624 651.065 363.264 664.161 367.184 678.1C369.648 686.863 372.738 696.342 375.957 706.214C377.847 712.011 379.782 717.943 381.659 723.947C391.944 756.825 401.076 793.446 396.202 831.356C393.065 855.754 385.798 873.153 376.82 886.828C367.784 900.592 356.901 910.779 346.032 920.792C345.688 921.108 345.345 921.424 345.001 921.74C334.61 931.307 324.096 940.986 316.437 953.336C308.382 966.323 303.596 982.02 304.412 1003.46C305.734 1038.14 326.278 1060.96 348.329 1083.82C349.665 1085.21 351.009 1086.6 352.357 1087.99C373.506 1109.83 395.754 1132.81 408.205 1167.7C424.597 1213.64 415.962 1257.72 402.969 1290.63C396.482 1307.07 388.951 1320.6 383.047 1330.02C380.097 1334.72 377.56 1338.39 375.772 1340.86C375.322 1341.48 374.919 1342.03 374.57 1342.5H-6.3266C-6.89484 1341.76 -7.60492 1340.83 -8.43976 1339.7C-10.8225 1336.5 -14.2197 1331.76 -18.2354 1325.69C-26.2708 1313.54 -36.7601 1296.09 -46.5526 1274.89C-66.1801 1232.4 -82.7698 1175.41 -71.814 1116.13C-61.68 1061.31 -32.6273 1028.42 -3.56616 1002.65C3.17902 996.67 9.89963 991.094 16.4218 985.683C16.9551 985.24 17.4871 984.799 18.0177 984.359C25.0034 978.56 31.7621 972.913 37.8728 967.26C50.0276 956.015 60.2173 944.221 64.8234 930.054C76.529 894.045 69.8649 857.777 62.2617 821.456C61.7968 819.235 61.3282 817.013 60.8592 814.79C53.5763 780.259 46.2169 745.367 51.5039 708.232C60.3277 646.262 95.2898 612.474 133.716 587.498C146.644 579.095 159.724 571.831 172.415 564.783C178.822 561.225 185.13 557.721 191.269 554.155C209.233 543.718 225.628 532.79 236.493 518.882C245.846 506.909 252.942 493.088 259.554 478.613C261.994 473.271 264.348 467.892 266.723 462.463C270.883 452.954 275.109 443.295 279.981 433.425C295.075 402.847 315.582 372.026 355.234 347.247C386.091 327.965 436.922 324.676 474.161 340.817C492.616 348.817 507.255 361.379 514.671 378.608ZM-8.99988 1348C-13.2614 1351.48 -13.2629 1351.48 -13.2647 1351.47L-13.27 1351.47L-13.2869 1351.45L-13.3451 1351.37C-13.3947 1351.31 -13.4656 1351.22 -13.5573 1351.11C-13.6589 1350.98 -13.7861 1350.82 -13.9376 1350.63C-14.0591 1350.48 -14.1962 1350.3 -14.3485 1350.11C-15.0328 1349.23 -16.0226 1347.94 -17.2679 1346.27C-19.7582 1342.92 -23.2723 1338.02 -27.4097 1331.76C-35.6804 1319.26 -46.4639 1301.31 -56.5386 1279.5C-76.6453 1235.98 -94.1668 1176.55 -82.6307 1114.13C-71.868 1055.91 -40.8289 1020.99 -10.8644 994.422C-3.97748 988.315 2.87714 982.627 9.37769 977.234C9.91827 976.786 10.4564 976.339 10.9919 975.895C18.0002 970.077 24.5399 964.609 30.4026 959.185C42.1947 948.276 50.6526 938.063 54.3623 926.653C65.0449 893.791 59.1514 860.284 51.4951 823.71C51.0082 821.384 50.5144 819.047 50.018 816.697C42.7932 782.499 35.0426 745.812 40.6137 706.681C50.0526 640.392 87.8225 604.209 127.721 578.275C140.951 569.676 154.655 562.062 167.544 554.901C173.856 551.394 179.973 547.996 185.743 544.644C203.629 534.252 218.372 524.211 227.825 512.11C236.362 501.181 243.029 488.313 249.548 474.043C251.836 469.035 254.126 463.803 256.476 458.435C260.719 448.743 265.155 438.609 270.117 428.556C285.753 396.881 307.436 364.146 349.405 337.918C383.574 316.567 438.249 313.262 478.536 330.725C498.845 339.528 515.975 353.817 524.775 374.259C533.595 394.748 533.667 420.538 521.563 451.553C502.513 500.371 465.284 533.045 433.231 560.863C432.788 561.248 432.346 561.631 431.905 562.014C416.247 575.601 402.049 587.92 391.337 600.579C380.38 613.528 373.528 626.318 372.457 640.466C371.746 649.863 373.912 661.393 377.773 675.122C380.187 683.706 383.144 692.773 386.302 702.453C388.207 708.291 390.184 714.351 392.158 720.663C402.521 753.794 412.307 792.349 407.112 832.759C403.77 858.754 395.941 877.748 386.015 892.865C376.148 907.894 364.321 918.899 353.484 928.882L352.921 929.401C342.169 939.304 332.639 948.082 325.785 959.134C318.953 970.149 314.667 983.659 315.404 1003.04C316.549 1033.08 334.032 1053.15 356.247 1076.19C357.643 1077.64 359.057 1079.1 360.483 1080.57C381.491 1102.24 405.287 1126.8 418.565 1164.01C436.171 1213.34 426.757 1260.33 413.2 1294.67C406.412 1311.87 398.542 1326.01 392.366 1335.86C389.275 1340.79 386.602 1344.65 384.689 1347.3C383.732 1348.63 382.965 1349.65 382.43 1350.35C382.163 1350.69 381.953 1350.96 381.807 1351.15L381.707 1351.28L381.637 1351.36L381.588 1351.42L381.573 1351.44L381.568 1351.45C381.567 1351.45 381.565 1351.45 377.285 1348L381.565 1351.45L379.914 1353.5H-11.6108L-13.2614 1351.48L-8.99988 1348Z" fill="white"/><path id="Fill 1" fill-rule="evenodd" clip-rule="evenodd" d="M815.714 743.606C892.958 728.493 1035.69 740.247 1057.52 763.757C1081.98 790.092 1020.62 935.468 991.183 947.246C947.021 947.246 873.421 938.413 885.196 961.966C896.972 985.518 935.246 1014.96 935.246 1029.68C935.246 1044.4 908.749 1138.61 876.364 1144.49C843.981 1150.38 764.491 1123.89 761.546 1144.49C758.603 1165.1 802.764 1191.6 805.708 1215.15C808.651 1238.71 764.491 1303.47 576.071 1359.41H414.151C414.151 1359.41 384.71 1156.27 455.366 1070.9C511.305 1091.5 534.858 1094.45 534.858 1094.45C534.858 1094.45 528.968 979.629 549.576 929.581C570.185 879.531 598.007 836.164 634.358 835.963C661.596 835.814 719.977 888.477 731.752 867.868C743.528 847.26 717.436 762.834 815.714 743.606" fill="white"/><path id="Fill 5" fill-rule="evenodd" clip-rule="evenodd" d="M879.989 282.14C913.627 285.985 945.489 538.882 832.439 568.257C790.603 579.127 721.719 599.731 759.189 641.366C778.275 662.57 854.937 686.357 874.131 729.009C888.752 761.494 851.466 860.069 795.41 885.729C731.227 915.105 670.554 902.328 665.172 941.785C659.792 981.242 753.12 1005.87 758.885 1059.69C762.941 1097.52 699.968 1236.17 493.327 1353.03C371.366 1353.03 269.161 1351.23 269.161 1351.23C269.161 1351.23 170.799 1195.53 145.691 1012.59C120.58 829.655 159.321 765.646 227.554 757.052C263.919 752.471 334.07 804.991 369.241 794.716C398.558 786.15 360.981 687.52 360.981 617.572C360.981 547.626 379.242 484.937 408.699 470.087C432.421 458.13 502.927 510.669 526.243 521.429C549.561 532.191 595.375 543.337 604.147 519.537C614.924 490.286 576.273 413.813 605.107 370.564C641.155 316.488 803.156 273.359 879.989 282.14" fill="#D3E2F2"/><path id="Stroke 10" d="M830.612 357.098C832.006 358.438 832.049 360.654 830.709 362.047L829.465 363.357C828.843 364.017 828.153 364.753 827.396 365.565L825.795 367.29C821.942 371.457 817.497 376.361 812.507 381.985L811.824 382.756C797.075 399.406 780.671 418.807 763.018 440.79L761.89 442.197C710.212 506.678 658.531 579.762 610.297 660.009C549.863 760.553 499.226 865.224 461.601 972.674C417.268 1099.28 392.36 1225.98 390.08 1351.45C390.045 1353.38 388.45 1354.92 386.517 1354.88C384.584 1354.85 383.046 1353.25 383.081 1351.32C385.376 1225.07 410.426 1097.64 454.994 970.36C492.787 862.432 543.63 757.336 604.298 656.402C652.165 576.766 703.411 504.164 754.699 439.98L756.427 437.819C773.828 416.108 790.039 396.871 804.683 380.266L806.584 378.115C810.963 373.17 814.938 368.762 818.478 364.902L820.655 362.538C821.509 361.614 822.298 360.766 823.02 359.995L825.664 357.195C827.004 355.801 829.219 355.758 830.612 357.098Z" fill="white"/></g></g></g><path id="Path 6 (Stroke)" fill-rule="evenodd" clip-rule="evenodd" d="M2266 1516.5H57V1512.5H2266V1516.5Z" fill="#141414"/><g id="Plant" transform="matrix(-1 0 0 1 645 663.5) scale(1 1)"><g id="Plant/Plant 1"><g id="plant"><g id="Leaf 3"><path id="Fill 1" fill-rule="evenodd" clip-rule="evenodd" d="M374.475 562.183C374.475 562.183 363.527 505.372 403.544 487.947C443.563 470.521 449.827 444.431 474.6 437.859C498.715 431.46 534.814 474.559 486.002 520.992C437.192 567.423 417.818 586.13 374.475 562.183" fill="#FF4B33"/><path id="Fill 13" fill-rule="evenodd" clip-rule="evenodd" d="M326.655 676.224C326.536 676.224 326.416 676.213 326.295 676.192C325.208 675.994 324.487 674.952 324.685 673.866C345.329 560.684 429.93 503.546 457.731 484.77C461.93 481.934 465.248 479.694 466.356 478.585C467.137 477.804 468.403 477.804 469.184 478.585C469.966 479.367 469.966 480.632 469.184 481.413C467.804 482.793 464.688 484.899 459.97 488.084C432.513 506.628 348.962 563.057 328.621 674.582C328.444 675.548 327.603 676.224 326.655 676.224" fill="#141414"/></g><g id="Leaf 2"><path id="Fill 4" fill-rule="evenodd" clip-rule="evenodd" d="M276.729 344.377C257.128 349.322 248.318 377.861 266.427 411.154C275.8 428.387 269.274 437.898 267.458 449.186C261.535 485.99 274.95 491.18 276.453 501.11C277.955 511.041 270.437 532.359 271.656 545.282C274.192 572.171 299.245 600.991 332.536 575.215C361.154 553.056 360.582 503.84 349.784 493.375C338.985 482.91 336.28 485.797 344.712 463.094C351.307 445.337 347.607 422.07 335.073 411.345C324.854 402.602 318.837 406.779 319.283 383.852C319.693 362.748 307.186 336.691 276.729 344.377" fill="#FF4B33"/><path id="Fill 11" fill-rule="evenodd" clip-rule="evenodd" d="M304.637 661.263C304.573 661.263 304.506 661.26 304.44 661.253C303.341 661.146 302.537 660.167 302.645 659.068C320.977 471.872 289.431 382.937 289.111 382.061C288.731 381.024 289.264 379.875 290.301 379.495C291.334 379.117 292.486 379.648 292.866 380.686C293.199 381.594 301.069 403.441 306.767 448.889C312.013 490.728 316.246 561.222 306.625 659.458C306.525 660.491 305.655 661.263 304.637 661.263" fill="#141414"/></g><g id="Leaf 1"><path id="Fill 7" fill-rule="evenodd" clip-rule="evenodd" d="M140.207 441C129.72 451.892 135.017 481.88 156.602 489.472C170.442 494.34 168.985 505.325 172.296 513.21C183.092 538.919 193.661 536.908 198.543 542.618C203.424 548.329 202.171 567.584 206.892 576.067C216.739 593.765 248.9 599.904 259.842 570.372C269.248 544.986 263.387 518.2 242.04 508.705C231.815 504.158 228.668 507.63 225.943 489.721C223.219 471.812 213.78 459.931 201.581 458.079C191.635 456.569 190.667 462.253 179.36 451.233C168.054 440.214 156.505 424.075 140.207 441" fill="#FF4B33"/><path id="Fill 9" fill-rule="evenodd" clip-rule="evenodd" d="M267.731 651.364C266.799 651.364 265.966 650.711 265.773 649.762C265.567 648.753 244.324 547.855 168.49 470.881C167.714 470.094 167.724 468.828 168.511 468.052C169.298 467.278 170.564 467.287 171.339 468.074C211.422 508.76 236.024 555.756 249.604 588.016C264.32 622.976 269.641 648.71 269.693 648.966C269.913 650.048 269.214 651.103 268.131 651.324C267.998 651.351 267.863 651.364 267.731 651.364" fill="#141414"/></g><g id="Pot"><path id="Fill 15" fill-rule="evenodd" clip-rule="evenodd" d="M415.761 636.727H188.652V674.855H205.12L230.429 849.638H373.984L399.293 674.855H415.761V636.727Z" fill="white"/><path id="Fill 17" fill-rule="evenodd" clip-rule="evenodd" d="M190.652 672.855H413.761V638.727H190.652V672.855ZM372.253 847.638H232.161L207.43 676.855H396.983L372.253 847.638ZM415.761 634.727H188.652C187.548 634.727 186.652 635.622 186.652 636.727V674.855C186.652 675.959 187.548 676.855 188.652 676.855H203.389L228.45 849.925C228.592 850.909 229.435 851.638 230.429 851.638H373.984C374.978 851.638 375.821 850.909 375.964 849.925L401.024 676.855H415.761C416.866 676.855 417.761 675.959 417.761 674.855V636.727C417.761 635.622 416.866 634.727 415.761 634.727V634.727Z" fill="#141414"/></g></g></g></g><g id="Object" transform="translate(1298.5 -87) scale(1 1)"><g id="Object/Cloud 1"><path id="Fill 1" fill-rule="evenodd" clip-rule="evenodd" d="M140.472 385.488C140.472 385.488 169.426 317.231 190.189 317.241C210.952 317.249 220.154 335.997 230.74 332.769C241.325 329.544 262.613 238.741 294.847 242.065C327.081 245.392 322.282 321.658 354.354 327.57C386.426 333.482 405.273 281.461 441.061 290.201C476.85 298.941 484.416 364.305 493.781 380.468C503.146 396.63 518.007 407.947 498.535 408.021C479.064 408.091 96.2679 407.365 140.472 385.488" fill="white"/><path id="Fill 1 Copy" fill-rule="evenodd" clip-rule="evenodd" d="M415.732 292.1C409.678 295.136 404.785 298.725 395.942 306.177L391.27 310.135C390.999 310.364 390.741 310.581 390.487 310.795L389.435 311.674C382.707 317.274 378.073 320.585 373.188 323.014C366.868 326.156 360.867 327.246 354.626 326.095C347.809 324.839 342.377 320.106 337.605 311.865L337.434 311.568C334.034 305.635 331.589 299.515 327.329 287.043L325.013 280.224C320.786 267.879 318.333 261.784 314.906 255.883L314.554 255.283C309.294 246.415 303.05 241.404 295.001 240.573C286.591 239.706 278.616 244.59 270.827 254.332C264.852 261.805 259.168 271.812 252.979 285.044L252.169 286.788C250.071 291.336 245.269 302.42 242.026 309.907C240.725 312.911 239.674 315.336 239.15 316.527L238.474 318.027C234.601 326.495 231.917 330.842 230.302 331.334C229.391 331.612 228.476 331.699 227.522 331.607C225.717 331.434 223.757 330.631 221.25 329.104C219.94 328.306 215.318 325.13 213.969 324.197L213.051 323.575C205.084 318.308 198.51 315.744 190.19 315.741C185.359 315.739 180.161 318.884 174.576 324.69C168.732 330.764 162.564 339.647 156.243 350.616C151.919 358.118 147.779 366.15 143.965 374.181C142.631 376.992 141.432 379.602 140.387 381.945L140.036 382.735L139.307 384.4L139.11 384.507C133.114 387.797 134.576 391.699 141.889 394.162C147.876 396.178 158.446 397.971 173.322 399.575L175.709 399.827C202.759 402.622 242.633 404.785 292.482 406.386L300.607 406.639C340.169 407.836 383.711 408.637 428.141 409.106L438.041 409.204C460.391 409.412 481.341 409.519 493.021 409.527L498.93 409.517C507.403 409.412 510.838 406.883 509.198 401.718C508.656 400.015 507.581 398.086 505.761 395.405L505.246 394.655C504.958 394.238 504.093 393.029 503.085 391.62C501.615 389.566 499.841 387.086 499.103 386.015L498.645 385.345C497.291 383.354 496.126 381.522 495.079 379.716C494.566 378.829 494.038 377.749 493.491 376.467C492.187 373.415 491.048 370.08 488.993 363.392L487.119 357.224C484.307 347.947 482.819 343.251 480.906 337.883L479.984 335.335C470.247 308.854 458.546 292.926 441.417 288.743C432.541 286.576 424.221 287.844 415.732 292.1ZM255.313 287.138C269.157 257.352 281.424 242.189 294.693 243.557C301.657 244.276 307.154 248.687 311.974 256.814C315.453 262.68 317.879 268.65 322.187 281.231L324.925 289.283C329.055 301.303 331.51 307.325 335.009 313.368L335.292 313.852C340.402 322.491 346.413 327.632 354.082 329.045C361.008 330.322 367.655 329.116 374.524 325.7C379.533 323.21 384.205 319.899 390.814 314.429L392.416 313.092L398.341 308.079C406.389 301.316 411.035 297.896 416.426 295.113L417.077 294.782C424.962 290.828 432.565 289.67 440.706 291.658C456.73 295.571 467.978 311.068 477.459 337.165L477.586 337.516C479.437 342.629 480.794 346.784 483.082 354.262L485.12 360.975C487.767 369.708 489.071 373.686 490.556 377.23L490.953 378.156C491.469 379.326 491.976 380.343 492.483 381.22C493.689 383.301 495.039 385.403 496.632 387.716C497.392 388.819 499.201 391.349 500.678 393.413C501.472 394.521 502.169 395.496 502.556 396.043L503.256 397.056C504.934 399.527 505.905 401.261 506.338 402.626C507.201 405.342 505.574 406.494 498.53 406.521L495.634 406.527C484.014 406.536 459.375 406.416 433.584 406.161L419.68 406.012C376.337 405.512 334.033 404.69 295.673 403.485L291.044 403.338C242.488 401.76 203.523 399.645 176.857 396.929L174.419 396.675C159.341 395.072 148.669 393.28 142.847 391.319L142.546 391.216C139.986 390.323 138.596 389.438 138.426 388.897L138.42 388.866C138.396 388.581 139.092 387.845 141.138 386.833L140.472 385.488L141.853 386.074L141.88 386.011L142.317 385.001C142.46 384.674 142.614 384.323 142.78 383.948L143.766 381.742C144.424 380.287 145.136 378.74 145.897 377.117L146.675 375.468C150.457 367.504 154.562 359.54 158.842 352.114C165.052 341.338 171.095 332.634 176.738 326.769C181.81 321.497 186.367 318.739 190.188 318.741C197.816 318.744 203.878 321.107 211.398 326.078L211.92 326.427C212.031 326.51 218.088 330.691 219.69 331.666L220.115 331.921C222.784 333.502 225.011 334.38 227.235 334.594C228.575 334.722 229.884 334.598 231.177 334.204C233.989 333.347 236.729 329.016 240.969 319.786L241.628 318.339C241.991 317.536 243.216 314.708 244.806 311.036C247.834 304.049 252.186 294.003 254.441 289.034L255.313 287.138Z" fill="#141414"/></g></g><g id="Seat" transform="translate(809 876) scale(1.0636493535004845 1.0636493389423076)"><g id="Seat/Chair"><g id="Chiar"><path id="Fill 1" fill-rule="evenodd" clip-rule="evenodd" d="M181 633C179.896 633 179 632.092 179 630.973V327.027C179 325.907 179.896 325 181 325C182.104 325 183 325.907 183 327.027V630.973C183 632.092 182.104 633 181 633" fill="#141414"/><path id="Fill 3" fill-rule="evenodd" clip-rule="evenodd" d="M315 633C313.896 633 313 632.092 313 630.973V327.027C313 325.907 313.896 325 315 325C316.104 325 317 325.907 317 327.027V630.973C317 632.092 316.104 633 315 633" fill="#141414"/><path id="Fill 5" fill-rule="evenodd" clip-rule="evenodd" d="M455 633C453.896 633 453 632.092 453 630.973V327.027C453 325.907 453.896 325 455 325C456.104 325 457 325.907 457 327.027V630.973C457 632.092 456.104 633 455 633" fill="#141414"/><path id="Fill 7" fill-rule="evenodd" clip-rule="evenodd" d="M133 357H511V307H133V357Z" fill="#FF4B33"/></g></g></g><g id="Master/Character/Sitting" transform="translate(600.059 508) scale(1 1)"><g id="Master/Character/Sitting"><g id="Lower Body Sit" transform="translate(264 454) scale(1 1)"><g id="Lower Body Sit/Sitting"><g id="Sitting"><g id="Assets 38"><path id="SKIN" fill-rule="evenodd" clip-rule="evenodd" d="M521.7 491.689L535.26 542.336L605.766 548.21L601.875 499.08" fill="white"/><path id="Fill 2" fill-rule="evenodd" clip-rule="evenodd" d="M605.768 550.208C605.712 550.208 605.657 550.206 605.601 550.201L535.094 544.329C534.55 544.284 534.049 544.019 533.705 543.595C533.363 543.171 533.207 542.625 533.276 542.084L519.716 491.437C519.856 490.339 520.876 489.564 521.953 489.704C523.048 489.844 523.824 490.845 523.685 491.94L537.507 540.517L604.359 546.084L599.975 498.456C600.319 497.407 601.446 496.833 602.498 497.179C603.548 497.522 604.12 498.652 603.776 499.702L607.667 548.831C607.397 549.658 606.625 550.208 605.768 550.208" fill="#141414"/><path id="Fill 4" fill-rule="evenodd" clip-rule="evenodd" d="M532.376 539.599C532.634 538.582 533.634 537.939 534.667 538.123C535.65 538.3 536.895 538.539 538.36 538.822C547.342 540.55 566.031 544.147 583.742 544.161H583.787C594.221 544.161 603.397 541.307 609.625 536.122C610.12 535.71 610.782 535.564 611.408 535.724C641.806 543.638 663.769 549.356 680.045 560.211C682.905 562.12 693.222 570.448 691.437 576.338C690.612 579.062 687.674 580.443 682.704 580.443C664.56 580.443 625.469 580.544 590.98 580.634C563.073 580.707 538.973 580.77 529.899 580.77C528.94 580.77 528.075 580.335 527.462 579.546C523.889 574.95 529.708 550.078 532.376 539.599" fill="#f58404"/><path id="Fill 6" fill-rule="evenodd" clip-rule="evenodd" d="M530.264 589.577H687.101C689.707 589.577 691.82 587.464 691.82 584.857V583.298C691.82 580.691 689.707 578.579 687.101 578.579H530.264C527.659 578.579 525.545 580.691 525.545 583.298V584.857C525.545 587.464 527.659 589.577 530.264 589.577" fill="#141414"/><path id="Fill 8" fill-rule="evenodd" clip-rule="evenodd" d="M642.56 554.567C643.355 554.567 644.117 554.12 644.481 553.354C647.818 546.346 654.229 548.061 654.95 548.282C656.068 548.621 657.257 547.996 657.605 546.88C657.952 545.762 657.337 544.577 656.223 544.223C652.587 543.069 644.649 543.111 640.641 551.526C640.136 552.587 640.586 553.855 641.647 554.36C641.942 554.501 642.253 554.567 642.56 554.567" fill="#141414"/><path id="Fill 10" fill-rule="evenodd" clip-rule="evenodd" d="M623.778 549.444C624.573 549.444 625.336 548.997 625.7 548.231C629.037 541.223 635.448 542.938 636.168 543.159C637.287 543.499 638.476 542.873 638.823 541.757C639.17 540.639 638.555 539.454 637.441 539.1C633.801 537.947 625.865 537.99 621.86 546.403C621.355 547.464 621.805 548.732 622.866 549.237C623.161 549.378 623.471 549.444 623.778 549.444" fill="#141414"/></g><g id="Assets 39"><path id="SKIN_2" fill-rule="evenodd" clip-rule="evenodd" d="M354.859 492.695L348.419 543.342L418.925 549.216L435.034 500.086" fill="white"/><path id="Fill 14" fill-rule="evenodd" clip-rule="evenodd" d="M418.926 551.214C418.87 551.214 418.815 551.212 418.759 551.207L348.252 545.335C347.708 545.29 347.207 545.025 346.863 544.601C346.521 544.177 346.365 543.631 346.434 543.09L352.874 492.443C353.014 491.345 354.034 490.57 355.111 490.71C356.206 490.85 356.982 491.851 356.843 492.946L350.665 541.523L417.517 547.09L433.133 499.462C433.477 498.413 434.604 497.839 435.656 498.185C436.706 498.528 437.278 499.658 436.934 500.708L420.825 549.837C420.555 550.664 419.783 551.214 418.926 551.214" fill="#141414"/><path id="Fill 16" fill-rule="evenodd" clip-rule="evenodd" d="M345.534 540.605C345.792 539.588 346.792 538.945 347.825 539.129C348.808 539.306 350.053 539.545 351.518 539.828C360.5 541.556 379.189 545.153 396.9 545.167H396.945C407.379 545.167 416.555 542.313 422.783 537.128C423.278 536.716 423.94 536.57 424.566 536.73C454.964 544.644 476.927 550.362 493.203 561.217C496.063 563.126 506.38 571.454 504.596 577.344C503.77 580.068 500.832 581.449 495.862 581.449C477.718 581.449 438.627 581.55 404.138 581.64C376.231 581.713 352.131 581.776 343.057 581.776C342.098 581.776 341.233 581.341 340.62 580.552C337.047 575.956 342.866 551.084 345.534 540.605" fill="#f58404"/><path id="Fill 18" fill-rule="evenodd" clip-rule="evenodd" d="M343.422 590.583H500.259C502.865 590.583 504.978 588.47 504.978 585.863V584.304C504.978 581.697 502.865 579.585 500.259 579.585H343.422C340.817 579.585 338.703 581.697 338.703 584.304V585.863C338.703 588.47 340.817 590.583 343.422 590.583" fill="#141414"/><path id="Fill 21" fill-rule="evenodd" clip-rule="evenodd" d="M455.718 555.572C456.513 555.572 457.275 555.125 457.639 554.359C460.976 547.351 467.387 549.066 468.108 549.287C469.226 549.626 470.415 549.001 470.763 547.885C471.11 546.767 470.495 545.582 469.381 545.228C465.745 544.074 457.807 544.116 453.799 552.531C453.294 553.592 453.744 554.86 454.805 555.365C455.1 555.506 455.411 555.572 455.718 555.572" fill="#141414"/><path id="Fill 23" fill-rule="evenodd" clip-rule="evenodd" d="M436.937 550.45C437.732 550.45 438.495 550.003 438.859 549.237C442.196 542.229 448.607 543.944 449.327 544.165C450.446 544.505 451.635 543.879 451.982 542.763C452.329 541.645 451.714 540.46 450.6 540.106C446.96 538.953 439.024 538.996 435.019 547.409C434.514 548.47 434.964 549.738 436.025 550.243C436.32 550.384 436.63 550.45 436.937 550.45" fill="#141414"/></g><g id="Pant 2"><path id="Fill 25" fill-rule="evenodd" clip-rule="evenodd" d="M472.057 120H357.391C327.02 120 435.016 255.826 435.016 255.826C435.54 268.396 436.998 495.136 436.998 495.136C510.551 510.252 570.338 514.593 620.763 506.561C620.763 506.561 594.334 309.901 572.444 196.945C561.108 138.45 512.953 120 472.057 120" fill="#141414"/><g id="Combined Shape"><path fill-rule="evenodd" clip-rule="evenodd" d="M498.197 273.613C499.287 273.436 500.027 272.408 499.849 271.318L497.924 259.473C497.747 258.383 496.726 257.644 495.629 257.82C494.539 257.997 493.799 259.025 493.976 260.115L495.902 271.96C496.061 272.942 496.91 273.639 497.873 273.639C497.98 273.639 498.088 273.631 498.197 273.613ZM502.049 297.302C503.139 297.125 503.879 296.098 503.701 295.007L501.776 283.163C501.599 282.073 500.581 281.334 499.481 281.51C498.391 281.687 497.651 282.715 497.828 283.804L499.754 295.65C499.913 296.631 500.762 297.328 501.725 297.328C501.832 297.328 501.94 297.321 502.049 297.302ZM522.957 413.451C523.135 414.542 522.395 415.569 521.305 415.746C521.196 415.765 521.088 415.772 520.982 415.772C520.018 415.772 519.169 415.075 519.01 414.094L517.084 402.25C516.907 401.159 517.647 400.132 518.737 399.955C519.827 399.773 520.855 400.517 521.032 401.607L522.957 413.451ZM525.156 439.436C526.246 439.259 526.986 438.232 526.808 437.141L524.883 425.296C524.706 424.206 523.679 423.462 522.588 423.644C521.498 423.821 520.758 424.848 520.935 425.939L522.861 437.784C523.02 438.765 523.869 439.462 524.833 439.462C524.939 439.462 525.047 439.455 525.156 439.436ZM536.71 510.502C537.8 510.325 538.54 509.298 538.362 508.207L536.437 496.363C536.26 495.273 535.243 494.523 534.142 494.711C533.052 494.888 532.312 495.915 532.489 497.006L534.415 508.85C534.574 509.831 535.423 510.528 536.387 510.528C536.493 510.528 536.601 510.521 536.71 510.502ZM532.858 486.814C533.948 486.637 534.688 485.61 534.51 484.519L532.585 472.674C532.408 471.584 531.38 470.838 530.29 471.022C529.2 471.199 528.46 472.226 528.637 473.317L530.563 485.162C530.722 486.143 531.571 486.84 532.535 486.84C532.641 486.84 532.749 486.833 532.858 486.814ZM530.659 460.829C530.837 461.92 530.097 462.947 529.007 463.124C528.898 463.143 528.79 463.15 528.684 463.15C527.72 463.15 526.871 462.453 526.712 461.472L524.787 449.628C524.61 448.537 525.35 447.51 526.44 447.333C527.528 447.149 528.558 447.895 528.735 448.985L530.659 460.829ZM507.551 318.695C507.729 319.786 506.989 320.813 505.899 320.99C505.79 321.009 505.682 321.016 505.576 321.016C504.612 321.016 503.763 320.319 503.604 319.338L501.678 307.494C501.501 306.403 502.241 305.376 503.331 305.199C504.43 305.012 505.449 305.761 505.626 306.851L507.551 318.695ZM519.105 389.763C519.283 390.854 518.543 391.881 517.453 392.058C517.344 392.077 517.236 392.084 517.13 392.084C516.166 392.084 515.317 391.387 515.158 390.406L513.232 378.561C513.055 377.47 513.795 376.443 514.885 376.266C515.974 376.081 517.003 376.828 517.18 377.918L519.105 389.763ZM509.751 344.68C510.841 344.503 511.581 343.476 511.403 342.385L509.478 330.54C509.301 329.45 508.272 328.705 507.183 328.888C506.093 329.065 505.353 330.092 505.53 331.183L507.456 343.028C507.615 344.009 508.464 344.706 509.428 344.706C509.534 344.706 509.642 344.699 509.751 344.68ZM515.255 366.073C515.433 367.164 514.693 368.191 513.603 368.368C513.494 368.387 513.386 368.394 513.28 368.394C512.316 368.394 511.467 367.697 511.308 366.716L509.382 354.872C509.205 353.781 509.945 352.754 511.035 352.577C512.134 352.391 513.153 353.139 513.33 354.229L515.255 366.073Z" fill="white" fill-opacity="0.8" style="mix-blend-mode:overlay"/></g></g><g id="Pant 1"><path id="Fill 1" fill-rule="evenodd" clip-rule="evenodd" d="M394.453 120H162.768C162.768 120 139.333 203.554 186.939 249.256C230.816 291.379 331.095 276.308 352.09 272.593L355.538 250.897C355.711 249.806 356.749 249.064 357.827 249.235C358.917 249.409 359.662 250.434 359.489 251.525L355.932 273.906C354.257 299.842 322.931 513.136 322.931 513.136C382.761 530.69 459.88 532.324 499.943 524.561C499.943 524.561 500.676 324.292 492.645 201.026C489.188 147.972 447.017 120 394.453 120Z" fill="#0B379B"/><g id="Combined Shape_2"><path fill-rule="evenodd" clip-rule="evenodd" d="M201.133 132.369C200.718 128.867 200.685 126.626 200.685 126.603C200.671 125.508 199.778 124.629 198.685 124.629H198.66C197.556 124.642 196.672 125.548 196.685 126.652C196.686 126.75 196.718 129.107 197.16 132.84C197.281 133.857 198.145 134.604 199.144 134.604C199.223 134.604 199.302 134.6 199.382 134.591C200.479 134.461 201.263 133.466 201.133 132.369ZM385.308 442.829C384.218 442.744 383.246 443.57 383.163 444.673C382.854 448.765 382.549 452.764 382.251 456.652C382.167 457.753 382.992 458.715 384.093 458.799C384.145 458.803 384.197 458.805 384.247 458.805C385.283 458.805 386.16 458.007 386.24 456.957C386.537 453.068 386.842 449.067 387.152 444.974C387.235 443.873 386.41 442.912 385.308 442.829ZM379.436 492.594C379.523 491.493 380.482 490.683 381.588 490.759C382.69 490.848 383.511 491.812 383.423 492.912C383.068 497.341 382.745 501.359 382.458 504.899C382.373 505.945 381.498 506.737 380.467 506.737C380.44 506.737 380.414 506.736 380.386 506.735L380.36 506.734L380.341 506.733C380.329 506.732 380.316 506.731 380.303 506.73C379.202 506.641 378.382 505.676 378.472 504.574C378.759 501.036 379.082 497.021 379.436 492.594ZM383.475 466.793C382.371 466.721 381.412 467.53 381.326 468.632C381 472.807 380.687 476.811 380.387 480.612C380.3 481.714 381.122 482.677 382.224 482.764C382.243 482.766 382.262 482.767 382.281 482.768C382.303 482.769 382.325 482.769 382.347 482.77C382.359 482.77 382.371 482.77 382.383 482.77C383.416 482.77 384.292 481.975 384.375 480.927C384.675 477.123 384.989 473.119 385.314 468.942C385.4 467.841 384.577 466.879 383.475 466.793ZM388.311 372.783C388.384 371.682 389.323 370.826 390.44 370.922C391.542 370.995 392.376 371.948 392.301 373.051C392.034 377.048 391.762 381.052 391.487 385.048C391.415 386.103 390.536 386.91 389.494 386.91C389.448 386.91 389.401 386.908 389.354 386.905C388.252 386.829 387.42 385.875 387.497 384.773C387.772 380.779 388.044 376.778 388.311 372.783ZM380.171 226.516C380.9 226.516 381.601 226.117 381.954 225.424C382.456 224.44 382.066 223.236 381.082 222.734C377.875 221.098 374.145 219.404 369.994 217.697C368.971 217.276 367.803 217.766 367.384 218.787C366.964 219.808 367.451 220.976 368.473 221.396C372.524 223.062 376.154 224.711 379.264 226.297C379.555 226.446 379.865 226.516 380.171 226.516ZM384.944 420.715C385.025 419.613 385.977 418.793 387.085 418.865C388.187 418.946 389.015 419.904 388.935 421.006C388.638 425.055 388.343 429.056 388.049 432.991C387.971 434.042 387.094 434.842 386.057 434.842C386.032 434.842 386.007 434.842 385.982 434.841L385.957 434.84C385.94 434.839 385.923 434.838 385.905 434.836C384.804 434.754 383.978 433.794 384.061 432.692C384.355 428.76 384.649 424.762 384.944 420.715ZM388.799 394.899C387.713 394.835 386.742 395.653 386.664 396.754C386.382 400.771 386.098 404.769 385.813 408.734C385.734 409.836 386.563 410.794 387.664 410.873C387.688 410.874 387.711 410.875 387.734 410.876C387.747 410.877 387.759 410.877 387.772 410.877C387.785 410.877 387.797 410.878 387.81 410.878C388.849 410.878 389.727 410.074 389.803 409.021C390.088 405.054 390.372 401.054 390.654 397.034C390.732 395.932 389.902 394.976 388.799 394.899ZM231.305 177.892C234.019 178.819 237.754 179.929 242.722 181.286C243.788 181.577 244.415 182.677 244.124 183.742C243.882 184.631 243.076 185.216 242.196 185.216C242.022 185.216 241.845 185.193 241.668 185.144C236.618 183.765 232.806 182.631 230.013 181.677C228.968 181.32 228.409 180.183 228.766 179.138C229.123 178.093 230.259 177.535 231.305 177.892ZM203.316 143.869C203.033 142.801 201.94 142.167 200.871 142.447C199.803 142.73 199.167 143.825 199.449 144.892C200.543 149.027 201.925 152.936 203.556 156.512C203.892 157.247 204.618 157.682 205.377 157.682C205.654 157.682 205.937 157.624 206.206 157.501C207.211 157.043 207.653 155.856 207.195 154.851C205.658 151.481 204.353 147.786 203.316 143.869ZM254.319 184.338C257.973 185.275 261.874 186.261 265.964 187.29C267.035 187.56 267.685 188.646 267.416 189.717C267.188 190.625 266.373 191.23 265.478 191.23C265.316 191.23 265.152 191.21 264.988 191.169C260.891 190.139 256.985 189.151 253.325 188.212C252.256 187.938 251.61 186.848 251.885 185.778C252.159 184.708 253.247 184.061 254.319 184.338ZM391.986 346.959C390.904 346.894 389.934 347.729 389.865 348.83C389.616 352.798 389.361 356.798 389.099 360.814C389.028 361.917 389.863 362.868 390.965 362.94C391.009 362.943 391.053 362.944 391.097 362.944C392.142 362.944 393.022 362.132 393.091 361.074C393.353 357.054 393.608 353.052 393.857 349.08C393.926 347.978 393.089 347.028 391.986 346.959ZM347.244 209.484C351.299 210.8 355.147 212.108 358.681 213.374C359.721 213.746 360.262 214.891 359.89 215.931C359.598 216.748 358.827 217.257 358.007 217.257C357.784 217.257 357.556 217.22 357.333 217.14C353.836 215.888 350.027 214.592 346.01 213.289C344.959 212.948 344.384 211.82 344.725 210.77C345.066 209.719 346.192 209.145 347.244 209.484ZM335.729 205.891C332.083 204.793 328.19 203.656 324.163 202.511C323.099 202.208 321.994 202.826 321.692 203.888C321.39 204.951 322.006 206.057 323.069 206.359C327.077 207.498 330.949 208.629 334.577 209.721C334.768 209.779 334.962 209.807 335.154 209.807C336.013 209.807 336.807 209.248 337.068 208.383C337.386 207.325 336.787 206.209 335.729 205.891ZM300.934 196.192C304.791 197.204 308.677 198.237 312.557 199.291C313.623 199.581 314.253 200.679 313.963 201.745C313.722 202.636 312.915 203.222 312.034 203.222C311.861 203.222 311.684 203.199 311.509 203.151C307.64 202.101 303.766 201.07 299.919 200.062C298.851 199.781 298.212 198.688 298.492 197.62C298.772 196.551 299.863 195.915 300.934 196.192ZM289.284 193.179C285.319 192.165 281.42 191.179 277.625 190.222C276.551 189.949 275.466 190.601 275.197 191.673C274.927 192.744 275.576 193.831 276.647 194.101C280.439 195.056 284.333 196.042 288.293 197.054C288.459 197.096 288.626 197.117 288.79 197.117C289.682 197.117 290.495 196.516 290.726 195.612C291 194.542 290.354 193.452 289.284 193.179ZM392.749 235.911C391.915 234.813 390.687 233.607 389.135 232.378C388.27 231.692 388.123 230.434 388.81 229.568C389.495 228.702 390.753 228.557 391.619 229.242C393.435 230.681 394.9 232.128 395.974 233.545C396.569 234.361 397.205 235.83 397.602 240.773C397.691 241.874 396.869 242.838 395.769 242.926C395.714 242.931 395.66 242.933 395.607 242.933C394.574 242.933 393.699 242.139 393.615 241.093C393.277 236.885 392.803 235.998 392.749 235.911ZM396.004 250.921H395.996C394.892 250.924 394 251.824 394.004 252.928L394.007 254.546C394.007 257.607 393.968 261.09 393.892 264.9C393.87 266.005 394.747 266.919 395.852 266.941H395.893C396.979 266.941 397.869 266.072 397.892 264.98C397.968 261.145 398.007 257.633 398.007 254.546L398.004 252.913C398 251.812 397.106 250.921 396.004 250.921ZM393.566 276.89C393.603 275.786 394.543 274.905 395.631 274.957C396.735 274.994 397.6 275.919 397.564 277.022C397.437 280.848 397.282 284.866 397.108 289.05C397.063 290.125 396.177 290.966 395.11 290.966C395.103 290.966 395.097 290.966 395.09 290.966C395.082 290.966 395.075 290.966 395.067 290.965L395.031 290.964L395.026 290.964C393.922 290.918 393.065 289.985 393.111 288.882C393.286 284.711 393.439 280.703 393.566 276.89ZM393.411 322.972C392.296 322.92 391.363 323.753 391.301 324.856C391.077 328.794 390.844 332.795 390.6 336.843C390.534 337.946 391.374 338.894 392.476 338.959C392.517 338.962 392.558 338.963 392.599 338.963C393.648 338.963 394.529 338.145 394.593 337.083C394.836 333.03 395.071 329.025 395.295 325.082C395.357 323.98 394.514 323.034 393.411 322.972ZM392.568 300.875C392.621 299.771 393.556 298.929 394.663 298.974C395.767 299.028 396.617 299.965 396.564 301.069C396.375 304.97 396.172 308.979 395.955 313.078C395.898 314.145 395.016 314.972 393.96 314.972C393.924 314.972 393.889 314.971 393.852 314.969C392.749 314.911 391.902 313.969 391.961 312.867C392.178 308.774 392.381 304.771 392.568 300.875ZM379.712 513.97C378.605 513.868 377.645 514.699 377.555 515.799L377.06 521.773C376.968 522.873 377.785 523.841 378.886 523.933C378.942 523.938 378.999 523.94 379.055 523.94C380.084 523.94 380.958 523.151 381.046 522.107L381.541 516.127C381.632 515.027 380.813 514.061 379.712 513.97ZM237.527 126.377C237.576 126.765 238.71 136.012 236.87 146.34C234.604 159.057 228.759 167.757 219.904 171.739C220.017 171.83 220.13 171.921 220.243 172.012C220.551 172.261 220.858 172.509 221.175 172.739C222.069 173.388 222.267 174.639 221.618 175.532C221.227 176.071 220.617 176.357 219.998 176.357C219.591 176.357 219.18 176.233 218.825 175.975C215.526 173.58 212.521 170.625 209.892 167.192C209.221 166.315 209.388 165.059 210.265 164.388C211.142 163.717 212.398 163.883 213.068 164.76C214.166 166.194 215.343 167.523 216.574 168.764C237.611 161.317 233.602 127.225 233.558 126.878C233.42 125.782 234.197 124.782 235.292 124.644C236.391 124.511 237.388 125.281 237.527 126.377Z" fill="white" fill-opacity="0.8" style="mix-blend-mode:overlay"/></g></g></g></g></g><g id="Upper Body" transform="translate(272 187) scale(1 1)"><g id="Upper Body/On Macbook"><g id="T Shirt"><path id="Fill 1" fill-rule="evenodd" clip-rule="evenodd" d="M162.181 260.449C162.185 260.785 162.194 261.107 162.197 261.446C162.255 267.151 161.899 276.275 161.279 287.232C152.253 287.175 143.887 286.552 139.712 284.749C144.908 277.475 153.459 268.668 162.181 260.449ZM406.789 393.85C405.649 299.96 409.623 199.196 371.281 137.717C328.842 69.6684 195.102 81.4044 147.841 121.884C124.329 138.22 88.4238 169.329 57.3728 222.144C34.3858 261.242 20.2348 337.082 55.1588 361.551C85.9818 376.881 126.447 379.568 157.123 377.932C156.527 384.04 155.966 389.454 155.47 393.85H406.789Z" fill="#f58404"/><path id="Fill 3" fill-rule="evenodd" clip-rule="evenodd" d="M143.196 283.636C147.556 278.026 153.626 271.656 160.056 265.436C159.976 270.556 159.696 277.296 159.276 285.066C152.856 284.966 147.076 284.556 143.196 283.636ZM158.846 391.726C159.226 388.276 159.636 384.306 160.066 379.956C187.156 378.266 203.046 373.406 204.736 372.986C205.756 372.726 206.436 371.766 206.336 370.716L197.996 285.406C197.876 284.236 196.856 283.376 195.676 283.496C188.936 284.126 175.646 285.056 163.536 285.096C164.076 275.106 164.376 266.786 164.326 261.426V261.366C178.816 247.776 193.616 235.896 193.856 235.706C194.776 234.976 194.916 233.636 194.186 232.716C193.456 231.796 192.116 231.646 191.196 232.386C190.286 233.116 177.566 243.316 164.226 255.616C162.826 256.896 161.426 258.206 160.036 259.526C151.946 267.206 144.046 275.356 138.846 282.346C127.986 279.496 119.496 273.806 119.396 273.746C118.426 273.086 117.106 273.346 116.446 274.316C115.786 275.286 116.046 276.606 117.016 277.266C117.436 277.556 126.866 283.896 139.066 286.786C143.186 288.486 150.746 289.176 159.046 289.336C160.446 289.356 161.866 289.366 163.296 289.366C175.796 289.346 188.906 288.346 193.966 287.916L201.916 369.296C190.756 371.956 178.706 374.556 160.486 375.636C159.066 375.716 157.636 375.796 156.186 375.856C125.416 377.246 85.2758 374.106 56.2458 359.716C36.1758 345.526 35.3658 314.656 36.6658 297.496C38.6058 272.036 47.2458 243.576 59.2058 223.226C83.7158 181.536 111.446 153.386 133.526 135.446C138.946 131.026 144.026 127.236 148.636 124.016C155.596 117.936 164.646 112.456 175.146 107.796C199.256 97.0758 231.036 90.6658 262.836 91.2458C312.306 92.1558 351.176 109.506 369.476 138.846C403.356 193.166 403.896 279.626 404.416 363.246C404.466 372.606 404.526 382.256 404.636 391.726H158.846ZM373.087 136.596C354.016 106.006 313.856 87.9358 262.916 86.9958C236.766 86.5158 209.576 90.6958 186.366 98.7658C170.116 104.416 156.556 111.736 146.746 120.036C142.606 122.926 138.066 126.266 133.226 130.116C112.506 146.566 82.2058 175.706 55.5358 221.066C31.2058 262.466 18.4758 338.446 53.9358 363.296C54.0258 363.356 54.1158 363.406 54.2158 363.456C80.7758 376.666 111.346 380.526 137.976 380.526C142.716 380.526 151.326 380.406 155.766 380.186C155.266 385.286 154.786 389.826 154.356 393.616C154.286 394.216 154.476 394.816 154.886 395.266C155.286 395.716 155.866 395.976 156.466 395.976H406.786C407.356 395.976 407.906 395.746 408.306 395.346C408.696 394.936 408.926 394.396 408.916 393.826C408.796 383.686 408.726 373.276 408.666 363.216C408.146 279.016 407.606 191.936 373.087 136.596Z" fill="#141414"/></g><path id="Tie" fill-rule="evenodd" clip-rule="evenodd" d="M264.824 134.109L277.057 153.139L262.105 263.92L296.767 306.737L325.312 267.998L289.291 153.139L297.447 133.429L276.418 121.791L264.824 134.109Z" fill="#FFC81A"/><g id="Neck"><path id="Fill 6" fill-rule="evenodd" clip-rule="evenodd" d="M297.934 61.7372L300.06 85.9732C300.407 100.325 278.229 125.401 278.229 125.401C278.229 125.401 235.227 98.2632 234.891 84.3442L237.395 58.1262" fill="white"/><path id="Fill 8" fill-rule="evenodd" clip-rule="evenodd" d="M278.229 127.528C277.839 127.528 277.445 127.421 277.095 127.2C272.595 124.36 233.119 99.0308 232.766 84.3958C232.764 84.3108 232.767 84.2258 232.775 84.1418L235.279 57.9238C235.392 56.7548 236.432 55.9028 237.599 56.0088C238.768 56.1208 239.625 57.1588 239.514 58.3278L237.022 84.4078C237.164 87.3508 240.14 94.3088 257.979 108.404C266.194 114.894 274.478 120.426 277.823 122.609C279.734 120.341 283.671 115.514 287.544 109.834C294.445 99.7118 298.038 91.5038 297.937 86.0898L295.816 61.9238C295.714 60.7528 296.579 59.7218 297.749 59.6188C298.919 59.5198 299.951 60.3808 300.054 61.5508L302.18 85.7878C302.184 85.8328 302.187 85.8778 302.187 85.9228C302.55 100.936 280.751 125.761 279.823 126.81C279.407 127.281 278.821 127.528 278.229 127.528" fill="#141414"/><path id="Fill 13" fill-rule="evenodd" clip-rule="evenodd" d="M299.165 85.289C295.255 99.301 288.826 112.842 278.458 123.338C260.124 111.322 244.619 98.601 234.179 84.615C208.531 95.435 245.952 151.918 245.952 151.918C245.952 151.918 275.664 126.359 278.458 123.83C281.252 126.359 315.851 142.74 315.851 142.74C315.851 142.74 315.131 87.244 299.165 85.289" fill="white"/><path id="Fill 15" fill-rule="evenodd" clip-rule="evenodd" d="M281.462 123.273C286.23 126.034 300.198 132.934 313.644 139.338C313.018 119.812 309.151 92.1899 300.616 87.9259C296.335 102.299 289.9 114.172 281.462 123.273M233.541 87.2909C230.83 88.8209 229.043 91.1059 228.098 94.2339C225.854 101.667 228.494 113.74 235.732 129.149C239.794 137.797 244.269 145.257 246.423 148.706C252.147 143.78 269.444 128.888 275.284 123.791C256.587 111.338 242.898 99.3699 233.541 87.2909M245.95 154.045C245.853 154.045 245.756 154.039 245.658 154.025C245.054 153.941 244.515 153.602 244.177 153.093C243.103 151.472 217.942 113.155 224.026 93.0049C225.5 88.1269 228.637 84.6449 233.351 82.6559C234.252 82.2769 235.296 82.5589 235.881 83.3429C245.04 95.6119 258.877 107.807 278.15 120.588C286.621 111.533 292.997 99.4759 297.115 84.7169C297.398 83.7049 298.384 83.0489 299.422 83.1779C316.732 85.2979 317.9 136.842 317.975 142.712C317.985 143.446 317.616 144.133 316.999 144.529C316.379 144.926 315.601 144.976 314.939 144.662C309.698 142.18 285.527 130.686 278.638 126.507C272.419 131.954 248.447 152.576 247.337 153.531C246.949 153.865 246.456 154.045 245.95 154.045" fill="#141414"/></g><g id="Macbook"><path id="Fill 19" fill-rule="evenodd" clip-rule="evenodd" d="M436.792 343.93H223.965C217.89 343.93 212.965 337.885 212.965 330.43C212.965 322.974 217.89 316.93 223.965 316.93H436.792C442.867 316.93 447.792 322.974 447.792 330.43C447.792 337.885 442.867 343.93 436.792 343.93" fill="#141414"/><path id="Fill 23" fill-rule="evenodd" clip-rule="evenodd" d="M570.901 343.93H360.226C352.595 343.93 346.41 337.744 346.41 330.113V177.518C346.41 169.888 352.595 163.701 360.226 163.701H570.901C578.531 163.701 584.717 169.888 584.717 177.518V330.113C584.717 337.744 578.531 343.93 570.901 343.93" fill="#13D6C3"/><path id="Fill 43" fill-rule="evenodd" clip-rule="evenodd" d="M491.472 255.292C491.472 267.22 482.363 274.752 470.016 274.752C457.669 274.752 447.66 265.082 447.66 253.154C447.66 241.226 460.903 221.039 470.712 235.867C477.525 246.164 491.472 243.364 491.472 255.292" fill="white"/><path id="Fill 45" fill-rule="evenodd" clip-rule="evenodd" d="M462.957 232.742C462.276 232.742 461.752 232.9 461.435 232.995C455.434 234.801 449.785 245.882 449.785 253.154C449.785 263.89 458.859 272.625 470.014 272.625C481.575 272.625 489.343 265.659 489.343 255.292C489.343 250.169 486.504 248.62 481.062 246.109C476.929 244.2 472.243 242.038 468.936 237.04C466.569 233.461 464.408 232.742 462.957 232.742M470.014 276.878C456.515 276.878 445.531 266.236 445.531 253.154C445.531 244.179 452.079 231.368 460.209 228.923C462.841 228.13 467.94 227.825 472.483 234.693C475.123 238.683 479.049 240.495 482.845 242.247C488.131 244.686 493.597 247.209 493.597 255.292C493.597 268.002 483.898 276.878 470.014 276.878" fill="#141414"/></g><g id="Hand"><path id="Fill 47" fill-rule="evenodd" clip-rule="evenodd" d="M196.102 288.725C212.107 285.487 249.717 280.561 283.156 276.453C345.601 268.78 350.199 309.648 334.029 304.158C323.254 300.499 316.355 301.353 308.135 300.881C317.19 302.322 321.304 308.245 318.938 312.005C315.62 317.277 293.089 307.8 268.427 320.588C246.533 331.941 219.073 349.429 202.632 352.012L196.102 288.725Z" fill="white"/><path id="Fill 49" fill-rule="evenodd" clip-rule="evenodd" d="M198.418 290.437L204.511 349.487C216.316 346.845 233.252 337.456 249.664 328.357C255.898 324.9 261.787 321.636 267.45 318.7C283.106 310.582 297.848 311.149 307.602 311.522C311.574 311.674 316.515 311.863 317.14 310.872C317.58 310.172 317.584 309.333 317.151 308.379C316.27 306.435 313.292 303.854 307.802 302.981C306.683 302.803 305.9 301.779 306.022 300.653C306.144 299.526 307.126 298.685 308.258 298.758C310.082 298.862 311.883 298.901 313.625 298.939C319.743 299.072 326.07 299.208 334.714 302.144C335.846 302.528 337.914 302.975 339.036 301.646C340.133 300.347 340.34 297.375 338.333 293.666C332.974 283.761 315.733 274.593 283.417 278.563C240.899 283.787 212.331 287.778 198.418 290.437M202.634 354.138C202.168 354.138 201.711 353.984 201.336 353.696C200.874 353.34 200.578 352.81 200.519 352.229L193.988 288.943C193.876 287.854 194.608 286.857 195.682 286.64C208.897 283.966 238.241 279.829 282.898 274.342C299.07 272.353 312.777 273.376 323.642 277.377C332.271 280.556 338.815 285.621 342.073 291.641C344.718 296.528 344.799 301.413 342.286 304.39C340.278 306.768 337.022 307.42 333.347 306.171C327.594 304.218 323.022 303.601 318.66 303.36C319.684 304.338 320.486 305.435 321.025 306.623C322.04 308.862 321.936 311.236 320.739 313.137C318.807 316.208 314.285 316.034 307.439 315.772C298.131 315.416 284.066 314.874 269.408 322.475C263.797 325.385 257.934 328.635 251.726 332.077C233.938 341.938 215.544 352.136 202.964 354.112C202.854 354.129 202.744 354.138 202.634 354.138" fill="#141414"/></g><g id="Finger"><path id="Fill 1" fill-rule="evenodd" clip-rule="evenodd" d="M498.704 339.365C498.066 337.009 496.246 333.272 492.454 332.455C487.371 331.361 485.034 335.533 484.801 340.057C484.579 339.219 484.302 338.343 483.957 337.42C481.113 329.81 472.116 330.995 470.903 336.619C470.433 338.795 470.324 340.915 470.478 342.858C468.932 337.953 464.893 333.995 460.369 335.234C456.982 336.162 455.084 339.47 455.206 343.964C454.046 341.615 451.892 339.792 449.385 339.496C445.467 339.034 441.449 343.354 443.84 350.86C445.594 356.366 452.329 355.592 454.856 351.887C455.509 350.929 455.882 349.89 456.033 348.835C456.281 349.663 456.574 350.508 456.938 351.372C459.235 356.822 468.705 356.344 470.596 350.659C471.032 349.346 471.195 347.938 471.134 346.523C471.84 349.001 472.995 350.9 474.287 351.792C478.549 354.733 485.199 352.834 485.469 345.26C486.143 347.309 487.291 348.954 488.839 349.544C495.498 352.082 500.965 347.713 498.704 339.365" fill="white"/><path id="Fill 3_2" fill-rule="evenodd" clip-rule="evenodd" d="M495.428 347.276C494.037 348.471 491.947 348.589 489.694 347.597C488.251 346.963 486.485 341.322 487.853 337.098C488.55 334.942 489.731 334.403 490.888 334.4C491.269 334.4 491.647 334.457 492.004 334.534C495.224 335.227 496.439 339.141 496.651 339.921C497.517 343.122 497.06 345.872 495.428 347.276M481.281 350.046C479.683 351.292 477.303 351.291 475.493 350.042C474.656 349.464 473.8 348.082 473.226 346.176C473.15 344.941 472.932 343.695 472.575 342.485C472.465 340.825 472.566 338.991 472.981 337.068C473.403 335.11 475.191 334.297 476.593 334.195C476.676 334.189 476.778 334.184 476.895 334.184C478.031 334.182 480.629 334.594 481.964 338.165C484.02 343.667 483.765 348.109 481.281 350.046M468.576 349.987C467.856 352.151 465.511 353.002 463.722 353.071C462.01 353.138 459.726 352.516 458.896 350.546C457.133 346.359 456.827 342.32 458.081 339.74C458.704 338.458 459.662 337.632 460.929 337.285C463.101 336.692 464.847 337.934 465.935 339.08C467.039 340.246 467.862 341.749 468.384 343.347C468.498 344.553 468.706 345.697 468.991 346.762C469.026 347.891 468.907 348.993 468.576 349.987M452.88 351.097C452.439 352.199 451.052 352.922 449.47 352.875C448.631 352.844 446.6 352.524 445.864 350.214C444.878 347.12 445.077 344.42 446.408 342.806C447.055 342.023 447.913 341.591 448.803 341.589C448.913 341.589 449.024 341.595 449.134 341.608C450.673 341.79 451.655 342.933 452.204 343.859C453.442 345.941 453.726 348.984 452.88 351.097M500.755 338.809V338.808C500.3 337.129 498.388 331.558 492.901 330.376C489.236 329.588 486.229 330.948 484.555 334.039C482.598 331.269 479.568 329.718 476.284 329.953C472.624 330.219 469.674 332.649 468.871 336.012C466.265 333.352 462.975 332.315 459.806 333.183C457.34 333.858 455.421 335.483 454.256 337.881C454.056 338.294 453.89 338.733 453.74 339.181C452.545 338.188 451.151 337.563 449.631 337.384C447.202 337.098 444.769 338.112 443.128 340.099C440.859 342.85 440.379 347.007 441.812 351.505C442.875 354.843 445.75 356.996 449.315 357.125C449.43 357.13 449.545 357.131 449.66 357.131C452.324 357.126 454.709 355.923 456.077 354.005C457.734 356.084 460.421 357.336 463.47 357.33C463.609 357.33 463.748 357.326 463.888 357.321C467.488 357.181 470.539 355.385 472.038 352.636C472.373 352.984 472.72 353.295 473.078 353.543C474.736 354.686 476.627 355.255 478.491 355.25C480.42 355.246 482.321 354.628 483.896 353.4C484.601 352.85 485.589 351.876 486.369 350.354C486.857 350.838 487.391 351.231 487.981 351.49C489.541 352.177 491.114 352.515 492.607 352.512C494.708 352.507 496.657 351.829 498.2 350.5C501.106 348.002 502.061 343.631 500.755 338.809" fill="#141414"/></g></g></g><g id="Head" transform="translate(439 92) scale(1 1)"><g id="Head/Short Hair 3"><g id="Short Hair"><path id="SKIN" fill-rule="evenodd" clip-rule="evenodd" d="M81.0758 62.1135C71.3628 66.0515 56.3708 95.9825 56.3708 95.9825L30.4718 91.9975C30.4718 91.9975 18.5178 123.077 34.8538 139.414C51.1908 155.751 48.3338 150.709 50.4328 154.245C52.5328 157.78 61.8278 181.823 103.041 183.37C144.253 184.917 152.636 146.069 153.299 141.981C153.961 137.893 154.846 109.055 153.409 103.089C151.973 97.1225 151.641 79.0525 146.559 73.3675C135.489 60.9835 96.4698 55.8715 81.0758 62.1135" fill="white"/><path id="ink" fill-rule="evenodd" clip-rule="evenodd" d="M54.5636 157.2C71.1326 185.743 122.727 192.091 142.809 162.458C154.743 146.339 153.794 110.994 145.198 84.8123C122.76 93.1483 95.2986 92.8023 73.5856 87.6983C71.8546 100.607 52.3636 115.69 49.4986 112.708C48.0571 111.207 47.3274 109.956 46.6704 108.829C45.6482 107.075 44.8021 105.624 41.7256 104.005C34.6046 100.74 27.6786 106.397 28.2786 114.255C28.5686 120.699 30.9626 131.51 43.7336 131.51C44.7426 131.51 45.5936 132.262 45.7186 133.264C46.7766 141.788 49.8866 150.041 54.5636 157.2ZM62.3376 29.1543C94.8356 16.7173 184.372 42.7283 155.453 77.9443C159.935 86.6453 166.021 103.11 155.213 113.99C158.406 147.561 149.407 177.019 116.778 184.032C90.8126 189.849 62.9936 180.442 49.8706 157.206C19.0406 155.166 -1.51242 80.6453 37.0106 63.9163C32.7296 50.9193 42.6646 36.4133 62.3376 29.1543ZM36.355 110.837C33.4 110.734 33.4 118.966 36.355 118.863C39.311 118.966 39.311 110.733 36.355 110.837Z" fill="#141414"/></g></g></g><g id="Face" transform="translate(499 178) scale(1 1)"><g id="Face/Normal Face 2"><path id="Normal face 2" fill-rule="evenodd" clip-rule="evenodd" d="M78.6678 13.3124C77.5278 11.8974 76.0488 10.6384 74.3148 9.74741C72.5888 8.83741 70.6498 8.37241 68.7778 8.15441C66.8968 7.94241 65.0538 7.96141 63.2758 8.13341C61.4978 8.30741 59.7718 8.58841 58.0678 8.89041C57.8938 8.92241 57.7018 8.97341 57.5288 9.03641C55.9038 9.63541 55.0728 11.4394 55.6718 13.0644C56.2718 14.6894 58.0748 15.5204 59.6998 14.9214C61.1678 14.3794 62.6468 13.9194 64.1118 13.5884C65.5758 13.2594 67.0288 13.0184 68.4248 13.0444C71.2348 13.0974 73.6308 14.1784 75.9948 15.9984L76.0218 16.0194C76.7028 16.5434 77.6788 16.5554 78.3788 15.9914C79.1978 15.3314 79.3278 14.1314 78.6678 13.3124ZM26.5348 10.7451C27.8138 10.7087 29.0491 10.6735 30.2504 10.5639C31.9014 10.4139 33.3624 11.6309 33.5124 13.2829C33.6624 14.9339 32.4454 16.3949 30.7934 16.5439C30.7254 16.5509 30.6564 16.5549 30.5884 16.5559L30.5414 16.5569C28.6041 16.5948 26.7364 16.4748 24.9549 16.3603L24.9549 16.3603C23.4912 16.2662 22.0856 16.1758 20.7474 16.1799C19.2624 16.1819 17.8524 16.3239 16.4984 16.6889C15.1454 17.0589 13.8434 17.6039 12.4334 18.2039L12.3614 18.2339C11.4994 18.6019 10.5024 18.1999 10.1354 17.3379C9.86637 16.7059 10.0124 16.0009 10.4484 15.5249C11.6784 14.1879 13.2804 13.1399 15.0244 12.4399C16.7654 11.7229 18.6144 11.3109 20.3944 11.0869C21.9192 10.8953 23.3965 10.8464 24.8169 10.7993L24.8169 10.7993L24.817 10.7993C25.0574 10.7914 25.2962 10.7835 25.5334 10.7749C25.8702 10.764 26.2039 10.7545 26.5347 10.7451L26.5348 10.7451ZM66.0818 30.3932C65.6738 27.5712 67.4098 24.9832 69.9618 24.6142C72.5128 24.2452 74.9108 26.2342 75.3188 29.0562C75.7278 31.8792 73.9908 34.4662 71.4408 34.8352C68.8888 35.2042 66.4898 33.2152 66.0818 30.3932ZM48.6647 56.9164C48.2147 56.8144 47.8807 56.7204 47.3057 56.4744C46.5957 56.1714 46.2657 55.3504 46.5697 54.6404C46.7477 54.2224 47.1067 53.9364 47.5157 53.8334L48.0587 53.7004C48.2797 53.6464 48.7597 53.6634 49.1197 53.6824L49.2238 53.6894C49.5738 53.7128 49.8236 53.7295 50.1867 53.7304C50.9187 53.7374 51.6387 53.6824 52.3197 53.5634C53.6837 53.3234 54.8547 52.7604 55.4057 52.0114C55.6897 51.6364 55.8617 51.1994 55.9297 50.6594C56.0027 50.1344 55.9627 49.4604 55.8247 48.9954C55.5757 48.0634 54.8177 47.2804 53.6557 46.5034C53.0877 46.1224 52.4497 45.7684 51.7667 45.4554L51.5137 45.3344L51.3567 45.2604C51.2017 45.1854 51.0047 45.0564 50.9157 44.9784C50.8197 44.8964 50.7227 44.8044 50.6407 44.7134L50.4757 44.5034C50.1816 44.0661 50.0961 43.8105 50.0152 43.5686C49.9984 43.5184 49.9819 43.4689 49.9637 43.4184C49.7987 42.8724 49.7167 42.4184 49.6427 41.9674C49.3707 40.1914 49.2827 38.5434 49.1977 36.8714C49.0357 33.5424 49.0307 30.2574 49.1067 26.9454C49.1247 26.1664 49.7697 25.5494 50.5487 25.5674C51.2857 25.5844 51.8787 26.1634 51.9247 26.8864L51.9257 26.9054C52.1227 30.1454 52.3497 33.4104 52.6527 36.6194C52.8167 38.2124 53.0017 39.8344 53.3067 41.2864C53.3627 41.5454 53.4267 41.7874 53.4917 41.9994C54.2557 42.3124 55.0207 42.6744 55.7797 43.1254C56.5897 43.6244 57.4147 44.2214 58.1257 45.0504C58.8487 45.8574 59.4137 46.9404 59.6617 48.0494C59.9067 49.1754 59.9107 50.1734 59.7377 51.2644C59.5637 52.3424 59.0947 53.4764 58.3417 54.3734C57.5967 55.2774 56.6387 55.9174 55.6837 56.3264C54.7197 56.7354 53.7547 56.9374 52.8127 57.0494C51.8707 57.1544 50.9467 57.1614 50.0427 57.0944C49.6217 57.0664 49.0677 57.0134 48.6647 56.9164ZM61.1112 69.5312L61.0952 69.5392C57.2432 71.4512 52.7582 71.8822 48.5372 71.3392C46.4512 71.1012 44.4252 70.5622 42.5902 69.6642C41.6692 69.2282 40.7902 68.7112 39.9862 68.1162C39.5832 67.8202 39.1982 67.5062 38.8352 67.1812C38.7863 67.1346 38.7368 67.0883 38.6874 67.042C38.5609 66.9237 38.4351 66.806 38.3222 66.6852C38.1692 66.5362 37.9802 66.3152 37.9372 66.2582C37.8892 66.1932 37.8362 66.1272 37.7812 66.0672C36.8542 65.0412 35.2702 64.9612 34.2442 65.8882C33.2182 66.8152 33.1392 68.3982 34.0662 69.4242L34.0882 69.4482C34.4272 69.8242 34.6382 70.0202 34.9082 70.2632C35.1152 70.4549 35.3256 70.6276 35.536 70.8004C35.5857 70.8413 35.6355 70.8821 35.6852 70.9232C36.2112 71.3362 36.7482 71.7192 37.3002 72.0722C38.4032 72.7812 39.5662 73.3672 40.7642 73.8452C43.1542 74.8272 45.6972 75.3262 48.2112 75.4512C50.7132 75.5762 53.1742 75.2872 55.5922 74.7232C58.0002 74.1412 60.3322 73.1982 62.4272 71.8642C62.9962 71.4992 63.2152 70.7542 62.9092 70.1362C62.5792 69.4722 61.7742 69.2012 61.1112 69.5312ZM16.7508 30.7827C17.1588 27.9607 19.5578 25.9717 22.1088 26.3407C24.6598 26.7097 26.3968 29.2967 25.9888 32.1187C25.5808 34.9417 23.1818 36.9297 20.6298 36.5617C18.0798 36.1927 16.3428 33.6047 16.7508 30.7827Z" fill="#141414"/></g></g><g id="Accessories" transform="translate(491 176) scale(103 60)"><g id="Accessories/None" stroke="none" stroke-width="1" fill="none" fill-rule="evenodd" fill-opacity="0"/></g><g id="Facial Hair" transform="translate(501 234) scale(90 60)"><g id="Facial Hair/None" stroke="none" stroke-width="1" fill="none" fill-rule="evenodd" fill-opacity="0"/></g></g></g><g id="Object" transform="translate(117 -142) scale(1 1)"><g id="Object/Cloud 2"><path id="Fill 4" fill-rule="evenodd" clip-rule="evenodd" d="M112.296 382.126C112.296 382.126 143.701 359.536 173.363 297.936C203.028 236.332 236.867 240.143 248.348 243.695C259.825 247.247 277.03 288.085 291.541 324.88C306.052 361.677 324.366 347.119 334.915 314.624C345.461 282.126 368.638 302.862 371.824 315.685C375.01 328.507 380.515 352.161 402.336 344.61C424.155 337.054 431.648 342.331 433.917 354.131C436.183 365.932 449.442 372.5 496.913 376.089C544.387 379.68 564.711 399.285 531.303 405.225C497.898 411.169 4.8072 408.307 112.296 382.126" fill="white"/><path id="Fill 4 Copy" fill-rule="evenodd" clip-rule="evenodd" d="M248.791 242.262C239.576 239.411 228.674 239.631 217.042 245.021C200.757 252.568 185.472 269.329 172.01 297.285L171.088 299.188C169.853 301.714 168.604 304.2 167.34 306.644C155.065 330.383 141.923 349.414 128.792 364.176C124.205 369.332 119.952 373.584 116.14 376.987C114.812 378.173 113.635 379.168 112.623 379.977L112.418 380.141C112.152 380.351 111.916 380.534 111.711 380.69L111.643 380.741L111.365 380.81C104.915 382.407 100.54 383.952 98.1126 385.501C95.0723 387.44 94.5756 390.035 97.1385 392.057C100.514 394.72 110.242 396.94 126.212 398.941L127.538 399.105C157.082 402.707 206.555 405.447 268.92 407.222L275.473 407.403C382.999 410.296 514.076 409.814 531.565 406.702C539.945 405.212 545.471 402.802 547.898 399.572C550.462 396.16 549.425 392.21 545.435 388.656C537.723 381.785 519.567 376.298 497.025 374.593L495.71 374.492C452.62 371.144 437.611 365.422 435.388 353.849L435.305 353.427C432.47 339.631 422.546 336.023 401.844 343.192L401.458 343.323C388.789 347.53 381.38 341.172 376.407 326.552C375.59 324.148 375.059 322.335 374.23 319.103L373.279 315.323C371.442 307.929 364.18 299.484 356.64 296.749C346.974 293.243 338.468 298.81 333.487 314.161L333.292 314.756C328.008 330.774 321.04 341.574 314.153 344.345C306.907 347.259 299.528 341.047 292.935 324.329L290.91 319.213C282.685 298.528 276.255 283.49 270.15 271.156L269.558 269.966C261.304 253.481 254.553 244.045 248.791 242.262ZM218.304 247.743C229.211 242.688 239.357 242.484 247.904 245.128C252.544 246.564 259.047 255.677 266.898 271.355L267.755 273.081C273.632 285.018 279.852 299.559 287.73 319.337L290.145 325.43C297.267 343.49 306.012 350.853 315.272 347.128C323.31 343.895 330.782 332.209 336.34 315.087L336.488 314.638C340.992 301.116 347.812 296.738 355.617 299.569C362.192 301.954 368.765 309.598 370.367 316.047C371.847 322.001 372.44 324.204 373.567 327.518L373.782 328.14C376.161 334.935 379.109 340.05 383.097 343.417C388.246 347.762 394.8 348.805 402.825 346.027L403.973 345.637C422.502 339.446 430.165 342.567 432.442 354.415L432.525 354.822C435.391 368.179 451.799 374.183 496.799 377.584L497.513 377.64C519.126 379.36 536.402 384.626 543.44 390.896C549.363 396.173 545.993 400.921 531.915 403.588L531.039 403.749C513.494 406.87 377.397 407.308 269.006 404.223L267.141 404.169C206.982 402.431 159.007 399.789 129.691 396.341L127.901 396.127C111.814 394.166 101.834 391.939 98.9963 389.701C98.2999 389.152 98.2705 388.984 99.4152 388.231L99.7261 388.03L99.9153 387.912C101.99 386.654 105.876 385.285 111.562 383.853L112.649 383.583L112.294 382.125L113.17 383.344L113.524 383.08C113.69 382.954 113.874 382.812 114.074 382.655L114.855 382.032C115.824 381.245 116.921 380.312 118.138 379.225L118.649 378.766C122.412 375.368 126.573 371.185 131.033 366.17C144.329 351.223 157.614 331.985 170.005 308.022C171.598 304.941 173.168 301.796 174.713 298.586L175.109 297.769C188.191 270.89 202.863 254.898 218.304 247.743Z" fill="#141414"/></g></g></g></svg>