<svg viewBox="30 210 2250 1439.9999999999998" fill="none" xmlns="http://www.w3.org/2000/svg" xmlns:xlink="http://www.w3.org/1999/xlink" overflow="visible" width="2250px" height="1439.9999999999998px"><g id="Master/Scenes/Mobile"><g id="Big Plants" transform="matrix(-1 0 0 1 1226 156) scale(1 1)"><g id="Big Plants/2"><g id="leafs"><path id="Fill 4 (Stroke)" fill-rule="evenodd" clip-rule="evenodd" d="M514.671 378.608C522.067 395.79 522.658 418.491 511.316 447.554C493.383 493.509 458.263 524.573 426.021 552.555C425.464 553.039 424.908 553.521 424.352 554.003C408.984 567.337 394.213 580.152 382.94 593.473C371.204 607.342 362.803 622.273 361.488 639.635C360.624 651.065 363.264 664.161 367.184 678.1C369.648 686.863 372.738 696.342 375.957 706.214C377.847 712.011 379.782 717.943 381.659 723.947C391.944 756.825 401.076 793.446 396.202 831.356C393.065 855.754 385.798 873.153 376.82 886.828C367.784 900.592 356.901 910.779 346.032 920.792C345.688 921.108 345.345 921.424 345.001 921.74C334.61 931.307 324.096 940.986 316.437 953.336C308.382 966.323 303.596 982.02 304.412 1003.46C305.734 1038.14 326.278 1060.96 348.329 1083.82C349.665 1085.21 351.009 1086.6 352.357 1087.99C373.506 1109.83 395.754 1132.81 408.205 1167.7C424.597 1213.64 415.962 1257.72 402.969 1290.63C396.482 1307.07 388.951 1320.6 383.047 1330.02C380.097 1334.72 377.56 1338.39 375.772 1340.86C375.322 1341.48 374.919 1342.03 374.57 1342.5H-6.3266C-6.89484 1341.76 -7.60492 1340.83 -8.43976 1339.7C-10.8225 1336.5 -14.2197 1331.76 -18.2354 1325.69C-26.2708 1313.54 -36.7601 1296.09 -46.5526 1274.89C-66.1801 1232.4 -82.7698 1175.41 -71.814 1116.13C-61.68 1061.31 -32.6273 1028.42 -3.56616 1002.65C3.17902 996.67 9.89963 991.094 16.4218 985.683C16.9551 985.24 17.4871 984.799 18.0177 984.359C25.0034 978.56 31.7621 972.913 37.8728 967.26C50.0276 956.015 60.2173 944.221 64.8234 930.054C76.529 894.045 69.8649 857.777 62.2617 821.456C61.7968 819.235 61.3282 817.013 60.8592 814.79C53.5763 780.259 46.2169 745.367 51.5039 708.232C60.3277 646.262 95.2898 612.474 133.716 587.498C146.644 579.095 159.724 571.831 172.415 564.783C178.822 561.225 185.13 557.721 191.269 554.155C209.233 543.718 225.628 532.79 236.493 518.882C245.846 506.909 252.942 493.088 259.554 478.613C261.994 473.271 264.348 467.892 266.723 462.463C270.883 452.954 275.109 443.295 279.981 433.425C295.075 402.847 315.582 372.026 355.234 347.247C386.091 327.965 436.922 324.676 474.161 340.817C492.616 348.817 507.255 361.379 514.671 378.608ZM-8.99988 1348C-13.2614 1351.48 -13.2629 1351.48 -13.2647 1351.47L-13.27 1351.47L-13.2869 1351.45L-13.3451 1351.37C-13.3947 1351.31 -13.4656 1351.22 -13.5573 1351.11C-13.6589 1350.98 -13.7861 1350.82 -13.9376 1350.63C-14.0591 1350.48 -14.1962 1350.3 -14.3485 1350.11C-15.0328 1349.23 -16.0226 1347.94 -17.2679 1346.27C-19.7582 1342.92 -23.2723 1338.02 -27.4097 1331.76C-35.6804 1319.26 -46.4639 1301.31 -56.5386 1279.5C-76.6453 1235.98 -94.1668 1176.55 -82.6307 1114.13C-71.868 1055.91 -40.8289 1020.99 -10.8644 994.422C-3.97748 988.315 2.87714 982.627 9.37769 977.234C9.91827 976.786 10.4564 976.339 10.9919 975.895C18.0002 970.077 24.5399 964.609 30.4026 959.185C42.1947 948.276 50.6526 938.063 54.3623 926.653C65.0449 893.791 59.1514 860.284 51.4951 823.71C51.0082 821.384 50.5144 819.047 50.018 816.697C42.7932 782.499 35.0426 745.812 40.6137 706.681C50.0526 640.392 87.8225 604.209 127.721 578.275C140.951 569.676 154.655 562.062 167.544 554.901C173.856 551.394 179.973 547.996 185.743 544.644C203.629 534.252 218.372 524.211 227.825 512.11C236.362 501.181 243.029 488.313 249.548 474.043C251.836 469.035 254.126 463.803 256.476 458.435C260.719 448.743 265.155 438.609 270.117 428.556C285.753 396.881 307.436 364.146 349.405 337.918C383.574 316.567 438.249 313.262 478.536 330.725C498.845 339.528 515.975 353.817 524.775 374.259C533.595 394.748 533.667 420.538 521.563 451.553C502.513 500.371 465.284 533.045 433.231 560.863C432.788 561.248 432.346 561.631 431.905 562.014C416.247 575.601 402.049 587.92 391.337 600.579C380.38 613.528 373.528 626.318 372.457 640.466C371.746 649.863 373.912 661.393 377.773 675.122C380.187 683.706 383.144 692.773 386.302 702.453C388.207 708.291 390.184 714.351 392.158 720.663C402.521 753.794 412.307 792.349 407.112 832.759C403.77 858.754 395.941 877.748 386.015 892.865C376.148 907.894 364.321 918.899 353.484 928.882L352.921 929.401C342.169 939.304 332.639 948.082 325.785 959.134C318.953 970.149 314.667 983.659 315.404 1003.04C316.549 1033.08 334.032 1053.15 356.247 1076.19C357.643 1077.64 359.057 1079.1 360.483 1080.57C381.491 1102.24 405.287 1126.8 418.565 1164.01C436.171 1213.34 426.757 1260.33 413.2 1294.67C406.412 1311.87 398.542 1326.01 392.366 1335.86C389.275 1340.79 386.602 1344.65 384.689 1347.3C383.732 1348.63 382.965 1349.65 382.43 1350.35C382.163 1350.69 381.953 1350.96 381.807 1351.15L381.707 1351.28L381.637 1351.36L381.588 1351.42L381.573 1351.44L381.568 1351.45C381.567 1351.45 381.565 1351.45 377.285 1348L381.565 1351.45L379.914 1353.5H-11.6108L-13.2614 1351.48L-8.99988 1348Z" fill="white"/><path id="Fill 1" fill-rule="evenodd" clip-rule="evenodd" d="M815.714 743.606C892.958 728.493 1035.69 740.247 1057.52 763.757C1081.98 790.092 1020.62 935.468 991.183 947.246C947.021 947.246 873.421 938.413 885.196 961.966C896.972 985.518 935.246 1014.96 935.246 1029.68C935.246 1044.4 908.749 1138.61 876.364 1144.49C843.981 1150.38 764.491 1123.89 761.546 1144.49C758.603 1165.1 802.764 1191.6 805.708 1215.15C808.651 1238.71 764.491 1303.47 576.071 1359.41H414.151C414.151 1359.41 384.71 1156.27 455.366 1070.9C511.305 1091.5 534.858 1094.45 534.858 1094.45C534.858 1094.45 528.968 979.629 549.576 929.581C570.185 879.531 598.007 836.164 634.358 835.963C661.596 835.814 719.977 888.477 731.752 867.868C743.528 847.26 717.436 762.834 815.714 743.606" fill="white"/><path id="Fill 5" fill-rule="evenodd" clip-rule="evenodd" d="M879.989 282.14C913.627 285.985 945.489 538.882 832.439 568.257C790.603 579.127 721.719 599.731 759.189 641.366C778.275 662.57 854.937 686.357 874.131 729.009C888.752 761.494 851.466 860.069 795.41 885.729C731.227 915.105 670.554 902.328 665.172 941.785C659.792 981.242 753.12 1005.87 758.885 1059.69C762.941 1097.52 699.968 1236.17 493.327 1353.03C371.366 1353.03 269.161 1351.23 269.161 1351.23C269.161 1351.23 170.799 1195.53 145.691 1012.59C120.58 829.655 159.321 765.646 227.554 757.052C263.919 752.471 334.07 804.991 369.241 794.716C398.558 786.15 360.981 687.52 360.981 617.572C360.981 547.626 379.242 484.937 408.699 470.087C432.421 458.13 502.927 510.669 526.243 521.429C549.561 532.191 595.375 543.337 604.147 519.537C614.924 490.286 576.273 413.813 605.107 370.564C641.155 316.488 803.156 273.359 879.989 282.14" fill="#D3E2F2"/><path id="Stroke 10" d="M830.612 357.098C832.006 358.438 832.049 360.654 830.709 362.047L829.465 363.357C828.843 364.017 828.153 364.753 827.396 365.565L825.795 367.29C821.942 371.457 817.497 376.361 812.507 381.985L811.824 382.756C797.075 399.406 780.671 418.807 763.018 440.79L761.89 442.197C710.212 506.678 658.531 579.762 610.297 660.009C549.863 760.553 499.226 865.224 461.601 972.674C417.268 1099.28 392.36 1225.98 390.08 1351.45C390.045 1353.38 388.45 1354.92 386.517 1354.88C384.584 1354.85 383.046 1353.25 383.081 1351.32C385.376 1225.07 410.426 1097.64 454.994 970.36C492.787 862.432 543.63 757.336 604.298 656.402C652.165 576.766 703.411 504.164 754.699 439.98L756.427 437.819C773.828 416.108 790.039 396.871 804.683 380.266L806.584 378.115C810.963 373.17 814.938 368.762 818.478 364.902L820.655 362.538C821.509 361.614 822.298 360.766 823.02 359.995L825.664 357.195C827.004 355.801 829.219 355.758 830.612 357.098Z" fill="white"/></g></g></g><g id="Background"><g id="Plant" transform="matrix(-1 0 0 1 2072 659) scale(1 1)"><g id="Plant/Plant 4"><g id="Group"><path id="Leaf 1" fill-rule="evenodd" clip-rule="evenodd" d="M244.073 853.531C244.073 853.531 229.605 825.503 258.609 781.305C320.021 687.725 220.705 732.861 198.735 668.952C180.821 616.844 210.646 564.196 180.697 550.247C131.673 527.415 80.5689 493.756 113.394 455.673C136.426 428.951 215.766 431.361 246.876 513.594C266.343 565.053 343.053 530.725 411.113 612.247C431.383 636.525 475.896 739.273 452.538 853.531H244.073Z" fill="#141414"/><g id="Leaf 2"><path id="Fill 4" fill-rule="evenodd" clip-rule="evenodd" d="M325.4 853.531C325.4 853.531 292.267 812.469 308.337 767.439C321.299 731.113 356.08 721.177 357.246 690.58C358.715 651.998 320.005 657.304 313.88 609.666C309.121 572.647 331.764 538.601 330.274 518.912C328.019 489.125 277.108 473.667 259.627 428.872C237.463 372.078 306.465 359.105 337.2 378.311C375.779 402.42 377.083 438.391 393.995 460.04C413.202 484.628 473.325 490.149 481.957 550.772C487.431 589.221 464.978 622.629 475.56 655.181C483.421 679.36 530.35 690.035 540.227 743.465C550.858 800.979 507.981 853.531 507.981 853.531H325.4Z" fill="#FFB500"/><path id="Fill 6" fill-rule="evenodd" clip-rule="evenodd" d="M421.477 853.531H425.526C426.979 844.145 439.717 755.435 420.897 649.779C404.689 558.787 355.569 473.723 315.005 424.457C314.303 423.604 313.044 423.482 312.19 424.184C311.337 424.886 311.215 426.147 311.917 427C334.131 453.979 356.129 488.489 373.859 524.173C394.869 566.456 409.772 610.133 416.959 650.48C436.272 758.899 422.159 849.312 421.477 853.531" fill="#070707"/></g></g></g></g><g id="Phone" transform="translate(867 210) scale(1 1)"><g id="Phone/Screen 1"><g id="mobile frame"><path id="mobile" d="M0 81C0 36.2649 36.2649 0 81 0H585C629.735 0 666 36.2649 666 81V1222C666 1266.74 629.735 1303 585 1303H81C36.2649 1303 0 1266.74 0 1222V81Z" fill="white"/><path id="mobile (Stroke)" fill-rule="evenodd" clip-rule="evenodd" d="M585 24H81C49.5198 24 24 49.5198 24 81V1222C24 1253.48 49.5198 1279 81 1279H585C616.48 1279 642 1253.48 642 1222V81C642 49.5198 616.48 24 585 24ZM81 0C36.2649 0 0 36.2649 0 81V1222C0 1266.74 36.2649 1303 81 1303H585C629.735 1303 666 1266.74 666 1222V81C666 36.2649 629.735 0 585 0H81Z" fill="#141414"/><g id="Info Cards"><g id="Info Card"><path id="Bg" fill-rule="evenodd" clip-rule="evenodd" d="M81 367.069H585.868V162H81V367.069Z" fill="white"/><path id="Border" fill-rule="evenodd" clip-rule="evenodd" d="M81 160H585.868C586.973 160 587.868 160.895 587.868 162V367.069C587.868 368.174 586.973 369.069 585.868 369.069H81C79.8954 369.069 79 368.174 79 367.069V162C79 160.895 79.8954 160 81 160ZM583.868 365.068V163.999H83V365.068H583.868Z" fill="#141414"/><path id="Place Holder" fill-rule="evenodd" clip-rule="evenodd" d="M123.906 322.975H245.851V201.975H123.906V322.975Z" fill="#FF4B33"/><path id="Text" fill-rule="evenodd" clip-rule="evenodd" d="M502.827 215.688C507.245 215.688 510.827 219.27 510.827 223.688C510.827 228.023 507.379 231.552 503.076 231.684L502.827 231.688H277.582C273.164 231.688 269.582 228.106 269.582 223.688C269.582 219.353 273.03 215.823 277.333 215.692L277.582 215.688H502.827ZM449.521 255.987C453.939 255.987 457.521 259.568 457.521 263.987C457.521 268.322 454.073 271.851 449.77 271.983L449.521 271.987H277.582C273.164 271.987 269.582 268.405 269.582 263.987C269.582 259.652 273.03 256.122 277.333 255.99L277.582 255.987H449.521ZM405.289 304.285C405.289 299.867 401.707 296.285 397.289 296.285H277.582L277.333 296.289C273.03 296.421 269.582 299.95 269.582 304.285C269.582 308.704 273.164 312.285 277.582 312.285H397.289L397.538 312.282C401.841 312.15 405.289 308.62 405.289 304.285Z" fill="#D3E2F2"/></g><g id="Info Card 2"><path id="Bg_2" fill-rule="evenodd" clip-rule="evenodd" d="M81 625.009H585.868V419.94H81V625.009Z" fill="white"/><path id="Border_2" fill-rule="evenodd" clip-rule="evenodd" d="M81 417.94H585.868C586.973 417.94 587.868 418.835 587.868 419.94V625.009C587.868 626.114 586.973 627.009 585.868 627.009H81C79.8954 627.009 79 626.114 79 625.009V419.94C79 418.835 79.8954 417.94 81 417.94ZM583.868 623.008V421.939H83V623.008H583.868Z" fill="#141414"/><path id="Place Holder_2" fill-rule="evenodd" clip-rule="evenodd" d="M123.906 580.915H245.851V459.915H123.906V580.915Z" fill="#13D6C3"/><path id="Text_2" fill-rule="evenodd" clip-rule="evenodd" d="M502.827 473.628C507.245 473.628 510.827 477.21 510.827 481.628C510.827 485.963 507.379 489.492 503.076 489.624L502.827 489.628H277.582C273.164 489.628 269.582 486.046 269.582 481.628C269.582 477.293 273.03 473.763 277.333 473.632L277.582 473.628H502.827ZM449.521 513.927C453.939 513.927 457.521 517.508 457.521 521.927C457.521 526.262 454.073 529.791 449.77 529.923L449.521 529.927H277.582C273.164 529.927 269.582 526.345 269.582 521.927C269.582 517.592 273.03 514.062 277.333 513.93L277.582 513.927H449.521ZM405.289 562.225C405.289 557.807 401.707 554.225 397.289 554.225H277.582L277.333 554.229C273.03 554.361 269.582 557.89 269.582 562.225C269.582 566.644 273.164 570.225 277.582 570.225H397.289L397.538 570.222C401.841 570.09 405.289 566.56 405.289 562.225Z" fill="#D3E2F2"/></g><g id="Info Card 3" opacity="0.553153"><path id="Bg_3" fill-rule="evenodd" clip-rule="evenodd" d="M81 882.949H585.868V677.88H81V882.949Z" fill="white"/><path id="Border_3" fill-rule="evenodd" clip-rule="evenodd" d="M81 675.88H585.868C586.973 675.88 587.868 676.775 587.868 677.88V882.949C587.868 884.054 586.973 884.949 585.868 884.949H81C79.8954 884.949 79 884.054 79 882.949V677.88C79 676.775 79.8954 675.88 81 675.88ZM583.868 880.948V679.879H83V880.948H583.868Z" fill="#141414"/><path id="Place Holder_3" fill-rule="evenodd" clip-rule="evenodd" d="M123.906 838.855H245.851V717.855H123.906V838.855Z" fill="#02BAD3"/><path id="Text_3" fill-rule="evenodd" clip-rule="evenodd" d="M502.827 731.568C507.245 731.568 510.827 735.15 510.827 739.568C510.827 743.903 507.379 747.432 503.076 747.564L502.827 747.568H277.582C273.164 747.568 269.582 743.986 269.582 739.568C269.582 735.233 273.03 731.703 277.333 731.572L277.582 731.568H502.827ZM449.521 771.867C453.939 771.867 457.521 775.448 457.521 779.867C457.521 784.202 454.073 787.731 449.77 787.863L449.521 787.867H277.582C273.164 787.867 269.582 784.285 269.582 779.867C269.582 775.532 273.03 772.002 277.333 771.87L277.582 771.867H449.521ZM405.289 820.165C405.289 815.747 401.707 812.165 397.289 812.165H277.582L277.333 812.169C273.03 812.301 269.582 815.83 269.582 820.165C269.582 824.584 273.164 828.165 277.582 828.165H397.289L397.538 828.162C401.841 828.03 405.289 824.5 405.289 820.165Z" fill="#D3E2F2"/></g><g id="Info Card 4" opacity="0.162202"><path id="Bg_4" fill-rule="evenodd" clip-rule="evenodd" d="M81 1140.89H585.868V935.82H81V1140.89Z" fill="white"/><path id="Border_4" fill-rule="evenodd" clip-rule="evenodd" d="M81 933.82H585.868C586.973 933.82 587.868 934.715 587.868 935.82V1140.89C587.868 1141.99 586.973 1142.89 585.868 1142.89H81C79.8954 1142.89 79 1141.99 79 1140.89V935.82C79 934.715 79.8954 933.82 81 933.82ZM583.868 1138.89V937.819H83V1138.89H583.868Z" fill="#141414"/><path id="Place Holder_4" fill-rule="evenodd" clip-rule="evenodd" d="M123.906 1096.79H245.851V975.795H123.906V1096.79Z" fill="#FFC81A"/><path id="Text_4" fill-rule="evenodd" clip-rule="evenodd" d="M502.827 989.508C507.245 989.508 510.827 993.09 510.827 997.508C510.827 1001.84 507.379 1005.37 503.076 1005.5L502.827 1005.51H277.582C273.164 1005.51 269.582 1001.93 269.582 997.508C269.582 993.173 273.03 989.643 277.333 989.512L277.582 989.508H502.827ZM449.521 1029.81C453.939 1029.81 457.521 1033.39 457.521 1037.81C457.521 1042.14 454.073 1045.67 449.77 1045.8L449.521 1045.81H277.582C273.164 1045.81 269.582 1042.22 269.582 1037.81C269.582 1033.47 273.03 1029.94 277.333 1029.81L277.582 1029.81H449.521ZM405.289 1078.11C405.289 1073.69 401.707 1070.11 397.289 1070.11H277.582L277.333 1070.11C273.03 1070.24 269.582 1073.77 269.582 1078.11C269.582 1082.52 273.164 1086.11 277.582 1086.11H397.289L397.538 1086.1C401.841 1085.97 405.289 1082.44 405.289 1078.11Z" fill="#D3E2F2"/></g></g></g></g></g><path id="line (Stroke)" fill-rule="evenodd" clip-rule="evenodd" d="M2266 1515H57V1511H2266V1515Z" fill="#141414"/></g><g id="Master/Character/Standing" transform="matrix(-1 0 0 1 1422 287) scale(1 1)"><g id="Master/Character/Standing"><g id="Lower Body" transform="translate(0 569) scale(1 1)"><g id="Lower Body/Walking 2"><g id="Leg 2"><path id="SKIN" fill-rule="evenodd" clip-rule="evenodd" d="M685.855 612.825L719.82 686.306L794.855 693.854L771.324 610.161L685.855 612.825Z" fill="white"/><path id="Fill 2" fill-rule="evenodd" clip-rule="evenodd" d="M795.623 695.847C795.554 695.847 795.484 695.843 795.415 695.836L719.395 687.98C718.423 687.884 717.641 687.138 717.499 686.171L685.331 618.35C685.161 617.188 685.966 616.108 687.128 615.938C688.292 615.775 689.369 616.574 689.54 617.735L721.467 683.909L792.906 691.317L771.869 617.538C771.612 616.392 772.334 615.255 773.479 614.998C774.63 614.741 775.764 615.464 776.019 616.609L797.698 693.255C797.848 693.921 797.668 694.618 797.216 695.129C796.81 695.587 796.229 695.847 795.623 695.847" fill="#141414"/></g><g id="shoe 2"><path id="Fill 4" fill-rule="evenodd" clip-rule="evenodd" d="M712.2 680.166C712.458 679.149 713.458 678.506 714.491 678.69C715.475 678.867 716.719 679.106 718.185 679.389C727.166 681.117 745.855 684.714 763.566 684.728H763.612C774.045 684.728 783.221 681.874 789.45 676.689C789.944 676.277 790.607 676.131 791.233 676.291C821.63 684.205 843.593 689.923 859.869 700.778C862.73 702.687 873.046 711.015 871.262 716.905C870.436 719.629 867.498 721.01 862.529 721.01C844.384 721.01 805.293 721.111 770.804 721.201C742.898 721.274 718.797 721.337 709.723 721.337C708.765 721.337 707.899 720.902 707.286 720.113C703.713 715.517 709.532 690.645 712.2 680.166" fill="#15803d"/><path id="Fill 6" fill-rule="evenodd" clip-rule="evenodd" d="M710.088 730.144H866.924C869.531 730.144 871.644 728.031 871.644 725.425V723.865C871.644 721.258 869.531 719.146 866.924 719.146H710.088C707.482 719.146 705.369 721.258 705.369 723.865V725.425C705.369 728.031 707.482 730.144 710.088 730.144" fill="#141414"/><path id="Fill 8" fill-rule="evenodd" clip-rule="evenodd" d="M822.383 695.134C823.178 695.134 823.94 694.687 824.304 693.921C827.641 686.913 834.052 688.628 834.773 688.849C835.891 689.188 837.081 688.563 837.428 687.447C837.775 686.329 837.161 685.144 836.046 684.79C832.41 683.636 824.472 683.678 820.465 692.093C819.96 693.154 820.41 694.422 821.47 694.927C821.765 695.068 822.076 695.134 822.383 695.134" fill="#141414"/><path id="Fill 10" fill-rule="evenodd" clip-rule="evenodd" d="M803.604 690.012C804.399 690.012 805.161 689.565 805.525 688.799C808.863 681.791 815.274 683.506 815.993 683.727C817.112 684.067 818.302 683.441 818.649 682.325C818.996 681.207 818.381 680.022 817.267 679.668C813.627 678.515 805.691 678.558 801.686 686.971C801.181 688.032 801.631 689.3 802.691 689.805C802.986 689.946 803.297 690.012 803.604 690.012" fill="#141414"/></g><g id="Leg 1"><path id="SKIN_2" fill-rule="evenodd" clip-rule="evenodd" d="M315.492 561.017L295.25 629.738L364.025 671.389L398.096 589.203L315.492 561.017Z" fill="white"/><path id="Fill 14" fill-rule="evenodd" clip-rule="evenodd" d="M364.208 671.488C364.146 671.458 364.085 671.425 364.025 671.388L295.25 629.737C294.414 629.231 294.031 628.22 294.321 627.287L311.066 566.414C311.416 565.293 312.607 564.666 313.729 565.014C314.85 565.371 315.476 566.556 315.128 567.677L298.876 626.961L363.715 666.228L392.089 595.527C392.353 594.382 393.494 593.669 394.638 593.931C395.787 594.196 396.497 595.339 396.233 596.481L367.199 670.047C367.046 670.712 366.583 671.263 365.955 671.528C365.392 671.766 364.755 671.75 364.208 671.488" fill="#141414"/></g><g id="shoe 1"><path id="Fill 16" fill-rule="evenodd" clip-rule="evenodd" d="M296.175 620.408C296.847 619.602 298.027 619.454 298.879 620.067C299.69 620.651 300.708 621.404 301.909 622.292C309.262 627.731 324.564 639.048 340.531 646.711C340.545 646.718 340.558 646.724 340.572 646.731C349.982 651.238 359.49 652.627 367.348 650.641C367.972 650.483 368.633 650.637 369.128 651.053C393.125 671.32 410.463 685.964 420.453 702.786C422.209 705.742 427.915 717.709 423.762 722.251C421.841 724.351 418.595 724.328 414.113 722.18C397.748 714.343 362.448 697.549 331.304 682.732C306.104 670.744 284.341 660.389 276.157 656.471C275.293 656.056 274.7 655.29 274.488 654.313C273.251 648.625 289.242 628.707 296.175 620.408" fill="#15803d"/><path id="Fill 18" fill-rule="evenodd" clip-rule="evenodd" d="M272.682 664.571L414.132 732.318C416.482 733.444 419.301 732.451 420.427 730.1L421.1 728.693C422.226 726.342 421.233 723.524 418.883 722.398L277.433 654.651C275.082 653.526 272.264 654.518 271.139 656.869L270.464 658.276C269.339 660.627 270.331 663.445 272.682 664.571" fill="#141414"/><path id="Fill 21" fill-rule="evenodd" clip-rule="evenodd" d="M389.084 681.503C389.801 681.846 390.681 681.772 391.341 681.238C397.377 676.359 402.418 680.676 402.973 681.186C403.835 681.975 405.178 681.925 405.974 681.068C406.769 680.21 406.727 678.876 405.875 678.075C403.094 675.464 395.917 672.072 388.667 677.932C387.754 678.67 387.612 680.008 388.35 680.922C388.556 681.176 388.807 681.37 389.084 681.503" fill="#141414"/><path id="Fill 23" fill-rule="evenodd" clip-rule="evenodd" d="M374.357 668.77C375.074 669.114 375.955 669.04 376.614 668.506C382.651 663.627 387.692 667.943 388.246 668.453C389.108 669.243 390.452 669.193 391.247 668.335C392.042 667.478 392 666.143 391.148 665.342C388.363 662.731 381.187 659.341 373.94 665.199C373.027 665.937 372.885 667.276 373.624 668.189C373.829 668.443 374.081 668.637 374.357 668.77" fill="#141414"/></g><g id="Pant"><g id="Group 2"><path id="Fill 25" fill-rule="evenodd" clip-rule="evenodd" d="M653.552 1L630.656 139.073L486.661 601.849C452.784 622.025 346.68 595.008 305.634 566.883L475.962 1H653.552Z" fill="#141414"/><g id="Fill 33"><path fill-rule="evenodd" clip-rule="evenodd" d="M484.678 242.907C483.571 242.513 482.356 243.096 481.965 244.204L359.173 591.898C358.782 593.006 359.363 594.22 360.47 594.611C360.704 594.694 360.944 594.733 361.179 594.733C362.054 594.733 362.875 594.187 363.184 593.314L485.975 245.62C486.366 244.512 485.785 243.298 484.678 242.907" fill="white" fill-opacity="0.6" style="mix-blend-mode:overlay"/></g></g><g id="Group"><path id="Fill 28" fill-rule="evenodd" clip-rule="evenodd" d="M429.072 1C429.072 1 415.701 90.14 468.554 196.161C567.969 395.58 581.879 545.205 608.311 615.429C647.865 636.358 788.821 627.744 792.959 608.091L686.194 260.98L611.668 1H429.072Z" fill="#0B379B"/><g id="Fill 1"><path fill-rule="evenodd" clip-rule="evenodd" d="M582.417 267.476C561.246 209.354 541.656 155.572 527.151 112.694C530.337 111.232 536.703 107.51 542.301 99.2966C552.352 84.5506 555.08 63.0906 550.408 35.5116C550.212 34.3526 549.114 33.5736 547.956 33.7696C546.798 33.9656 546.018 35.0636 546.214 36.2216C551.757 68.9426 545.336 87.1286 538.975 96.6226C534.137 103.843 528.609 107.248 525.78 108.629C514.516 75.1186 506.532 48.6216 503.588 32.4356C503.379 31.2806 502.273 30.5166 501.116 30.7246C499.96 30.9336 499.194 32.0416 499.404 33.1966C506.234 70.7586 539.687 162.595 578.421 268.933C619.621 382.037 679.317 541.233 700.046 622.527C700.291 623.489 701.156 624.128 702.105 624.128C702.279 624.128 702.456 624.107 702.632 624.062C703.77 623.772 704.458 622.614 704.167 621.476C683.386 539.976 623.651 380.675 582.417 267.476Z" fill="white" fill-opacity="0.5" style="mix-blend-mode:overlay"/></g></g></g></g></g><g id="Upper Body" transform="translate(272 187) scale(1 1)"><g id="Upper Body/Holding Document"><g id="hand 1"><path id="SKIN" fill-rule="evenodd" clip-rule="evenodd" d="M421.092 125.995C423.323 120.141 432.848 128.635 434.522 140.152C436.409 129.754 440.786 104.606 448.461 103.039C456.217 101.457 455.775 116.588 455.775 116.588C458.975 109.54 462.338 100.573 467.484 103.38C473.028 106.405 468.696 119.698 468.696 119.698C473.565 111.717 476.06 110.588 479.317 112.55C484.53 115.691 479.338 127.931 479.338 127.931C483.17 123.743 490.564 125.097 486.097 140.99C481.17 158.52 471.797 195.819 473.536 236.035C473.785 241.78 436.17 261.77 402 261.436C416.815 202.08 418.205 133.571 421.092 125.995" fill="white"/><path id="Fill 4" fill-rule="evenodd" clip-rule="evenodd" d="M403.435 246.661C412.974 203.082 415.539 153.789 419.309 125.317C423.451 117.852 430.682 124.947 434.094 132.139C437.279 116.182 441.338 102.545 448.08 101.172C453.212 100.031 456.157 104.768 457.005 109.308C461.711 97.0766 473.272 98.9116 472.158 111.909C474.646 109.597 477.189 109.044 480.299 110.917C484.508 113.453 483.812 119.65 482.657 124.037C488.452 124.087 491.292 128.245 487.932 141.506C479.129 172.821 474.864 202.412 475.253 229.459C463.632 244.288 479.596 149.638 484.262 140.476C486.858 130.845 485.566 125.182 480.896 129.069L475.032 140.608C474.278 142.136 471.883 141.036 472.55 139.471C472.555 139.455 477.581 127.204 477.582 127.189C479.061 123.689 481.191 115.905 478.331 114.183C476.89 113.314 475.397 112.419 470.425 120.525L464.373 137.731C463.772 139.524 460.973 138.606 461.545 136.808C462.75 130.076 472.31 110.192 466.571 105.054C462.426 103.569 459.886 112.949 457.549 117.287L451.808 134.308C451.561 135.037 450.782 135.456 450.033 135.244C449.259 135.025 448.809 134.221 449.028 133.447L453.872 116.314C453.672 112.461 453.62 104.418 448.842 104.907C442.611 106.179 438.037 131.439 436.534 139.739C436.734 141.55 437.671 143.87 438.916 145.17C445.021 149.215 450.606 156.86 448.696 164.526C448.381 165.705 446.501 165.304 446.739 164.078C446.818 163.627 447.02 163.143 446.858 162.721C446.663 162.212 446.169 152.944 439.573 149.663C437.818 148.79 435.648 147.991 434.78 146.216C433.659 144.4 433.048 142.494 432.635 140.427C431.657 132.638 424.953 123.892 422.872 126.673C419.598 155.045 416.559 203.85 407.165 247.444C406.716 249.826 402.874 249.107 403.435 246.661" fill="#141414"/></g><g id="Assets 108"><path id="t-shirt" fill-rule="evenodd" clip-rule="evenodd" d="M134.289 153.818C100.447 225.407 100.969 318.595 121.273 350.258C130.78 365.086 150.673 370.017 159.998 369.321L145.107 387.115L393.879 392.115C393.879 392.115 389.043 366.728 387.225 359.057C400.8 362.419 416.445 362.432 427.413 352.835C462.774 321.894 474.861 239.316 477.353 219.199C447.324 211.377 407.157 199.92 407.157 199.92L399.604 222.434C399.604 222.434 398.693 168.111 378 136C359.804 107.764 335 91 288 86C241 81 165.13 88.5793 134.289 153.818Z" fill="#15803d"/><path id="Fill 40" fill-rule="evenodd" clip-rule="evenodd" d="M382.76 313.102L379.846 290.217L376.791 267.352L373.737 244.487C372.683 236.87 371.643 229.251 370.515 221.644C368.271 206.429 365.925 191.228 363.26 176.07C363.17 175.569 362.708 175.208 362.192 175.259C361.65 175.311 361.253 175.794 361.305 176.337C362.797 191.655 364.608 206.929 366.521 222.189C367.471 229.82 368.51 237.439 369.534 245.06L372.715 267.908L375.895 290.756L379.217 313.585C381.417 328.806 383.725 344.013 386.128 359.206C386.22 359.788 386.756 360.2 387.346 360.132C387.953 360.062 388.388 359.514 388.319 358.908C386.565 343.625 384.716 328.356 382.76 313.102" fill="#141414"/></g><path id="notebook" fill-rule="evenodd" clip-rule="evenodd" d="M328.914 397.571L194.417 382.914C190.315 382.467 187.352 378.778 187.799 374.675L209.285 177.525C209.732 173.423 213.42 170.46 217.523 170.906L352.019 185.565C356.122 186.012 359.085 189.7 358.638 193.802L337.151 390.953C336.705 395.055 333.016 398.018 328.914 397.571" fill="#141414"/><g id="hand 2"><path id="SKIN_2" fill-rule="evenodd" clip-rule="evenodd" d="M238.765 336.32C258.283 329.495 277.978 319.597 296.849 307.976C328.567 288.446 344.898 272.352 351.556 266.508C353.958 264.4 358.615 259.506 357.136 255.418C356.081 252.503 352.558 250.968 350.076 252.827C350.076 252.827 353.459 250.472 355.537 247.916C357.504 245.497 357.953 242.334 356.611 240.279C354.543 237.112 351.189 237.334 348.315 239.397L351.246 236.876C354.196 234.585 355.383 230.939 353.28 227.381C351.714 224.731 346.637 224.239 343.267 226.316C342.053 227.065 338.436 229.379 338.436 229.379C340.924 227.342 340.963 222.855 338.901 220.388C337.013 218.131 333.697 217.616 331.271 219.284C320.084 226.979 306.534 234.72 297.989 239.357C297.989 239.357 297.214 227.915 296.353 224.319C295.551 220.969 289.72 216.568 287.219 221.581C283.827 228.378 280.58 239.911 277.896 248.617C260.606 257.864 252.604 262.332 231.07 269.082" fill="white"/><path id="Fill 54" fill-rule="evenodd" clip-rule="evenodd" d="M359.352 256.115C359.018 253.811 357.583 251.875 355.6 250.805C355.596 250.803 355.591 250.803 355.587 250.8C355.821 250.568 356.056 250.343 356.287 250.097C357.048 249.287 357.893 248.227 358.43 247.053C358.988 245.886 359.345 244.591 359.37 243.212C359.411 241.852 359.058 240.334 358.206 239.088C357.463 237.994 356.374 236.917 354.945 236.357C354.82 236.306 354.689 236.283 354.561 236.241C354.921 235.747 355.254 235.226 355.511 234.665C355.853 233.904 356.1 233.091 356.228 232.249C356.34 231.404 356.325 230.547 356.201 229.712C356.054 228.883 355.81 228.082 355.47 227.344C355.291 226.965 355.124 226.654 354.888 226.253C354.617 225.82 354.29 225.437 353.938 225.114C352.501 223.813 350.835 223.336 349.267 223.144C347.683 222.97 346.112 223.126 344.6 223.594C343.845 223.829 343.105 224.147 342.403 224.565L342.305 224.627C342.294 223.844 342.191 223.064 341.983 222.302C341.616 220.867 340.789 219.39 339.592 218.344C338.411 217.28 336.894 216.607 335.316 216.432C333.739 216.238 332.088 216.585 330.698 217.384L330.188 217.701L329.821 217.951L329.088 218.45L327.62 219.443C325.656 220.761 323.665 222.047 321.667 223.319C314.464 227.873 307.085 232.182 299.616 236.314C299.505 234.94 299.405 233.565 299.273 232.188C299.039 229.832 298.811 227.509 298.396 225.076C298.349 224.776 298.278 224.452 298.209 224.134L298.159 223.893L298.074 223.59C298.019 223.381 297.942 223.202 297.873 223.009C297.572 222.272 297.183 221.643 296.748 221.068C295.871 219.927 294.811 218.985 293.486 218.284C292.822 217.94 292.082 217.659 291.245 217.534C290.411 217.413 289.46 217.474 288.581 217.817C286.787 218.501 285.78 220.22 285.325 221.283C283.245 225.683 281.754 230.163 280.295 234.645C278.931 238.892 277.676 243.153 276.387 247.378C269.072 251.28 261.859 255.303 254.385 258.669C246.694 262.158 238.695 264.975 230.615 267.628C229.832 267.885 229.388 268.723 229.627 269.517C229.871 270.323 230.721 270.779 231.527 270.536C239.724 268.062 247.887 265.289 255.778 261.787C263.68 258.304 271.226 254.218 278.748 250.208C279.149 249.991 279.477 249.619 279.622 249.148C281.008 244.662 282.33 240.185 283.762 235.763C285.204 231.357 286.7 226.942 288.635 222.884C288.897 222.315 289.061 222.026 289.286 221.75C289.502 221.488 289.714 221.338 289.924 221.249C290.324 221.083 291.018 221.149 291.777 221.558C292.523 221.947 293.26 222.59 293.799 223.306C294.069 223.663 294.293 224.043 294.434 224.39C294.459 224.473 294.503 224.562 294.518 224.637L294.552 224.756L294.591 224.945C294.643 225.199 294.7 225.445 294.742 225.724C295.439 230.146 295.78 234.88 296.122 239.484L296.123 239.506C296.143 239.76 296.216 240.013 296.345 240.252C296.838 241.16 297.975 241.497 298.883 241.004C307.299 236.434 315.586 231.648 323.706 226.543C325.731 225.26 327.75 223.963 329.748 222.629L331.244 221.623L331.99 221.117L332.362 220.865L332.613 220.712C333.29 220.331 334.087 220.153 334.88 220.257C335.67 220.345 336.436 220.685 337.023 221.222C337.326 221.491 337.573 221.788 337.77 222.139C337.98 222.484 338.143 222.886 338.25 223.309C338.698 224.878 338.334 226.756 337.419 227.671C337.328 227.724 337.237 227.779 337.153 227.848C336.03 228.769 334.812 229.675 333.597 230.566C332.377 231.459 331.142 232.341 329.897 233.215C327.411 234.962 324.891 236.686 322.368 238.383L322.358 238.388C321.717 238.821 321.517 239.684 321.915 240.359C322.33 241.059 323.234 241.292 323.934 240.877C326.579 239.312 329.199 237.731 331.811 236.112C333.117 235.303 334.418 234.483 335.716 233.643C337.015 232.801 338.304 231.955 339.601 231.011C339.63 230.99 339.667 230.962 339.696 230.938C339.754 230.89 339.801 230.834 339.852 230.781L342.77 228.936L344.385 227.921C344.805 227.672 345.269 227.47 345.76 227.32C346.737 227.015 347.816 226.915 348.823 227.031C349.824 227.136 350.771 227.505 351.268 227.985C351.396 228.101 351.494 228.221 351.567 228.343C351.657 228.504 351.804 228.767 351.899 228.977C352.105 229.425 352.235 229.881 352.32 230.335C352.459 231.246 352.33 232.154 351.935 233.012C351.518 233.881 350.914 234.623 350.026 235.322L347.152 237.787C344.008 240.179 340.69 242.499 337.404 244.807L327.457 251.674L327.438 251.686C326.753 252.161 326.56 253.095 327.012 253.804C327.475 254.53 328.437 254.743 329.163 254.28L339.389 247.761C342.787 245.553 346.168 243.372 349.536 240.999C349.554 240.987 349.578 240.969 349.595 240.956C349.638 240.924 349.671 240.884 349.71 240.848C350.331 240.441 350.981 240.129 351.603 239.969C352.307 239.804 352.936 239.824 353.461 240.044C353.993 240.248 354.476 240.692 354.904 241.312C355.232 241.8 355.4 242.409 355.381 243.135C355.371 243.845 355.17 244.62 354.824 245.332C354.481 246.062 354.014 246.664 353.352 247.379C352.109 248.713 350.564 250 349.049 251.099C349.008 251.127 348.963 251.147 348.924 251.178L348.908 251.191L336.539 260.833L336.53 260.841C335.877 261.352 335.729 262.291 336.209 262.979C336.706 263.693 337.687 263.869 338.401 263.373L351.085 254.546C351.13 254.519 351.177 254.499 351.22 254.469C351.239 254.455 351.256 254.44 351.275 254.427L351.276 254.428C351.949 253.928 352.831 253.882 353.727 254.341C354.598 254.793 355.271 255.749 355.39 256.659C355.532 257.595 355.156 258.839 354.476 260.031C353.798 261.232 352.861 262.396 351.831 263.476C351.313 264.019 350.771 264.537 350.205 265.034L348.376 266.67L344.776 269.918C342.381 272.074 339.962 274.189 337.509 276.266C332.603 280.422 327.567 284.422 322.409 288.264C317.266 292.129 311.921 295.719 306.549 299.258C305.203 300.138 303.888 301.068 302.563 301.982C301.239 302.897 299.851 303.716 298.493 304.579C295.768 306.294 293.021 307.972 290.246 309.601C284.704 312.874 279.081 316.009 273.367 318.958C267.658 321.917 261.856 324.689 255.986 327.297C253.046 328.588 250.097 329.859 247.113 331.041C245.627 331.648 244.127 332.217 242.628 332.789C241.132 333.371 239.644 333.964 238.263 334.881L238.225 334.906C237.753 335.22 237.47 335.782 237.539 336.384C237.637 337.241 238.412 337.857 239.269 337.759C240.928 337.569 242.5 337.111 244.028 336.539C245.557 335.969 247.086 335.402 248.601 334.797C251.643 333.619 254.647 332.35 257.643 331.063C263.62 328.458 269.476 325.592 275.255 322.593C281.034 319.589 286.711 316.401 292.304 313.076C297.913 309.774 303.346 306.203 308.898 302.803C319.652 295.473 330.157 287.748 340.095 279.318C342.58 277.213 345.033 275.068 347.448 272.894L351.055 269.64L352.845 268.04C353.494 267.469 354.123 266.869 354.722 266.241C355.919 264.98 357.041 263.614 357.96 261.996C358.845 260.397 359.644 258.426 359.352 256.115" fill="#141414"/></g><g id="Assets 109"><path id="Fill 56" fill-rule="evenodd" clip-rule="evenodd" d="M160.289 368.61C225.525 362.911 285.997 328.289 285.997 328.289L245.748 252.588C245.748 252.588 202.9 269.24 174.613 272.178" fill="#15803d"/><path id="Fill 58" fill-rule="evenodd" clip-rule="evenodd" d="M188.939 245.729L188.435 269.368Z" fill="#15803d"/><path id="Fill 60" fill-rule="evenodd" clip-rule="evenodd" d="M287.878 327.298L287.874 327.291L247.625 251.59C247.126 250.652 245.991 250.211 244.977 250.606V250.606C239.296 252.829 233.503 254.93 227.709 256.935C221.904 258.932 216.067 260.836 210.191 262.593C204.316 264.352 198.402 265.98 192.445 267.376C191.818 267.524 191.188 267.657 190.559 267.799L190.526 245.763C190.524 244.92 189.859 244.217 189.009 244.179C188.133 244.141 187.392 244.819 187.353 245.694L186.336 268.705C182.391 269.506 178.428 270.186 174.453 270.649L174.439 270.651C173.606 270.747 173.003 271.495 173.086 272.332C173.171 273.178 173.925 273.795 174.771 273.71C180.996 273.086 187.127 271.988 193.19 270.665C199.254 269.345 205.256 267.794 211.215 266.112C217.175 264.433 223.088 262.608 228.97 260.688C234.256 258.952 239.499 257.148 244.739 255.222L283.128 327.423C274.152 332.36 264.792 336.849 255.35 340.989C245.247 345.387 234.966 349.39 224.524 352.909C214.082 356.424 203.483 359.491 192.741 361.921C182.008 364.396 171.121 366.169 160.169 367.24L160.155 367.241C159.406 367.315 158.854 367.978 158.919 368.729C158.984 369.486 159.651 370.047 160.408 369.982C171.508 369.024 182.543 367.352 193.417 364.974C204.303 362.641 215.042 359.664 225.625 356.235C236.209 352.8 246.629 348.877 256.881 344.553C267.133 340.19 277.189 335.519 287.053 330.135C288.045 329.57 288.418 328.314 287.878 327.298" fill="#141414"/></g><g id="neck"><path id="SKIN_3" fill-rule="evenodd" clip-rule="evenodd" d="M245.354 50.9429C245.354 50.9429 247.067 69.8905 246.116 75.9239C245 83.0001 240 84.0001 236 87.0001C242.613 105.522 266.568 117.911 286.527 120.943C290.846 121.599 306.465 106.041 305 89.0001C304 84.0001 303.889 80.0871 304 76.0001L304.618 53.5909" fill="white"/><path id="Fill 3" fill-rule="evenodd" clip-rule="evenodd" d="M288.902 119.431C288.902 119.431 268.999 111 235.999 87C231.658 114.869 243.532 189.657 288.548 124.985C288.548 124.985 311.067 149.753 318.288 144.042C336.442 129.684 305.809 89.2905 305.809 89.2905C303.372 106.42 288.902 119.431 288.902 119.431Z" fill="#FFC81A"/><path id="Fill 7" fill-rule="evenodd" clip-rule="evenodd" d="M290.029 123.635C289.186 122.675 287.524 122.815 286.859 123.915C251.769 175.797 234.034 133.828 237.009 88.8546C255.451 104.351 274.295 115.769 288.209 121.305C294.452 120.404 304.637 103.018 306.839 94.2146C307.179 94.7146 314.135 104.171 317.039 112.105C321.659 122.305 325.409 135.855 317.049 142.475C314.279 144.665 303.169 138.085 290.029 123.635ZM306.619 53.6446C306.649 52.5446 305.779 51.6246 304.669 51.5946C303.559 51.5546 302.649 52.4346 302.619 53.5346L301.829 82.5646C306.512 95.6906 291.544 114.225 288.449 117.095C283.589 115.055 264.98 107.07 241 87C244 85 247.709 83.4146 248.109 76.0346C248.439 69.8846 247.399 51.6046 247.349 50.8246C247.232 48.2566 243.168 48.4586 243.359 51.0546C243.369 51.2446 244.439 69.8946 244.119 75.8146C243.558 81.4926 236.023 83.0996 234.215 86.7166C228.34 122.402 243.34 188.668 288.799 128.195C295.109 134.855 312.129 151.475 319.529 145.615C338.999 130.215 306.873 86.9906 306.752 86.8686C304.071 84.1746 306.792 57.5316 306.619 53.6446Z" fill="#141414"/></g></g></g><g id="Head" transform="translate(439 92) scale(1 1)"><g id="Head/Short Hair"><path id="SKIN" fill-rule="evenodd" clip-rule="evenodd" d="M105 47C69.9999 47 43.9999 73 38.9999 97C27.9999 97 19.9999 104 19.9999 114C19.9999 120.363 17.9999 132 33.9999 138C37.9999 170 74.0918 193.643 108.246 185.279C157.247 173.279 153.267 142 150 105C146.733 68 140 47 105 47Z" fill="white"/><path id="Combined Shape" fill-rule="evenodd" clip-rule="evenodd" d="M59.7966 172.591C72.4606 182.96 90.0736 186.639 112.149 183.525C122.537 182.06 130.727 177.081 136.492 168.727C146.917 153.624 149.02 127.832 142.264 97.9648C136.985 74.6238 131.002 63.1268 121.418 57.8318C119.636 60.1228 117.139 62.4608 113.676 64.7508C103.017 71.7998 94.8976 71.7948 87.0216 71.7788H86.9469C79.9422 71.7787 72.7073 71.7787 63.0676 76.8068C48.9236 84.1838 44.2626 108.704 44.2166 108.951C44.0616 109.795 43.3856 110.446 42.5356 110.569C42.4396 110.582 42.3436 110.589 42.2486 110.589C41.5036 110.589 40.8096 110.173 40.4656 109.495C39.7086 108.001 38.2456 106.493 36.1686 105.029C34.5346 104.441 32.9926 104.135 31.5786 104.135C29.7486 104.135 28.1246 104.626 26.7656 105.606C24.0416 107.572 22.4686 111.439 22.6596 115.698C22.9646 122.476 25.9476 130.555 38.4246 130.555C39.4836 130.555 40.3596 131.38 40.4216 132.438C40.7706 138.422 43.2016 159.003 59.7966 172.591ZM122.887 33.2148C135.18 35.1818 149.68 47.4178 150.91 71.6208C152.885 110.482 163.653 121.952 174.575 133.585C176.683 135.831 178.797 138.082 180.855 140.538C192.825 154.823 195.493 193.578 161.645 191.081C149.558 212.137 117.804 205.488 115.058 187.089C114.285 187.239 113.504 187.374 112.707 187.486C107.448 188.228 102.421 188.599 97.6366 188.599C91.6936 188.599 79.9999 188 74.9999 186C73.9999 193 69.4706 212.025 45.5506 206.237C24.3286 218.099 -15.5654 210.277 -14.9934 171.97C-14.754 155.9 -10.935 150.122 -5.68336 142.176C-0.562088 134.427 5.92157 124.617 11.7766 101.192C23.6356 53.7458 52.7676 16.5998 94.1246 18.0408C112.972 18.6978 120.182 25.1018 122.887 33.2148ZM35.3669 115.915C35.1489 120.052 31.5159 119.968 30.5029 119.259C28.0769 117.561 29.3829 111.775 31.3529 111.383C33.1139 111.032 35.5839 111.779 35.3669 115.915Z" fill="#141414"/></g></g><g id="Face" transform="translate(499 178) scale(1 1)"><g id="Face/Grinning"><g id="grinning"><path id="face" fill-rule="evenodd" clip-rule="evenodd" d="M70.6572 13.1827C67.4944 12.5308 64.3252 11.8776 61.1045 12.8692C55.3895 11.1662 65.1065 7.43218 67.3785 8.07318C70.2865 7.40518 79.5305 11.7002 73.2735 13.6872C72.4012 13.5421 71.5295 13.3625 70.6572 13.1827ZM78.2569 27.629C82.4909 23.371 71.7619 18.207 68.0579 19.213C64.4589 19.335 56.6799 23.636 58.1689 27.599C58.7469 28.154 59.6659 28.137 60.2219 27.559C64.0379 22.72 72.0709 21.546 75.7659 26.983C76.3129 27.773 77.3679 28.066 78.2569 27.629ZM52.2144 40.8005C63.1074 44.9485 59.0084 57.4945 47.9304 56.2355C45.3594 56.2665 45.3464 52.2245 47.9124 52.2355C50.0754 52.1835 53.3144 51.9015 54.2664 50.0175C55.1331 46.9815 53.3318 46.0069 51.4877 45.0092C49.9849 44.1961 48.4536 43.3675 48.3144 41.3955C47.9124 39.5215 45.9714 18.9115 50.5804 25.7495C50.7067 27.1148 50.8067 28.4915 50.9069 29.8709V29.8709C51.1741 33.549 51.4428 37.2464 52.2144 40.8005ZM29.3635 32.0245C28.6765 31.2305 27.7095 30.6935 26.5635 30.5235C22.2194 29.9714 20.4519 32.9953 19.0497 35.3941C18.0465 37.1103 17.2303 38.5066 15.7915 38.0445C13.5987 36.7511 15.254 34.1465 16.4831 32.2126L16.4831 32.2126C16.7393 31.8094 16.977 31.4354 17.1575 31.1085C19.3685 28.0755 23.0895 25.9165 27.0185 26.2885C35.0425 26.9145 34.4645 34.8245 29.3635 32.0245ZM20.9268 17.044C21.4479 16.875 22.0847 16.8894 22.7267 16.9038C23.9006 16.9303 25.0917 16.9572 25.6238 15.864C25.3928 11.079 12.1038 13.267 9.65679 15.986C8.25179 17.074 9.27579 19.54 11.0728 19.244C12.5781 19.0282 14.059 18.6137 15.5425 18.1985L15.5425 18.1985C17.3181 17.7016 19.0974 17.2036 20.9268 17.044ZM68.809 73.8319C69.393 73.4209 69.947 72.9889 70.419 72.5069C73.718 68.7009 72.336 65.4609 67.147 66.6029C67.833 68.9829 68.379 71.3939 68.809 73.8319ZM62.78 76.7049C63.527 76.4559 64.268 76.1929 64.989 75.8969C65.745 75.5799 66.477 75.2189 67.185 74.8339C66.444 72.2039 65.857 69.5389 65.434 66.8389C63.973 67.0739 62.469 67.3689 60.985 67.6869C61.1842 68.4777 61.4451 69.2861 61.7091 70.1043C62.4126 72.2844 63.1385 74.5337 62.78 76.7049ZM44.95 79.2069C47.159 79.2329 49.374 79.1409 51.572 78.9509C51.8318 78.9255 52.0928 78.8958 52.3531 78.8661C52.4215 78.8584 52.4898 78.8506 52.558 78.8429C51.357 76.0159 51.111 72.6759 51.345 69.6249C49.296 69.9759 47.223 70.2769 45.141 70.4559C45.252 73.3769 45.26 76.2979 44.95 79.2069ZM37.442 70.5189C37.586 70.6949 36.808 78.2129 36.698 78.4819C38.759 78.8539 40.843 79.0539 42.943 79.1529C42.838 76.2889 43.05 73.4359 43.353 70.5889C41.399 70.7019 39.422 70.6969 37.442 70.5189ZM27.315 68.7919C25.53 70.6789 25.746 74.2899 28.207 75.5929C29.821 76.6959 31.863 77.3689 33.797 77.8679C33.8142 77.8186 33.8793 77.1022 33.9682 76.1238C34.1716 73.8848 34.4997 70.2735 34.6643 70.1417C34.6699 70.1415 34.6754 70.1412 34.681 70.1409C34.6756 70.1368 34.6701 70.1371 34.6643 70.1417C33.7366 70.1858 32.5825 69.7182 31.4396 69.2552C29.8143 68.5967 28.2117 67.9473 27.315 68.7919ZM54.0139 74.5885C54.0446 75.2468 54.0751 75.9016 54.139 76.5409C54.1355 76.7181 54.1441 76.894 54.1528 77.0699C54.1786 77.595 54.2044 78.1201 53.907 78.6789C56.246 78.3699 58.565 77.9269 60.807 77.3069C59.3388 75.7116 59.0629 73.3112 58.7983 71.0091C58.688 70.0498 58.5798 69.1076 58.388 68.2479C56.628 68.6249 54.85 68.9839 53.055 69.3169C53.8436 70.9353 53.9294 72.7754 54.0139 74.5885ZM54.4814 64.788C62.3454 63.0286 69.7569 61.3704 74.391 64.3989C87.643 88.2899 2.60299 87.6909 27.085 65.0299C28.6115 64.483 30.069 65.0657 31.4619 65.6225C31.5107 65.642 31.5594 65.6615 31.608 65.6809C38.0862 68.456 46.5159 66.5701 54.4814 64.788Z" fill="#141414"/><path id="dots" fill-rule="evenodd" clip-rule="evenodd" d="M70.0977 34.2286C68.6007 34.2416 68.6217 36.5646 70.1177 36.5516C71.6157 36.5396 71.5927 34.2156 70.0977 34.2286ZM31.3145 43.7022C33.3295 42.7622 31.8725 39.6282 29.8535 40.5692C27.8375 41.5102 29.2945 44.6432 31.3145 43.7022ZM23.5801 45.4024C25.0581 44.7134 23.9891 42.4154 22.5091 43.1054C21.0301 43.7954 22.0991 46.0924 23.5801 45.4024ZM26.7139 50.2315C24.2739 51.3705 26.0379 55.1655 28.4839 54.0245C30.9239 52.8865 29.1589 49.0905 26.7139 50.2315ZM19.0088 51.3682C17.6668 48.1582 13.3718 53.1872 17.2638 53.8472C18.8638 54.4342 19.8498 52.6372 19.0088 51.3682ZM69.461 45.6202C71.935 45.5992 71.898 41.7632 69.429 41.7832C66.956 41.8052 66.992 45.6412 69.461 45.6202ZM76.253 39.6846C76.059 41.0656 77.582 42.1646 78.675 41.0466C81.635 38.9666 76.097 36.4986 76.253 39.6846ZM63.0196 35.0274C60.9776 35.0454 61.0076 38.2134 63.0456 38.1954C65.0886 38.1784 65.0586 35.0104 63.0196 35.0274Z" fill="#FF4B33"/></g></g></g><g id="Accessories" transform="translate(491 176) scale(103 60)"><g id="Accessories/None" stroke="none" stroke-width="1" fill="none" fill-rule="evenodd" fill-opacity="0"/></g><g id="Facial Hair" transform="translate(501 234) scale(90 60)"><g id="Facial Hair/None" stroke="none" stroke-width="1" fill="none" fill-rule="evenodd" fill-opacity="0"/></g></g></g><g id="Master/Character/Sitting on Floor" transform="translate(1131.63 270) scale(1 1)"><g id="Master/Character/Sitting on Floor"><g id="Upper Body" transform="translate(190 768) scale(1 1)"><g id="Upper Body/Arms Crossed"><g id="T Shirt"><path id="Fill 1" fill-rule="evenodd" clip-rule="evenodd" d="M154.338 385.827C152.949 374.531 142.72 300.11 140.337 258.018C123.372 261.595 121.028 184.422 142.964 134.995C177.91 56.2549 297.874 80.8729 297.874 80.8729C297.874 80.8729 333.715 79.1949 369.097 108.152C384.912 121.096 402.329 150 410.992 181.737C408.281 190.514 379.614 229.859 369.161 236.553C385.318 315.03 398.104 385.827 398.104 385.827C398.104 385.827 189.815 389.08 154.338 385.827Z" fill="#f58404"/><path id="Fill 3" fill-rule="evenodd" clip-rule="evenodd" d="M395.738 384.904C393.457 371.893 381.602 306.896 367.202 236.956C367.035 236.145 367.386 235.315 368.083 234.869C378.183 228.401 405.459 190.788 408.901 181.671C400.683 151.981 384.224 123.116 367.831 109.7C333.507 81.6091 298.315 82.8511 297.967 82.8711C297.799 82.8751 297.635 82.8651 297.473 82.8321C297.175 82.7721 267.308 76.7741 233.643 80.4051C213.973 82.5271 196.875 87.4711 182.821 95.1021C165.369 104.579 152.574 118.274 144.793 135.807C136.265 155.022 130.63 180.678 129.335 206.197C128.179 228.959 130.768 247.789 135.931 254.168C137.626 256.261 139.023 256.254 139.925 256.061C140.497 255.942 141.091 256.076 141.553 256.429C142.017 256.784 142.302 257.322 142.335 257.905C144.393 294.255 152.856 352.599 156.042 377.197C156.393 379.905 156.677 382.103 156.88 383.693C193.78 386.405 373.262 385.641 395.738 384.904ZM154.915 387.545C153.978 387.459 153.228 386.732 153.113 385.797C152.926 384.278 152.566 381.495 152.075 377.711C148.941 353.509 140.706 296.932 138.457 260.097C136.728 259.911 134.728 259.04 132.821 256.684C126.985 249.473 124.118 230.05 125.34 205.995C126.66 180.004 132.418 153.83 141.137 134.184C155.732 101.299 187.605 81.3241 233.311 76.4181C265.952 72.9121 295.072 78.2921 298.032 78.8661C301.571 78.7441 335.947 78.4371 370.364 106.604C387.457 120.594 404.56 150.575 412.922 181.21C413.022 181.577 413.016 181.964 412.903 182.327C410.318 190.695 383.2 228.537 371.385 237.436C387.24 314.572 399.948 385.751 400.075 386.485C400.174 387.055 400.022 387.64 399.656 388.089C399.291 388.537 398.75 388.806 398.172 388.826C391.34 389.055 260.432 388.426 191.421 388.426C174.78 388.426 161.753 388.172 154.915 387.545Z" fill="#141414"/></g><g id="Neck"><path id="SKIN" fill-rule="evenodd" clip-rule="evenodd" d="M248.467 50.1257C248.467 50.1257 247.109 84.5637 232.88 89.4817C229.009 108.838 255.241 122.055 275.181 121.119C313.782 119.307 301.768 87.7557 299.114 87.6697C299.191 83.7147 301.323 54.1327 301.323 54.1327L248.467 50.1257Z" fill="white"/><path id="Fill 8" fill-rule="evenodd" clip-rule="evenodd" d="M234.778 91.0046C234.087 96.0666 235.656 100.864 239.453 105.28C246.821 113.851 261.801 119.628 275.081 118.995C288.348 118.372 296.877 113.956 299.744 106.225C302.438 98.9636 299.471 91.0896 298.273 89.6246C297.502 89.2926 296.969 88.5186 296.986 87.6286C297.053 84.2426 298.557 62.9836 299.05 56.0926L250.46 52.4096C249.895 60.1096 247.119 85.2576 234.778 91.0046M273.151 123.293C259.222 123.293 243.983 117.073 236.228 108.053C231.328 102.355 229.449 95.7876 230.794 89.0656C230.942 88.3246 231.471 87.7186 232.184 87.4726C242.719 83.8316 245.975 59.2176 246.341 50.0416C246.364 49.4646 246.62 48.9216 247.051 48.5376C247.483 48.1536 248.056 47.9666 248.627 48.0046L301.483 52.0116C302.651 52.1006 303.528 53.1166 303.444 54.2856C303.424 54.5616 301.576 80.2196 301.278 86.6696C303.593 89.1646 305.062 95.2796 305.093 99.6106C305.138 105.679 303.057 110.974 299.074 114.923C294.015 119.941 286.009 122.74 275.28 123.244C274.575 123.276 273.864 123.293 273.151 123.293" fill="#141414"/></g><g id="Hand"><path id="SKIN_2" fill-rule="evenodd" clip-rule="evenodd" d="M410.916 181.429L356.055 189.117L362.113 224.522C362.113 224.522 283.161 216.875 256.042 207.897C242.393 203.378 224.751 208.409 217.84 222.613C214.184 230.127 216.54 249.679 216.54 249.679C216.54 249.679 241.97 249.332 249.235 249.332C249.978 249.332 250.938 249.582 252.084 250.03L215.574 250.42L213.744 197.724L127.801 198.81C127.801 198.81 111.477 312.305 176.799 329.974C236.318 346.074 308.23 291.585 313.851 287.229C341.779 301.766 374.98 313.168 406.245 305.187C445.786 295.094 412.532 185.905 410.916 181.429" fill="white"/><path id="Fill 13" fill-rule="evenodd" clip-rule="evenodd" d="M418.149 292.906C415.19 298.491 411.134 301.874 405.749 303.249C357.418 315.587 304.872 281.121 273.475 260.53C263.091 253.719 256.733 249.62 252.548 248.061C252.538 248.049 252.525 248.037 252.515 248.025L252.448 248.026C251.201 247.57 250.14 247.332 249.233 247.332C243.173 247.332 224.294 247.575 218.333 247.655C217.725 241.357 217.122 228.658 219.637 223.488C224.898 212.678 239.715 204.6 255.413 209.796C282.357 218.716 358.248 226.157 361.882 226.51L374.948 228.251C375.038 228.263 375.127 228.269 375.215 228.269C376.202 228.269 377.061 227.538 377.195 226.533C377.341 225.438 376.572 224.432 375.477 224.286L363.836 222.734L358.373 190.811L409.534 183.642C411.251 189.134 416.454 207.224 420.022 227.936C425.248 258.264 424.599 280.73 418.149 292.906M199.95 330.917C192.301 330.917 184.701 330.04 177.32 328.044C151.1 320.951 135.11 297.244 129.795 257.579C126.343 231.814 128.786 207.325 129.564 200.788L211.812 199.748L213.574 250.489C213.612 251.575 214.514 252.409 215.594 252.42L251.752 252.033C255.861 253.764 263.123 258.523 271.281 263.874C282.076 270.954 295.333 279.642 310.078 287.555C297.72 296.622 247.802 330.92 199.95 330.917M412.795 180.75C412.474 179.861 411.575 179.32 410.637 179.448L357.641 186.875L350.984 153.891C350.764 152.808 349.706 152.106 348.628 152.326C347.544 152.545 346.844 153.599 347.062 154.682L354.087 189.486L359.698 222.27C345.818 220.853 280.503 213.888 256.669 205.999C249.471 203.615 241.116 203.743 233.746 206.348C226.156 209.033 220.091 214.133 216.544 220.767L215.753 197.976C215.762 197.89 215.775 197.806 215.774 197.718L215.073 157.017C215.055 155.913 214.19 155.013 213.039 155.052C211.935 155.071 211.055 155.982 211.074 157.086L211.74 195.749L127.774 196.81C126.789 196.823 125.96 197.551 125.82 198.526C125.778 198.812 121.747 227.527 125.82 258.031C131.28 298.908 148.727 324.453 176.276 331.905C184.025 334.001 191.971 334.905 199.917 334.905C225.412 334.905 250.878 325.601 269.619 316.548C291.951 305.759 309.062 293.351 314.004 289.625C335.528 300.756 359.951 309.853 384.437 309.853C391.891 309.853 399.353 309.01 406.739 307.125C413.187 305.478 418.215 301.324 421.683 294.779C438.847 262.381 413.077 181.528 412.795 180.75" fill="#141414"/></g></g></g><g id="Lower Body Floor" transform="translate(182 1025) scale(1 1)"><g id="Lower Body Floor/Legs Crossed"><g id="Shoe 1"><path id="Fill 1" fill-rule="evenodd" clip-rule="evenodd" d="M350.201 237C350.201 237 297.529 267.81 300.09 297.259C302.651 326.708 325.538 326.068 336.101 325.588C362.348 324.395 390.999 301.461 390.999 301.461L350.201 237Z" fill="#f58404"/><path id="Fill 5" fill-rule="evenodd" clip-rule="evenodd" d="M351.191 302.189C350.739 302.189 350.284 302.037 349.91 301.724C336.551 290.57 332.472 276.668 332.305 276.081C332.002 275.019 332.618 273.912 333.68 273.609C334.74 273.308 335.847 273.92 336.151 274.982C336.189 275.114 340.1 288.322 352.474 298.654C353.322 299.362 353.435 300.623 352.727 301.471C352.332 301.945 351.763 302.189 351.191 302.189" fill="#141414"/></g><g id="Leg 1"><path id="Fill 7" fill-rule="evenodd" clip-rule="evenodd" d="M302 108.389C302 108.389 387.625 68.4751 493.526 53.9131C595.957 39.8291 611.633 106.481 586.994 156.344C533.219 265.177 393.587 313.862 393.587 313.862C317.928 275.635 343.287 184.769 302 108.389" fill="#141414"/><path id="Fill 9" fill-rule="evenodd" clip-rule="evenodd" d="M389.116 193.392C388.5 193.392 387.891 193.108 387.5 192.573C386.847 191.681 387.042 190.43 387.933 189.778C388.627 189.271 457.477 138.625 478.089 98.855C478.596 97.875 479.803 97.491 480.784 98C481.765 98.508 482.148 99.715 481.639 100.696C472.789 117.775 454.714 138.51 427.916 162.325C408.021 180.006 390.47 192.878 390.295 193.006C389.938 193.267 389.525 193.392 389.116 193.392" fill="white"/></g><g id="Shoe 2"><path id="Fill 11" fill-rule="evenodd" clip-rule="evenodd" d="M504.78 261.366C504.78 261.366 490.304 271.214 505.081 287.253C512.228 295.012 598.434 329.295 626.118 311.794C638.906 303.71 641.816 294.626 643.154 290.751C628.63 286.326 504.78 261.366 504.78 261.366" fill="#141414"/><path id="Fill 13" fill-rule="evenodd" clip-rule="evenodd" d="M534.438 208.058C551.733 206.951 584.239 221.851 624.391 242.115C664.663 262.438 648.827 305.537 612.106 308.026C590.386 309.498 536.049 296.971 511.193 281.909C491.912 270.225 498.241 247.43 502.523 238.443C508.846 225.174 522.535 208.82 534.438 208.058" fill="#f58404"/><path id="Fill 16" fill-rule="evenodd" clip-rule="evenodd" d="M576.784 276.269C576.761 276.268 576.735 276.267 576.71 276.264C575.663 276.181 574.882 275.264 574.966 274.216C576.508 254.85 586.533 242.175 586.958 241.645C587.616 240.828 588.811 240.696 589.634 241.354C590.452 242.012 590.582 243.208 589.926 244.028C589.829 244.148 580.203 256.369 578.758 274.519C578.677 275.541 577.801 276.31 576.784 276.269" fill="#141414"/><path id="Fill 18" fill-rule="evenodd" clip-rule="evenodd" d="M596.324 279.879C596.3 279.878 596.274 279.877 596.25 279.874C595.203 279.791 594.421 278.874 594.505 277.826C595.648 263.461 603.099 254.04 603.416 253.647C604.074 252.828 605.27 252.697 606.091 253.356C606.909 254.014 607.04 255.209 606.384 256.027C606.313 256.116 599.345 264.98 598.297 278.129C598.216 279.151 597.34 279.92 596.324 279.879" fill="#141414"/><path id="SKIN" fill-rule="evenodd" clip-rule="evenodd" d="M513.568 191.311C513.568 191.311 560.968 223.98 563.819 232.374C569.794 249.965 560.353 264.504 548.638 269.291C526.91 278.17 477.944 247.689 477.944 247.689" fill="white"/><path id="Fill 22" fill-rule="evenodd" clip-rule="evenodd" d="M542.146 272.779C518.016 274.776 478.723 250.529 476.887 249.386C475.949 248.802 475.663 247.568 476.246 246.631C476.83 245.695 478.064 245.408 479.001 245.99C479.123 246.066 491.326 253.628 505.983 260.004C525.026 268.287 539.515 270.856 547.882 267.439C558.837 262.964 567.482 249.378 561.925 233.017C560.003 227.359 530.548 205.443 512.433 192.957C511.524 192.33 511.294 191.085 511.921 190.175C512.547 189.265 513.792 189.036 514.703 189.664C514.823 189.746 526.729 197.962 538.83 207.098C561.152 223.952 564.862 229.228 565.712 231.73C572.056 250.407 562.04 265.975 549.395 271.141C547.203 272.038 544.761 272.563 542.146 272.779" fill="#141414"/></g><g id="Leg 2"><path id="Fill 24" fill-rule="evenodd" clip-rule="evenodd" d="M158.43 153.617C166.483 -15.4981 323.957 63.2599 354.919 79.1729C455.59 130.916 557.875 194.139 557.875 194.139C560.758 246.803 501.836 294.03 465.935 299.277L341.297 236.679C341.297 236.679 309.643 282.211 252.84 279.801C178.376 276.641 154.384 238.585 158.43 153.617" fill="#0B379B"/><path id="Fill 27" fill-rule="evenodd" clip-rule="evenodd" d="M341.402 236.758C335.16 233.463 293.082 211.039 272.055 194.455C271.187 193.771 269.929 193.919 269.246 194.787C268.562 195.654 268.711 196.912 269.578 197.596C290.212 213.87 330.628 235.575 338.852 239.935C339.781 238.88 340.734 237.733 341.402 236.758" fill="white"/></g></g></g><g id="Head" transform="translate(357 673) scale(1 1)"><g id="Head/Bun 1"><path id="SKIN" fill-rule="evenodd" clip-rule="evenodd" d="M149.882 102.094C143.885 52.3538 111.153 49.4878 87.5365 53.7808C68.7135 57.2038 44.6345 72.7648 46.7665 104.073C37.3415 101.013 30.4605 106.742 29.2365 114.189C27.8495 122.64 32.2855 136.935 46.2375 134.473C49.2925 158.699 66.0495 186.607 111.579 181.938C146.05 178.402 155.34 147.368 149.882 102.094" fill="white"/><path id="Combined Shape" fill-rule="evenodd" clip-rule="evenodd" d="M48.2218 134.223C50.0038 147.852 56.1648 161.361 67.2638 169.967C80.2308 182.118 123.203 187.006 138.219 166.456C150.998 153.433 152.906 108.249 143.117 82.1546C136.341 82.9006 125.94 83.7646 116.458 83.3946C114.284 80.3254 111.939 74.4372 110.251 70.2005C109.438 68.1591 108.778 66.5011 108.363 65.7266C107.149 67.3883 108.797 76.1561 109.788 81.4324C109.982 82.462 110.15 83.3587 110.268 84.0436C97.0758 90.4936 68.8828 93.7306 53.0198 90.8096C52.8477 93.8559 53.3909 97.1587 53.8662 100.049C54.9346 106.546 55.6603 110.959 47.1488 105.69C33.7148 97.3736 26.8068 119.976 36.0728 128.937C41.1758 133.873 44.9738 134.217 48.2218 134.223ZM68.0298 20.0796C63.1798 22.1526 50.3648 27.8466 50.1838 33.2466C71.0618 15.7416 140.214 7.6086 161.314 70.6596C168.06 92.5106 172.203 170.211 170.874 177.185C159.948 179.461 143.566 181.963 128.953 181.631C128.698 180.908 128.536 180.137 128.41 179.347C110.504 187.697 84.463 186.383 69 176C69.4059 179.508 69.358 181.906 69.3227 183.671C69.2949 185.064 69.275 186.062 69.4918 186.9C54.2508 189.358 31.6008 183.212 31.6008 183.212C31.6008 183.212 -7.27916 103.685 29.5848 57.1906C20.9498 55.1986 2.86084 42.6746 15.1488 16.7706C24.6558 -3.2704 58.7758 -3.6294 68.0298 20.0796ZM43.8325 118.933C43.6189 119.964 43.4228 120.91 42.3775 120.698C39.1875 120.05 38.7805 115.497 41.6905 114.023C44.0785 112.814 44.8125 115.511 44.0495 118.022C43.9606 118.314 43.8958 118.627 43.8325 118.933Z" fill="#141414"/></g></g><g id="Face" transform="translate(417 759) scale(1 1)"><g id="Face/Open Mouth"><g id="Open Mouth"><path id="face" fill-rule="evenodd" clip-rule="evenodd" d="M70.9882 13.9992C68.0522 13.1742 65.0782 13.0552 62.1032 13.8122C61.3352 13.9612 60.5912 13.4602 60.4422 12.6922C60.2782 10.4482 64.6642 9.45818 66.4202 9.12918C68.9872 8.53018 78.2462 9.98018 75.8402 14.0072C74.8739 14.9846 73.5478 14.6298 72.2836 14.2916C71.838 14.1724 71.4 14.0552 70.9882 13.9992ZM79.0837 28.4098C82.3627 26.3868 77.0907 22.1598 75.2657 21.4738C69.4397 18.6568 61.9697 21.0418 58.6887 26.5268C58.2247 27.2298 58.3157 28.1878 58.9497 28.7888C59.6937 29.4978 60.8847 29.4128 61.5407 28.6288C62.6357 27.4718 63.7997 26.4788 65.0977 25.7828C68.6977 23.8368 74.1807 24.5208 76.8177 27.5978C77.2937 28.3478 78.2017 28.7898 79.0837 28.4098ZM53.2121 41.7435C64.1301 46.3135 60.3391 58.0745 48.9291 57.1785C46.3381 57.1585 46.3271 53.2175 48.9111 53.1785C51.0741 53.1255 54.3141 52.8435 55.2651 50.9605C56.4161 48.0585 53.4991 46.1325 50.9521 45.1195C49.8511 44.6065 49.4721 43.1815 49.3121 42.3375C48.4978 37.2812 48.6234 32.2363 48.7496 27.1678L48.7601 26.7445C48.7891 25.0005 51.4901 24.9795 51.5791 26.6915C51.7055 28.058 51.8056 29.4359 51.9059 30.8166C52.173 34.4938 52.4415 38.1905 53.2121 41.7435ZM30.3622 32.9675C29.6752 32.1725 28.7082 31.6365 27.5622 31.4665C23.6152 30.9165 20.4002 34.4195 19.1242 37.9275C18.7892 38.8765 17.7262 39.3655 16.7902 38.9875C14.522 37.8155 16.3701 34.8966 17.597 32.9588C17.8105 32.6215 18.0053 32.3139 18.1562 32.0505C20.3672 29.0185 24.0882 26.8595 28.0172 27.2305C30.0292 27.4015 32.0852 28.2865 33.5832 29.8225C35.6322 31.9375 32.4222 35.0645 30.3622 32.9675ZM23.7171 17.8459H23.7171C24.9032 17.8693 26.1151 17.8932 26.6225 16.807C27.4035 13.736 19.8595 14 17.9705 14.2C15.5715 14.569 10.0895 15.517 9.99951 18.591C10.1315 19.604 11.0595 20.318 12.0715 20.187C13.5777 19.9711 15.0595 19.5563 16.5438 19.1407C18.3183 18.6439 20.0965 18.1461 21.9245 17.986C22.4365 17.8206 23.073 17.8331 23.7171 17.8459ZM58.3953 62.0875C62.3488 61.5386 68.1152 60.738 69.169 62.5403C72.497 69.5353 66.256 77.4383 59.985 80.2743C50.105 84.8163 30.721 80.4693 32.805 66.7053C32.769 66.2653 33.383 65.5403 33.895 65.5473C34.7414 65.42 35.5932 65.2916 36.4491 65.1625C42.6883 64.2219 49.1471 63.2481 55.329 62.4453C56.0061 62.4192 57.104 62.2668 58.3953 62.0875Z" fill="#141414"/><path id="dot" fill-rule="evenodd" clip-rule="evenodd" d="M71.0965 36.1706C69.5995 36.1836 69.6205 38.5066 71.1165 38.4936C72.6135 38.4816 72.5915 36.1576 71.0965 36.1706ZM30.8523 42.5124C28.8363 43.4524 30.2933 46.5864 32.3133 45.6444C34.3283 44.7044 32.8713 41.5714 30.8523 42.5124ZM23.5066 45.0485C22.0286 45.7375 23.0976 48.0355 24.5786 47.3455C26.0566 46.6555 24.9866 44.3585 23.5066 45.0485ZM27.7127 52.1735C25.2727 53.3125 27.0367 57.1085 29.4827 55.9675C31.9227 54.8285 30.1577 51.0335 27.7127 52.1735ZM20.0076 53.3102C18.6656 50.1012 14.3706 55.1302 18.2626 55.7892C19.8626 56.3762 20.8486 54.5802 20.0076 53.3102ZM70.4275 43.7263C67.9545 43.7473 67.9905 47.5833 70.4595 47.5633C72.9335 47.5423 72.8965 43.7053 70.4275 43.7263ZM77.2517 41.6266C77.0577 43.0086 78.5807 44.1076 79.6737 42.9896C82.6337 40.9086 77.0957 38.4416 77.2517 41.6266ZM64.0183 36.9704C61.9763 36.9884 62.0063 40.1564 64.0443 40.1384C66.0863 40.1204 66.0573 36.9524 64.0183 36.9704Z" fill="#FF4B33"/></g></g></g><g id="Accessories" transform="translate(409 757) scale(103 60)"><g id="Accessories/None" stroke="none" stroke-width="1" fill="none" fill-rule="evenodd" fill-opacity="0"/></g><g id="Facial Hair" transform="translate(419 815) scale(90 60)"><g id="Facial Hair/None" stroke="none" stroke-width="1" fill="none" fill-rule="evenodd" fill-opacity="0"/></g></g></g></g></svg>