<svg viewBox="90 240 2190 1380" fill="none" xmlns="http://www.w3.org/2000/svg" xmlns:xlink="http://www.w3.org/1999/xlink" overflow="visible" width="2190px" height="1380px"><g id="Master/Scenes/The Feedback"><g id="Screen" transform="translate(556.5 271.074) scale(1 1)"><g id="Screen/Stats"><g id="Window"><path id="Window_2" d="M1263.32 888.592H23.428C10.766 888.592 0.5 878.326 0.5 865.664V23.428C0.5 10.765 10.766 0.499023 23.428 0.499023H1263.32C1275.98 0.499023 1286.25 10.765 1286.25 23.428V865.664C1286.25 878.326 1275.98 888.592 1263.32 888.592Z" fill="white"/><path id="window" fill-rule="evenodd" clip-rule="evenodd" d="M23.428 -1.50098H1263.32C1277.09 -1.50098 1288.25 9.66029 1288.25 23.428V865.664C1288.25 879.431 1277.09 890.592 1263.32 890.592H23.428C9.66143 890.592 -1.5 879.431 -1.5 865.664V23.428C-1.5 9.66062 9.66126 -1.50098 23.428 -1.50098ZM1263.32 2.49902H23.428C11.8704 2.49902 2.5 11.8697 2.5 23.428V865.664C2.5 877.221 11.8706 886.592 23.428 886.592H1263.32C1274.88 886.592 1284.25 877.222 1284.25 865.664V23.428C1284.25 11.8694 1274.88 2.49902 1263.32 2.49902Z" fill="#141414"/><path id="Info" fill-rule="evenodd" clip-rule="evenodd" d="M554.121 128.536V91.2581H84.1211V128.536H554.121ZM498.327 186.525V223.804H84.1211V186.525H498.327ZM368.976 304.574V267.296H84.1211V304.574H368.976ZM412.121 353.697V390.975H84.1211V353.697H412.121ZM291.121 436.171V473.449H84.1211V436.171H291.121Z" fill="#D3E2F2"/><path id="$" d="M539.723 500.175V483.303C551.072 481.276 559.812 477.096 565.943 470.763C572.073 464.43 575.139 457.007 575.139 448.495C575.139 440.794 573.087 434.714 568.983 430.255C564.879 425.796 560.04 422.579 554.467 420.603C548.893 418.627 542.053 416.879 533.947 415.359C527.664 414.143 523.155 413.003 520.419 411.939C517.683 410.875 516.315 409.279 516.315 407.151C516.315 402.692 520.925 400.463 530.147 400.463C539.469 400.463 549.349 403.098 559.787 408.367V408.367L570.579 382.375C562.168 377.612 551.883 374.674 539.723 373.559V373.559V357.295H518.291V373.863C506.232 375.586 496.985 379.639 490.551 386.023C484.116 392.407 480.899 400.058 480.899 408.975C480.899 416.676 482.925 422.782 486.979 427.291C491.032 431.8 495.795 435.043 501.267 437.019C506.739 438.995 513.579 440.844 521.787 442.567C528.171 443.884 532.756 445.1 535.543 446.215C538.329 447.33 539.723 449.002 539.723 451.231C539.723 453.156 538.659 454.6 536.531 455.563C534.403 456.526 530.856 457.007 525.891 457.007C520.115 457.007 514.085 456.12 507.803 454.347C501.52 452.574 495.845 450.218 490.779 447.279V447.279L479.227 473.423C483.787 476.26 489.537 478.642 496.479 480.567C503.42 482.492 510.691 483.658 518.291 484.063V484.063V500.175H539.723Z" fill="#FFC81A"/><g id="Assets 101"><path id="Bg (Stroke)" fill-rule="evenodd" clip-rule="evenodd" d="M1110.19 80.5532L1112.16 80.9005C1138.27 85.5042 1161.94 99.1693 1178.98 119.48C1196.02 139.789 1205.37 165.471 1205.37 191.984V193.984H1090.19L1110.19 80.5532ZM1113.43 85.2051L1094.96 189.984H1201.35C1200.9 165.122 1191.93 141.128 1175.92 122.051C1159.91 102.972 1137.84 89.9723 1113.43 85.2051Z" fill="#D3E2F2"/><path id="Stork (Stroke)" fill-rule="evenodd" clip-rule="evenodd" d="M1070.73 99.8174C1011.05 99.8174 961.93 148.938 961.93 208.614C961.93 268.291 1011.05 317.411 1070.73 317.411C1129.74 317.411 1178.42 269.384 1179.51 210.614H1068.34L1087.65 101.141C1082.05 100.26 1076.39 99.8174 1070.73 99.8174ZM957.93 208.614C957.93 146.729 1008.84 95.8174 1070.73 95.8174C1077.29 95.8174 1083.85 96.3905 1090.31 97.5308L1092.28 97.8781L1073.11 206.614H1183.52V208.614C1183.52 270.5 1132.61 321.411 1070.73 321.411C1008.84 321.411 957.93 270.5 957.93 208.614Z" fill="#D3E2F2"/><path id="BG (Stroke)" fill-rule="evenodd" clip-rule="evenodd" d="M884.912 84.0386C858.776 84.0386 837.59 105.225 837.59 131.36C837.59 157.494 858.776 178.681 884.912 178.681C911.046 178.681 932.233 157.494 932.233 131.36C932.233 105.225 911.046 84.0386 884.912 84.0386ZM833.59 131.36C833.59 103.016 856.567 80.0386 884.912 80.0386C913.255 80.0386 936.233 103.016 936.233 131.36C936.233 159.703 913.255 182.681 884.912 182.681C856.567 182.681 833.59 159.703 833.59 131.36Z" fill="#D3E2F2"/><path id="Stork" d="M1090.19 189.667L1109.43 80.5532C1135.08 85.0752 1158.33 98.4982 1175.07 118.448C1191.81 138.397 1200.99 163.624 1200.99 189.667H1090.19Z" fill="#EDF3F9"/><path id="Stoke" d="M1068.73 206.614H1179.52C1179.52 267.395 1129.51 317.411 1068.73 317.411C1007.95 317.411 957.93 267.395 957.93 206.614C957.93 145.833 1007.95 95.8174 1068.73 95.8174C1075.18 95.8174 1081.61 96.3804 1087.97 97.5004L1068.73 206.614Z" fill="#EDF3F9"/><path id="Stroke" d="M932.233 129.36C932.233 156.599 910.151 178.681 882.912 178.681C855.672 178.681 833.59 156.599 833.59 129.36C833.59 102.121 855.672 80.0386 882.912 80.0386C910.151 80.0386 932.233 102.121 932.233 129.36Z" fill="#EDF3F9"/></g><path id="Graph" fill-rule="evenodd" clip-rule="evenodd" d="M716.782 813.781V390.011H661.941V813.781H716.782ZM918.007 813.781V599.134H863.167V813.781H918.007ZM823.312 508.177V813.781H768.472V508.177H823.312ZM1026.23 813.781V663.145H971.388V813.781H1026.23ZM1132.83 698.156V813.781H1077.99V698.156H1132.83ZM1223.25 813.781V671.2H1168.41V813.781H1223.25Z" fill="#D3E2F2"/><path id="Up" d="M1094.88 458.233L920.508 551.848L713.159 234.624L734.278 222.432L666.461 178.246L670.821 259.069L688.593 248.808L911.011 589.09L1085.42 495.457L1197.2 665.867L1220.88 650.323L1094.88 458.233Z" fill="#02BAD3"/></g></g></g><g id="Background"><g id="Plant" transform="translate(0 632) scale(1 1)"><g id="Plant/Plant 4"><g id="Group"><path id="Leaf 1" fill-rule="evenodd" clip-rule="evenodd" d="M244.073 853.531C244.073 853.531 229.605 825.503 258.609 781.305C320.021 687.725 220.705 732.861 198.735 668.952C180.821 616.844 210.646 564.196 180.697 550.247C131.673 527.415 80.5689 493.756 113.394 455.673C136.426 428.951 215.766 431.361 246.876 513.594C266.343 565.053 343.053 530.725 411.113 612.247C431.383 636.525 475.896 739.273 452.538 853.531H244.073Z" fill="#141414"/><g id="Leaf 2"><path id="Fill 4" fill-rule="evenodd" clip-rule="evenodd" d="M325.4 853.531C325.4 853.531 292.267 812.469 308.337 767.439C321.299 731.113 356.08 721.177 357.246 690.58C358.715 651.998 320.005 657.304 313.88 609.666C309.121 572.647 331.764 538.601 330.274 518.912C328.019 489.125 277.108 473.667 259.627 428.872C237.463 372.078 306.465 359.105 337.2 378.311C375.779 402.42 377.083 438.391 393.995 460.04C413.202 484.628 473.325 490.149 481.957 550.772C487.431 589.221 464.978 622.629 475.56 655.181C483.421 679.36 530.35 690.035 540.227 743.465C550.858 800.979 507.981 853.531 507.981 853.531H325.4Z" fill="#FFB500"/><path id="Fill 6" fill-rule="evenodd" clip-rule="evenodd" d="M421.477 853.531H425.526C426.979 844.145 439.717 755.435 420.897 649.779C404.689 558.787 355.569 473.723 315.005 424.457C314.303 423.604 313.044 423.482 312.19 424.184C311.337 424.886 311.215 426.147 311.917 427C334.131 453.979 356.129 488.489 373.859 524.173C394.869 566.456 409.772 610.133 416.959 650.48C436.272 758.899 422.159 849.312 421.477 853.531" fill="#070707"/></g></g></g></g><g id="Plant" transform="translate(1623 665.074) scale(1 1)"><g id="Plant/Plant 5"><g id="Leaf"><path id="Fill 1" fill-rule="evenodd" clip-rule="evenodd" d="M142.073 854C142.073 854 38.7938 792.106 59.8255 680.113C72.3796 613.26 114.963 616.538 139.609 565.925C155.338 533.623 131.439 446.932 180.495 389.904C226.323 336.629 301.255 341.458 325.391 329.885C357.739 314.375 370.058 281.791 379.304 255.03C413.783 155.257 493.443 157.951 506.41 207.589C522.043 267.434 507.075 303.502 433.524 362.151C378.258 406.22 459.174 455.663 411.041 535.903C384.145 580.739 311.823 604.043 347.15 662.018C395.526 741.406 386.44 819.449 361.777 854H142.073Z" fill="#FF4B33"/><path id="Fill 10" fill-rule="evenodd" clip-rule="evenodd" d="M443.406 258.575C442.624 257.801 441.361 257.808 440.586 258.595C440.327 258.858 414.244 285.467 380.282 331.474C348.951 373.923 304.281 442.077 269.41 525.699C238.434 599.984 204.117 704.414 213.608 854H217.604C208.11 705.103 242.264 601.165 273.091 527.238C339.511 367.957 442.394 262.447 443.426 261.399C444.199 260.615 444.19 259.349 443.406 258.575" fill="white"/><path id="Fill 4" fill-rule="evenodd" clip-rule="evenodd" d="M511.73 488C505.488 488 499.131 493.164 499.131 499.42C499.131 500.461 499.283 501.463 499.546 502.421C446.698 528.402 399.565 562.051 359.321 602.561C325.081 637.028 295.722 676.507 272.062 719.896C251.011 758.501 238.459 793.126 231.637 815.376C225.256 836.184 222.553 850.375 221.91 854H225.965C226.77 849.598 229.474 836.045 235.451 816.549C242.22 794.479 254.672 760.126 275.563 721.816C299.043 678.756 328.175 639.583 362.149 605.384C402.073 565.197 448.833 531.812 501.268 506.029C503.32 508.883 506.656 510.748 510.433 510.748C516.675 510.748 521.91 506.764 521.91 500.508C521.91 494.253 517.971 488 511.73 488" fill="#141414"/><path id="Fill 7" fill-rule="evenodd" clip-rule="evenodd" d="M578.336 616.953C572.079 616.953 565.708 622.117 565.708 628.374V628.377C546.338 631.849 513.648 639.101 454.234 660.976C375.152 690.094 320.491 740.93 288.562 778.445C253.959 819.101 237.815 853.387 237.656 853.728C237.615 853.817 237.59 853.908 237.562 854H241.975C245.354 847.205 261.341 816.578 291.695 780.933C323.306 743.818 377.401 693.529 455.617 664.73C514.728 642.967 547.197 635.762 566.427 632.312C568.028 636.624 572.167 639.702 577.036 639.702C583.293 639.702 588.54 635.719 588.54 629.462C588.54 623.205 584.593 616.953 578.336 616.953" fill="#141414"/></g></g></g><path id="Path 5 (Stroke)" fill-rule="evenodd" clip-rule="evenodd" d="M93 1487.5C93 1486.4 93.8954 1485.5 95 1485.5H2135C2136.1 1485.5 2137 1486.4 2137 1487.5C2137 1488.6 2136.1 1489.5 2135 1489.5H95C93.8954 1489.5 93 1488.6 93 1487.5Z" fill="#141414"/></g><g id="Master/Character/Standing" transform="matrix(-1 0 0 1 2258 314) scale(1 1)"><g id="Master/Character/Standing"><g id="Lower Body" transform="translate(0 569) scale(1 1)"><g id="Lower Body/Jeans"><g id="shoe 2"><path id="SKIN" fill-rule="evenodd" clip-rule="evenodd" d="M662.405 631.541L670.484 686.721L749.846 694.919L737.541 638.068L662.405 631.541Z" fill="white"/><path id="path 6" fill-rule="evenodd" clip-rule="evenodd" d="M750.107 696.919L670.087 689.063C669.115 688.967 668.333 688.221 668.191 687.254L660.023 631.433C659.853 630.271 660.658 629.191 661.82 629.021C662.984 628.858 664.061 629.657 664.232 630.818L672.159 684.992L747.598 692.4L735.561 638.621C735.304 637.475 736.026 636.338 737.171 636.081C738.322 635.824 739.456 636.547 739.711 637.692L752.39 694.338C752.54 695.004 752.36 695.701 751.908 696.212C751.502 696.67 750.921 696.93 750.315 696.93C750.246 696.93 750.176 696.926 750.107 696.919Z" fill="#141414"/><path id="path 23" fill-rule="evenodd" clip-rule="evenodd" d="M666.891 680.25C667.149 679.233 668.149 678.59 669.182 678.774C670.165 678.951 671.41 679.19 672.875 679.473C681.857 681.201 700.546 684.798 718.257 684.812H718.302C728.736 684.812 737.912 681.958 744.14 676.773C744.635 676.361 745.297 676.215 745.923 676.375C776.321 684.289 798.284 690.007 814.56 700.862C817.42 702.771 827.737 711.099 825.953 716.989C825.127 719.713 822.189 721.094 817.219 721.094C799.075 721.094 759.984 721.195 725.495 721.285C697.588 721.358 673.488 721.421 664.414 721.421C663.455 721.421 662.59 720.986 661.977 720.197C658.404 715.601 664.223 690.729 666.891 680.25" fill="#00860d"/><path id="Fill 47" fill-rule="evenodd" clip-rule="evenodd" d="M664.78 730.227H821.616C824.222 730.227 826.336 728.115 826.336 725.508V723.949C826.336 721.342 824.222 719.229 821.616 719.229H664.78C662.174 719.229 660.06 721.342 660.06 723.949V725.508C660.06 728.115 662.174 730.227 664.78 730.227" fill="#141414"/><path id="path 25" fill-rule="evenodd" clip-rule="evenodd" d="M777.074 695.217C777.869 695.217 778.631 694.77 778.995 694.004C782.332 686.996 788.743 688.711 789.464 688.932C790.582 689.271 791.771 688.646 792.119 687.53C792.466 686.412 791.851 685.227 790.737 684.873C787.101 683.719 779.163 683.761 775.155 692.176C774.65 693.237 775.1 694.505 776.161 695.01C776.456 695.151 776.767 695.217 777.074 695.217" fill="#141414"/><path id="path 26" fill-rule="evenodd" clip-rule="evenodd" d="M758.293 690.095C759.088 690.095 759.851 689.648 760.215 688.882C763.552 681.874 769.963 683.589 770.683 683.81C771.802 684.15 772.991 683.524 773.338 682.408C773.685 681.29 773.07 680.105 771.956 679.751C768.316 678.598 760.38 678.641 756.375 687.054C755.87 688.115 756.32 689.383 757.381 689.888C757.676 690.029 757.986 690.095 758.293 690.095" fill="#141414"/></g><g id="shoe 1"><path id="SKIN_2" fill-rule="evenodd" clip-rule="evenodd" d="M519.973 631.395L517.596 687.152L447.699 693.144L448.766 637.159L519.973 631.395Z" fill="white"/><path id="path 1" fill-rule="evenodd" clip-rule="evenodd" d="M447.536 695.259C446.998 695.259 446.478 695.055 446.082 694.684C445.643 694.273 445.399 693.695 445.41 693.093L446.429 637.094C446.451 635.92 447.454 634.978 448.594 635.007C449.768 635.029 450.703 635.997 450.682 637.172L449.705 690.817L515.548 685.307L517.896 631.035C517.946 629.863 518.936 628.948 520.112 629.002C521.286 629.053 522.196 630.046 522.145 631.219L519.717 687.362C519.671 688.431 518.836 689.3 517.769 689.389L447.713 695.251C447.654 695.256 447.595 695.259 447.536 695.259" fill="#141414"/><path id="path 2" fill-rule="evenodd" clip-rule="evenodd" d="M522.445 680.573C522.187 679.556 521.187 678.913 520.154 679.097C519.17 679.274 517.926 679.513 516.46 679.796C507.479 681.524 488.79 685.121 471.079 685.135H471.033C460.6 685.135 451.424 682.281 445.195 677.096C444.701 676.684 444.038 676.538 443.412 676.698C413.015 684.612 391.052 690.33 374.776 701.185C371.915 703.094 361.599 711.422 363.383 717.312C364.209 720.036 367.147 721.417 372.116 721.417C390.261 721.417 429.352 721.518 463.841 721.608C491.747 721.681 515.848 721.744 524.922 721.744C525.88 721.744 526.746 721.309 527.359 720.52C530.932 715.924 525.113 691.052 522.445 680.573" fill="#00860d"/><path id="path 3" fill-rule="evenodd" clip-rule="evenodd" d="M524.556 730.55H367.72C365.113 730.55 363 728.438 363 725.831V724.272C363 721.665 365.113 719.552 367.72 719.552H524.556C527.162 719.552 529.275 721.665 529.275 724.272V725.831C529.275 728.438 527.162 730.55 524.556 730.55" fill="#141414"/><path id="path 4" fill-rule="evenodd" clip-rule="evenodd" d="M412.261 695.541C411.466 695.541 410.704 695.094 410.34 694.328C407.003 687.32 400.592 689.035 399.871 689.256C398.753 689.595 397.563 688.97 397.216 687.854C396.869 686.736 397.483 685.551 398.598 685.197C402.234 684.043 410.172 684.085 414.179 692.5C414.684 693.561 414.234 694.829 413.174 695.334C412.879 695.475 412.568 695.541 412.261 695.541" fill="#141414"/><path id="path 5" fill-rule="evenodd" clip-rule="evenodd" d="M431.042 690.418C430.247 690.418 429.485 689.971 429.121 689.205C425.783 682.197 419.372 683.912 418.653 684.133C417.534 684.473 416.344 683.847 415.997 682.731C415.65 681.613 416.265 680.428 417.379 680.074C421.019 678.921 428.955 678.964 432.96 687.377C433.465 688.438 433.015 689.706 431.955 690.211C431.66 690.352 431.349 690.418 431.042 690.418" fill="#141414"/></g><g id="pant"><path id="path 10" fill-rule="evenodd" clip-rule="evenodd" d="M427.273 2.94933L375 662.091C426.539 666.307 481.337 665.697 538.159 662.091C538.159 662.091 547.164 111.164 552.11 110.605C561.369 109.561 606.852 662.091 606.852 662.091C658.259 670.419 708.68 667.882 758.805 662.091C758.805 662.091 720.659 173.983 655.364 0.486328C552.164 5.07233 427.273 2.94933 427.273 2.94933" fill="#0B379B"/><path id="path 21" fill-rule="evenodd" clip-rule="evenodd" d="M484.299 24.4327C483.072 23.7977 481.563 24.2757 480.929 25.5017C464.357 57.4647 428.583 54.4417 427.025 54.2907C425.641 54.1567 424.427 55.1617 424.292 56.5357C424.157 57.9097 425.162 59.1327 426.536 59.2677C426.606 59.2747 427.845 59.3837 429.944 59.3837C440.092 59.3837 470.319 56.8287 485.367 27.8027C486.003 26.5777 485.525 25.0687 484.299 24.4327" fill="white"/><path id="path 22" fill-rule="evenodd" clip-rule="evenodd" d="M667.829 49.5812C666.357 49.7272 631.643 52.7752 615.567 20.7922C614.949 19.5652 613.486 19.0882 612.3 19.7232C611.111 20.3582 610.647 21.8672 611.263 23.0932C625.854 52.1222 655.159 54.6742 664.997 54.6742C667.03 54.6742 668.232 54.5642 668.3 54.5582C669.631 54.4232 670.603 53.2012 670.475 51.8282C670.345 50.4552 669.157 49.4502 667.829 49.5812" fill="white"/></g></g></g><g id="Upper Body" transform="translate(272 187) scale(1 1)"><g id="Upper Body/Coffee"><g id="Assets 106"><path id="SKIN" fill-rule="evenodd" clip-rule="evenodd" d="M485.923 328.636C451.083 271.416 412.812 202.099 412.812 202.099C412.812 202.099 368.963 260.068 369.001 291C369.015 302.123 417.127 365.234 441.295 390.392C441.455 390.834 441.659 391.177 441.914 391.397C442.834 392.192 443.742 392.993 444.646 393.797C446.075 395.211 447.443 396.513 448.73 397.675L448.791 397.566C479.031 425.655 499.748 458.102 509.492 474.313C518.981 490.1 525.738 485.131 525.268 478.816C525.268 478.816 531.237 492.396 537.776 490.565C541.861 489.422 542.853 486.531 540.096 476.473C540.096 476.473 547.578 490.16 554.275 487.971C560.492 485.94 555.784 476.348 552.507 468.358C552.507 468.358 564.458 480.293 569.106 472.784C573.706 465.352 556.631 442.557 549.631 433.07C560.265 440.521 574.45 439.285 571.402 432.994C567.799 425.557 521.935 380.219 485.923 328.636Z" fill="white"/><path id="Fill 3" fill-rule="evenodd" clip-rule="evenodd" d="M573.316 432.066C553.221 407.399 515.55 367.992 487.517 327.216C487.316 326.923 485.843 324.83 485.504 324.297C449.905 268.205 414.938 201.847 414.582 201.168C414.067 200.191 412.86 199.813 411.88 200.328C410.903 200.842 410.527 202.051 411.041 203.029C411.397 203.705 445.959 269.299 481.396 325.286C481.948 326.157 483.199 328.323 483.557 328.839C511.937 369.707 548.953 409.556 569.488 433.922C570.156 437.74 557.923 436.493 550.85 431.328C548.855 430.082 546.839 429.12 544.507 428.641C542.401 427.988 540.092 429.139 538.042 429.896C530.33 432.743 522.425 426.053 521.863 425.822C521.396 425.63 521.158 425.097 520.852 424.687C520.038 423.556 518.274 424.776 518.991 425.934C523.755 433.35 534.237 434.664 542.192 432.801C544.201 432.784 546.802 433.797 548.425 435.02C554.016 442.591 571.031 465.631 567.296 471.665C564.039 475.92 557.466 469.808 554.185 467.022L543.976 449.981C543.515 449.212 542.518 448.961 541.749 449.422C541.003 449.868 540.748 450.821 541.15 451.58C541.15 451.58 550.581 469.264 550.582 469.264C552.316 474.482 557.99 483.721 553.613 485.95C545.05 486.681 536.215 463.704 531.67 457.575C530.648 455.735 527.761 457.306 528.756 459.166L538.1 477.244C540.879 487.483 539.011 488.011 537.202 488.518C533.616 489.522 528.923 481.837 527.213 477.959C527.203 477.945 521.097 464.491 521.088 464.475C520.328 462.736 517.602 463.84 518.267 465.62L523.151 479.211C522.735 485.977 517.148 482.694 511.312 473.217C508.608 465.672 476.692 422.981 458.502 404.27C455.411 401.09 450.273 396.38 450.089 396.21C426.054 373.906 386.316 320.9 381.507 304.732C381.193 303.673 380.083 303.07 379.02 303.385C377.962 303.7 377.359 304.813 377.673 305.872C382.894 323.428 423.265 376.115 445.934 397.78C445.936 397.795 445.937 397.809 445.94 397.824C468.203 418.2 488.971 444.303 507.668 475.41C515.866 488.284 521.417 489.158 525.89 484.491C528.569 488.785 533.069 494.091 538.349 492.613C542.25 491.521 543.746 489.033 543.772 485.243C553.474 496.091 563.81 488.107 557.476 474.927C561.813 477.712 567.913 478.945 570.913 473.903C574.955 467.378 566.986 453.648 556.464 438.854C564.916 441.585 576.21 441.14 573.316 432.066" fill="#141414"/></g><path id="T Shirt" fill-rule="evenodd" clip-rule="evenodd" d="M112.998 217C107.816 231.031 108.056 238.078 105.938 248.405C131.941 265.156 164.058 265.647 179.054 267.082C154.486 347.645 153.833 393.948 153.833 393.948L394.999 395C394.999 395 380.004 311.533 376.931 269.966C376.823 265.028 417.216 235.714 429.533 208.939C418.589 186.004 393.226 151.14 389.85 146.535C365.998 114 315.999 82 249.999 93C196.999 100 153.998 106 112.998 217Z" fill="#00860d"/><g id="neck"><path id="SKIN_2" fill-rule="evenodd" clip-rule="evenodd" d="M317.63 107.895C312.58 96.527 301.969 93.952 298.255 93.389L295.022 63L245.949 66.569C245.949 66.569 243.12 76.997 241.818 90.264C235.377 90.851 219.35 93.237 214.892 102.618C213.956 113.007 229.537 154.143 247.172 155.073C253.854 155.426 271.865 142.938 276.349 133.347C277.511 133.748 278.083 133.971 278.342 134.095C278.505 134.005 278.781 133.85 279.142 133.64C279.197 133.75 279.24 133.856 279.297 133.967C284.885 142.96 293.965 157.767 300.559 156.625C317.96 153.614 319.789 118.1 317.63 107.895" fill="white"/><path id="Fill 9" fill-rule="evenodd" clip-rule="evenodd" d="M309.052 148.299C306.594 151.927 303.622 154.066 300.219 154.654C295.358 155.501 286.74 142.132 282.033 134.578C294.136 126.552 300.311 118.225 301.418 108.486C301.943 103.864 301.709 98.7502 301.48 95.7232C305.007 96.6522 311.659 99.5522 315.716 108.513C317.313 116.487 316.425 137.416 309.052 148.299M247.279 153.076C243.33 152.867 239.136 150.235 234.817 145.25C223.82 132.563 216.544 110.152 216.862 103.147C221.016 94.9892 232.43 93.2472 236.927 92.8762C237.769 98.5492 242.984 114.286 273.712 134.039C268.335 142.966 252.372 153.328 247.279 153.076M319.588 107.481C314.586 94.8802 303.062 91.7772 300.116 91.3792C300.088 90.8142 300.063 90.5022 300.063 90.5022L297.577 65.4832L293.633 66.2402L297.604 106.205C297.561 106.821 297.511 107.434 297.443 108.034C296.808 113.62 294.126 122.212 278.229 132.277C278.18 132.308 278.14 132.347 278.095 132.382C277.937 132.094 277.71 131.84 277.415 131.654C255.666 117.963 246.828 106.387 243.234 99.1112C243.651 86.3612 246.109 72.8062 247.281 66.9672L243.313 66.3672C242.397 70.9002 240.798 79.5892 239.877 89.1112C239.552 88.8982 239.173 88.7762 238.778 88.7762H238.776C237.979 88.7772 219.178 88.9402 213.087 101.759C212.986 101.973 212.923 102.203 212.902 102.439C212.157 110.698 220.502 134.842 231.794 147.87C236.853 153.707 241.992 156.802 247.068 157.07C247.2 157.077 247.335 157.081 247.471 157.081C255.912 157.08 272.821 143.918 277.674 135.141L277.863 135.446C285.481 147.711 292.896 158.689 299.809 158.689C300.175 158.689 300.539 158.658 300.901 158.596C305.416 157.815 309.273 155.105 312.364 150.543C320.536 138.479 321.422 116.094 319.588 107.481" fill="#141414"/></g><g id="coffee"><path id="Fill 11" fill-rule="evenodd" clip-rule="evenodd" d="M301.629 278.939H348.29C353.348 278.939 358.467 195.888 358.467 195.888H290.055C290.055 195.888 294.911 278.939 301.629 278.939" fill="#13D6C3"/><path id="Fill 13" fill-rule="evenodd" clip-rule="evenodd" d="M361.211 180.599L357.135 176.336H291.39L287.315 180.599L284.5 199.141H364.026L361.211 180.599Z" fill="white"/><path id="Fill 15" fill-rule="evenodd" clip-rule="evenodd" d="M286.827 197.141H361.701L359.329 181.524L356.281 178.336H292.246L289.198 181.524L286.827 197.141ZM364.027 201.141H284.5C283.917 201.141 283.364 200.887 282.984 200.445C282.604 200.003 282.435 199.417 282.523 198.841L285.338 180.299C285.4 179.892 285.585 179.514 285.869 179.217L289.945 174.954C290.323 174.559 290.845 174.336 291.391 174.336H357.136C357.682 174.336 358.204 174.559 358.581 174.954L362.657 179.217C362.941 179.514 363.128 179.892 363.189 180.299L366.005 198.841C366.092 199.417 365.924 200.003 365.544 200.445C365.164 200.887 364.61 201.141 364.027 201.141V201.141Z" fill="#141414"/></g><g id="Assets 107"><path id="SKIN_3" fill-rule="evenodd" clip-rule="evenodd" d="M335.99 243.783C336.211 239.904 332.673 238.417 329.191 239.046C339.042 234.969 338.719 222.65 324.727 226.187C324.729 226.186 324.732 226.185 324.734 226.184H324.732C331.935 223.459 331.147 214.578 323.091 215.373C310.761 217.504 301.664 218.104 290.95 217.054C291.679 193.491 280.17 215.56 263.12 221.047L262.932 221.54C248.397 228.07 207.624 245.442 153.624 263.592C151.615 263.327 136.191 260.823 130.728 259.256C123.711 257.41 117.032 255.024 111.84 251.946C110.386 251.192 108.974 250.4 107.607 249.566C104.374 258.825 84.594 332.9 131.356 343.263C145.707 348.032 171.875 338.544 171.875 338.544C205.045 325.74 234.936 292.108 258.805 274.738C265.557 270.294 273.107 267.154 281.257 267.496C314.49 268.896 324.104 265.109 329.731 259.482C333.057 256.156 329.971 252.23 325.681 252.368C325.681 252.368 335.703 248.833 335.99 243.783" fill="white"/><path id="Fill 19" fill-rule="evenodd" clip-rule="evenodd" d="M337.941 242.794C337.842 240.807 336.465 238.696 334.592 237.837C340.033 233.094 338.735 223.752 330.57 223.808C333.529 219.743 330.135 213.874 325.373 213.481C322.038 213.227 318.878 214.376 315.598 214.643C307.991 215.701 300.354 216.035 292.707 215.372C292.533 203.282 289.202 201.603 279.607 209.02C276.197 211.512 273.054 214.196 269.407 216.183C259.577 221.258 249.218 225.276 238.944 229.384C212.413 239.76 174.485 254.125 147.349 262.812C147.349 262.812 133.603 267.176 126.97 269.213C125.041 269.793 125.733 272.987 127.928 272.354C170.52 259.072 224.025 240.054 264.899 222.071C270.947 219.562 276.48 215.683 281.611 211.753C283.715 210.366 285.816 208.451 288.226 208.049C289.039 210.894 289.011 214.109 289.134 217.072C289.141 217.988 289.841 218.772 290.774 218.863C301.284 219.993 311.942 219.193 322.324 217.403C328.166 216.029 330.098 221.533 324.446 224.192C318.9 226.813 312.614 228.049 306.514 228.765C305.745 228.853 305.168 229.527 305.211 230.31C305.509 232.848 309.787 231.182 311.5 231.295C316.345 230.703 321.144 229.986 325.673 227.951C328.107 227.609 333.114 226.713 333.915 229.681C334.798 233.559 330.894 236.146 327.883 237.592C321.411 239.804 314.483 240.801 307.708 241.701C305.738 241.949 306.035 244.961 308.032 244.799C315.621 244.051 323.212 243.387 330.484 240.869C333.01 240.682 334.927 242.425 333.629 244.833C332.949 246.012 331.507 247.169 329.978 248.1C323.566 252.073 315.575 251.761 308.324 253.118C306.337 253.391 306.666 256.411 308.669 256.247C314.466 255.73 320.11 255.271 325.906 254.368C327.906 254.338 330.077 255.864 328.686 257.652C319.005 268.076 295.281 265.802 281.837 265.767C271.065 265.296 260.849 270.598 252.805 277.328C224.752 300.991 185.183 342.027 144.584 342.369C131.264 342.526 116.191 338.396 109.618 325.744C95.7329 301.431 107.923 257.191 109.786 250.838C108.587 250.167 107.409 249.476 106.276 248.746C106.284 248.709 106.291 248.675 106.298 248.639C106.264 248.714 106.226 248.786 106.201 248.867C105.547 250.946 90.3699 300.097 106.141 327.723C113.289 341.51 129.683 346.577 144.329 346.335C187.471 345.517 227.296 304.293 255.548 280.082C263.913 273.771 273.856 268.677 284.586 269.893C284.586 269.892 287.501 269.98 287.501 269.98C300.227 270.109 313.716 270.588 325.538 265.048C330.238 262.641 336.578 257.071 330.965 252.118C334.177 250.358 338.414 247.22 337.941 242.794" fill="#141414"/></g><path id="Fill 21" fill-rule="evenodd" clip-rule="evenodd" d="M382.537 311.791C384.174 325.407 393.438 379.759 395.702 393.25L395.703 393.255C395.886 394.344 395.15 395.376 394.061 395.559C392.972 395.741 391.94 395.007 391.758 393.917C391.757 393.913 391.755 393.899 391.754 393.895C389.632 380.299 380.975 325.784 379.492 312.139C376.527 284.85 373.82 257.543 371.294 230.211C371.24 229.625 371.671 229.107 372.257 229.052C372.839 228.999 373.354 229.428 373.415 230.007C376.249 257.289 379.266 284.56 382.537 311.791Z" fill="#141414"/></g></g><g id="Head" transform="translate(439 92) scale(1 1)"><g id="Head/Curly Hair Long"><g id="Curly Hair Long"><path id="SKIN" fill-rule="evenodd" clip-rule="evenodd" d="M153.875 97.7733C147.878 48.0333 112.87 44.9124 89.2521 49.2074C70.4301 52.6294 46.3511 68.1903 48.4821 99.4973C39.0581 96.4383 32.1761 102.167 30.9531 109.614C29.5651 118.065 34.0011 132.36 47.9541 129.898C49.2981 152.893 70.2121 186.277 115.859 182.936C150.424 180.406 159.334 143.047 153.875 97.7733" fill="white"/><path id="Combined Shape" fill-rule="evenodd" clip-rule="evenodd" d="M49.2871 128.769C51.6009 139.856 54.7442 154.918 68.8164 166.826C85.6344 182.142 123.644 189.274 140.73 168.541C153.086 155.272 156.595 119.805 150.427 89.3065C148.902 85.732 146.586 82.9863 144.434 80.4342C142.032 77.5851 139.833 74.9774 139.163 71.7275C125.063 76.3825 105.947 75.5485 98.3704 60.1505C98.3704 64.2245 87.0424 78.1615 70.3764 76.6795C70.3764 76.6795 73.2924 84.9155 67.4594 94.5245C59.997 104.158 54.4122 102.823 48.9805 101.526C45.4084 100.672 41.9025 99.8343 37.9724 102.142C30.5004 106.846 31.4864 118.944 37.2684 125.16C39.8844 127.746 43.3654 128.677 47.6054 127.928C48.1644 127.83 48.7454 127.974 49.1954 128.329C49.2259 128.475 49.2564 128.622 49.2871 128.769ZM153.646 62.3535C167.867 67.9175 167.074 96.9695 163.763 96.9695C173.357 99.3945 171.653 116.901 165.584 117.453C174.962 125.176 173.497 151.759 164.978 154.351C190.41 205.769 122.578 220.611 126.836 182.806C109.949 187.92 88.9084 184.658 74.6984 176.033C75.0833 182.076 72.5321 188.873 71.0157 192.913C70.9559 193.072 70.8977 193.227 70.8414 193.377C62 217 8.00002 217 -3.99999 195C-16 173 -10.9866 155.867 2.31641 147.465C-16.2376 134.163 -12.7366 104.407 5.25041 100.943C-2.58059 79.7935 4.17041 57.1915 27.5994 59.0775C27.4804 33.7935 48.6504 22.6445 67.0814 26.1815C69.2454 14.1245 98.9244 11.0325 105.417 23.3985C136.778 11.5535 159.196 41.1565 153.646 62.3535ZM43.4957 115.127C42.7447 116.195 41.9647 117.303 41.0123 117.133C37.4413 116.493 39.8703 109.646 42.3203 107.822C47.0173 104.72 49.5523 109.912 44.7823 113.584C44.345 113.92 43.9251 114.517 43.4957 115.127Z" fill="#141414"/></g></g></g><g id="Face" transform="translate(499 178) scale(1 1)"><g id="Face/Grinning"><g id="grinning"><path id="face" fill-rule="evenodd" clip-rule="evenodd" d="M70.6572 13.1827C67.4944 12.5308 64.3252 11.8776 61.1045 12.8692C55.3895 11.1662 65.1065 7.43218 67.3785 8.07318C70.2865 7.40518 79.5305 11.7002 73.2735 13.6872C72.4012 13.5421 71.5295 13.3625 70.6572 13.1827ZM78.2569 27.629C82.4909 23.371 71.7619 18.207 68.0579 19.213C64.4589 19.335 56.6799 23.636 58.1689 27.599C58.7469 28.154 59.6659 28.137 60.2219 27.559C64.0379 22.72 72.0709 21.546 75.7659 26.983C76.3129 27.773 77.3679 28.066 78.2569 27.629ZM52.2144 40.8005C63.1074 44.9485 59.0084 57.4945 47.9304 56.2355C45.3594 56.2665 45.3464 52.2245 47.9124 52.2355C50.0754 52.1835 53.3144 51.9015 54.2664 50.0175C55.1331 46.9815 53.3318 46.0069 51.4877 45.0092C49.9849 44.1961 48.4536 43.3675 48.3144 41.3955C47.9124 39.5215 45.9714 18.9115 50.5804 25.7495C50.7067 27.1148 50.8067 28.4915 50.9069 29.8709V29.8709C51.1741 33.549 51.4428 37.2464 52.2144 40.8005ZM29.3635 32.0245C28.6765 31.2305 27.7095 30.6935 26.5635 30.5235C22.2194 29.9714 20.4519 32.9953 19.0497 35.3941C18.0465 37.1103 17.2303 38.5066 15.7915 38.0445C13.5987 36.7511 15.254 34.1465 16.4831 32.2126L16.4831 32.2126C16.7393 31.8094 16.977 31.4354 17.1575 31.1085C19.3685 28.0755 23.0895 25.9165 27.0185 26.2885C35.0425 26.9145 34.4645 34.8245 29.3635 32.0245ZM20.9268 17.044C21.4479 16.875 22.0847 16.8894 22.7267 16.9038C23.9006 16.9303 25.0917 16.9572 25.6238 15.864C25.3928 11.079 12.1038 13.267 9.65679 15.986C8.25179 17.074 9.27579 19.54 11.0728 19.244C12.5781 19.0282 14.059 18.6137 15.5425 18.1985L15.5425 18.1985C17.3181 17.7016 19.0974 17.2036 20.9268 17.044ZM68.809 73.8319C69.393 73.4209 69.947 72.9889 70.419 72.5069C73.718 68.7009 72.336 65.4609 67.147 66.6029C67.833 68.9829 68.379 71.3939 68.809 73.8319ZM62.78 76.7049C63.527 76.4559 64.268 76.1929 64.989 75.8969C65.745 75.5799 66.477 75.2189 67.185 74.8339C66.444 72.2039 65.857 69.5389 65.434 66.8389C63.973 67.0739 62.469 67.3689 60.985 67.6869C61.1842 68.4777 61.4451 69.2861 61.7091 70.1043C62.4126 72.2844 63.1385 74.5337 62.78 76.7049ZM44.95 79.2069C47.159 79.2329 49.374 79.1409 51.572 78.9509C51.8318 78.9255 52.0928 78.8958 52.3531 78.8661C52.4215 78.8584 52.4898 78.8506 52.558 78.8429C51.357 76.0159 51.111 72.6759 51.345 69.6249C49.296 69.9759 47.223 70.2769 45.141 70.4559C45.252 73.3769 45.26 76.2979 44.95 79.2069ZM37.442 70.5189C37.586 70.6949 36.808 78.2129 36.698 78.4819C38.759 78.8539 40.843 79.0539 42.943 79.1529C42.838 76.2889 43.05 73.4359 43.353 70.5889C41.399 70.7019 39.422 70.6969 37.442 70.5189ZM27.315 68.7919C25.53 70.6789 25.746 74.2899 28.207 75.5929C29.821 76.6959 31.863 77.3689 33.797 77.8679C33.8142 77.8186 33.8793 77.1022 33.9682 76.1238C34.1716 73.8848 34.4997 70.2735 34.6643 70.1417C34.6699 70.1415 34.6754 70.1412 34.681 70.1409C34.6756 70.1368 34.6701 70.1371 34.6643 70.1417C33.7366 70.1858 32.5825 69.7182 31.4396 69.2552C29.8143 68.5967 28.2117 67.9473 27.315 68.7919ZM54.0139 74.5885C54.0446 75.2468 54.0751 75.9016 54.139 76.5409C54.1355 76.7181 54.1441 76.894 54.1528 77.0699C54.1786 77.595 54.2044 78.1201 53.907 78.6789C56.246 78.3699 58.565 77.9269 60.807 77.3069C59.3388 75.7116 59.0629 73.3112 58.7983 71.0091C58.688 70.0498 58.5798 69.1076 58.388 68.2479C56.628 68.6249 54.85 68.9839 53.055 69.3169C53.8436 70.9353 53.9294 72.7754 54.0139 74.5885ZM54.4814 64.788C62.3454 63.0286 69.7569 61.3704 74.391 64.3989C87.643 88.2899 2.60299 87.6909 27.085 65.0299C28.6115 64.483 30.069 65.0657 31.4619 65.6225C31.5107 65.642 31.5594 65.6615 31.608 65.6809C38.0862 68.456 46.5159 66.5701 54.4814 64.788Z" fill="#141414"/><path id="dots" fill-rule="evenodd" clip-rule="evenodd" d="M70.0977 34.2286C68.6007 34.2416 68.6217 36.5646 70.1177 36.5516C71.6157 36.5396 71.5927 34.2156 70.0977 34.2286ZM31.3145 43.7022C33.3295 42.7622 31.8725 39.6282 29.8535 40.5692C27.8375 41.5102 29.2945 44.6432 31.3145 43.7022ZM23.5801 45.4024C25.0581 44.7134 23.9891 42.4154 22.5091 43.1054C21.0301 43.7954 22.0991 46.0924 23.5801 45.4024ZM26.7139 50.2315C24.2739 51.3705 26.0379 55.1655 28.4839 54.0245C30.9239 52.8865 29.1589 49.0905 26.7139 50.2315ZM19.0088 51.3682C17.6668 48.1582 13.3718 53.1872 17.2638 53.8472C18.8638 54.4342 19.8498 52.6372 19.0088 51.3682ZM69.461 45.6202C71.935 45.5992 71.898 41.7632 69.429 41.7832C66.956 41.8052 66.992 45.6412 69.461 45.6202ZM76.253 39.6846C76.059 41.0656 77.582 42.1646 78.675 41.0466C81.635 38.9666 76.097 36.4986 76.253 39.6846ZM63.0196 35.0274C60.9776 35.0454 61.0076 38.2134 63.0456 38.1954C65.0886 38.1784 65.0586 35.0104 63.0196 35.0274Z" fill="#FF4B33"/></g></g></g><g id="Accessories" transform="translate(491 176) scale(103 60)"><g id="Accessories/None" stroke="none" stroke-width="1" fill="none" fill-rule="evenodd" fill-opacity="0"/></g><g id="Facial Hair" transform="translate(501 234) scale(90 60)"><g id="Facial Hair/None" stroke="none" stroke-width="1" fill="none" fill-rule="evenodd" fill-opacity="0"/></g></g></g><g id="Seat" transform="translate(262 868) scale(1.0636493535004845 1.0636493389423076)"><g id="Seat/Bench"><g id="Chair"><path id="Fill 1" fill-rule="evenodd" clip-rule="evenodd" d="M173.653 399.414L108.762 632H136.543L231.465 399.414H173.653Z" fill="#FF4B33"/><path id="Fill 2" fill-rule="evenodd" clip-rule="evenodd" d="M440.148 399.414L545.266 632.414H563.032L499.369 399.414H440.148Z" fill="#FF4B33"/><path id="Path" fill-rule="evenodd" clip-rule="evenodd" d="M501.255 402.388H167.24C166.397 402.388 165.644 401.859 165.358 401.066C164.485 398.64 77.5138 157.125 34.8978 37.8012C30.3708 25.1252 34.1008 14.2822 44.3998 10.1762C63.0888 2.7292 105.054 18.8112 138.099 93.6882L220.811 307.133H501.255C502.359 307.133 503.255 308.029 503.255 309.133V400.388C503.255 401.492 502.359 402.388 501.255 402.388" fill="#141414"/><path id="Path_2" fill-rule="evenodd" clip-rule="evenodd" d="M168.647 398.388H499.256V311.133H219.442C218.616 311.133 217.876 310.625 217.577 309.856L134.405 95.2192C104.229 26.8452 64.4705 6.4802 45.8825 13.8922C37.6355 17.1802 34.8705 25.8262 38.6665 36.4552C79.6395 151.18 161.617 378.865 168.647 398.388" fill="white"/></g></g></g><g id="Master/Character/Sitting" transform="translate(53.0586 500) scale(1 1)"><g id="Master/Character/Sitting"><g id="Lower Body Sit" transform="translate(264 454) scale(1 1)"><g id="Lower Body Sit/Sitting Chill"><g id="Sitting"><g id="Assets 40"><path id="SKIN" fill-rule="evenodd" clip-rule="evenodd" d="M587.587 480.917L624.608 545.487L695.204 537.739L663.35 457.672" fill="white"/><path id="Fill 2" fill-rule="evenodd" clip-rule="evenodd" d="M624.606 547.487C623.896 547.487 623.231 547.108 622.872 546.482L585.851 481.912C585.302 480.953 585.633 479.731 586.591 479.181C587.55 478.633 588.772 478.965 589.322 479.922L625.691 543.356L692.375 536.038L661.491 458.411C661.083 457.384 661.584 456.221 662.61 455.813C663.635 455.404 664.8 455.905 665.208 456.932L697.062 537C697.293 537.58 697.24 538.234 696.918 538.769C696.596 539.304 696.043 539.659 695.421 539.727L624.825 547.475C624.752 547.483 624.679 547.487 624.606 547.487" fill="#141414"/><path id="Fill 22" fill-rule="evenodd" clip-rule="evenodd" d="M613.36 538.133C613.523 537.097 614.459 536.363 615.505 536.451C616.501 536.536 617.761 536.66 619.248 536.805C628.35 537.696 647.292 539.55 664.928 537.928C664.944 537.927 664.958 537.925 664.973 537.924C675.362 536.959 684.234 533.269 689.958 527.531C690.412 527.075 691.058 526.868 691.696 526.97C722.695 532.04 745.091 535.703 762.302 545.008C765.327 546.644 776.369 553.983 775.136 560.013C774.566 562.802 771.768 564.448 766.82 564.907C748.753 566.584 709.839 570.298 675.506 573.575C647.725 576.228 623.734 578.518 614.699 579.356C613.745 579.445 612.842 579.092 612.159 578.363C608.176 574.116 611.672 548.814 613.36 538.133" fill="#ff8333"/><path id="Fill 24" fill-rule="evenodd" clip-rule="evenodd" d="M615.877 588.092L772.042 573.596C774.638 573.355 776.546 571.056 776.305 568.461L776.161 566.907C775.92 564.313 773.621 562.404 771.025 562.645L614.86 577.141C612.266 577.381 610.356 579.681 610.598 582.276L610.742 583.829C610.982 586.424 613.282 588.332 615.877 588.092" fill="#141414"/><path id="Fill 27" fill-rule="evenodd" clip-rule="evenodd" d="M724.455 542.853C725.246 542.78 725.964 542.263 726.256 541.467C728.931 534.181 735.473 535.296 736.21 535.45C737.355 535.683 738.482 534.952 738.726 533.808C738.967 532.664 738.246 531.54 737.103 531.29C733.376 530.477 725.476 531.252 722.264 540.002C721.858 541.105 722.424 542.327 723.526 542.731C723.833 542.844 724.149 542.881 724.455 542.853" fill="#141414"/><path id="Fill 29" fill-rule="evenodd" clip-rule="evenodd" d="M705.281 539.489C706.072 539.415 706.79 538.899 707.082 538.103C709.758 530.817 716.3 531.932 717.036 532.086C718.181 532.32 719.308 531.587 719.551 530.443C719.793 529.3 719.071 528.176 717.928 527.926C714.199 527.114 706.3 527.89 703.09 536.638C702.684 537.741 703.25 538.963 704.353 539.367C704.66 539.479 704.975 539.517 705.281 539.489" fill="#141414"/></g><g id="Assets 41"><path id="Fill 4" fill-rule="evenodd" clip-rule="evenodd" d="M389.933 125.891C389.933 125.891 543.269 107.413 587.843 180.266C623.611 238.724 715.555 449.591 712.663 455.995C702.847 477.73 610.713 498.535 550.308 492.261C550.308 492.261 483.616 177.416 389.933 125.891" fill="#141414"/><g id="Combined Shape"><path fill-rule="evenodd" clip-rule="evenodd" d="M547.898 308.719C548.939 308.34 550.083 308.878 550.461 309.915C551.398 312.491 552.362 315.151 553.353 317.883L553.883 319.344C554.259 320.383 553.722 321.529 552.684 321.905C552.458 321.987 552.229 322.026 552.002 322.026C551.184 322.026 550.416 321.52 550.121 320.707C548.946 317.462 547.804 314.314 546.701 311.282C546.324 310.244 546.859 309.097 547.898 308.719ZM572.811 372.186C573.926 375.342 575.042 378.503 576.151 381.657C576.517 382.699 575.97 383.842 574.928 384.208C574.709 384.285 574.485 384.322 574.264 384.322C573.439 384.322 572.667 383.807 572.378 382.985C571.268 379.833 570.155 376.674 569.04 373.52C568.672 372.478 569.217 371.336 570.258 370.968C571.299 370.598 572.443 371.145 572.811 372.186ZM580.129 393.016C581.237 396.196 582.336 399.357 583.419 402.487C583.78 403.531 583.228 404.67 582.184 405.031C581.967 405.106 581.746 405.142 581.529 405.142C580.7 405.142 579.926 404.623 579.64 403.796C578.557 400.668 577.46 397.51 576.352 394.333C575.988 393.29 576.539 392.15 577.582 391.786C578.624 391.421 579.765 391.973 580.129 393.016ZM590.563 423.367C589.512 420.26 588.435 417.089 587.334 413.87C586.976 412.824 585.839 412.268 584.793 412.625C583.749 412.982 583.191 414.12 583.548 415.165C584.648 418.38 585.725 421.545 586.774 424.648C587.056 425.482 587.834 426.009 588.668 426.009C588.88 426.009 589.096 425.974 589.309 425.902C590.355 425.549 590.917 424.414 590.563 423.367ZM597.519 444.329C596.523 441.262 595.476 438.075 594.387 434.789C594.04 433.741 592.908 433.17 591.86 433.519C590.811 433.867 590.243 434.999 590.59 436.047C591.677 439.325 592.72 442.504 593.714 445.565C593.989 446.41 594.773 446.948 595.617 446.948C595.821 446.948 596.029 446.916 596.235 446.85C597.285 446.509 597.86 445.38 597.519 444.329ZM607.871 479.763C607.706 478.97 607.512 478.106 607.289 477.174C607.032 476.1 605.952 475.443 604.879 475.694C603.805 475.95 603.142 477.03 603.398 478.104C603.611 478.994 603.798 479.82 603.955 480.577C604.151 481.522 604.983 482.17 605.911 482.17C606.046 482.17 606.183 482.157 606.32 482.128C607.401 481.904 608.096 480.845 607.871 479.763ZM604.103 465.456C603.254 462.565 602.27 459.324 601.178 455.821C600.849 454.766 599.728 454.18 598.674 454.507C597.62 454.835 597.031 455.956 597.36 457.011C598.445 460.493 599.422 463.714 600.265 466.583C600.521 467.455 601.319 468.02 602.183 468.02C602.37 468.02 602.56 467.994 602.748 467.938C603.807 467.627 604.415 466.516 604.103 465.456ZM565.428 351.423C565.056 350.382 563.907 349.839 562.871 350.213C561.831 350.584 561.289 351.729 561.66 352.769C562.776 355.888 563.9 359.037 565.028 362.207C565.319 363.026 566.089 363.537 566.911 363.537C567.134 363.537 567.361 363.499 567.582 363.42C568.622 363.05 569.166 361.906 568.795 360.865C567.667 357.695 566.543 354.544 565.428 351.423ZM555.413 329.459C556.453 329.087 557.599 329.624 557.974 330.662C559.087 333.75 560.221 336.899 561.37 340.098C561.744 341.137 561.203 342.282 560.163 342.655C559.941 342.736 559.712 342.774 559.488 342.774C558.667 342.774 557.899 342.266 557.606 341.449C556.457 338.253 555.324 335.105 554.21 332.019C553.836 330.98 554.374 329.834 555.413 329.459Z" fill="white" style="mix-blend-mode:overlay"/></g></g><g id="Assets 42"><path id="SKIN_2" fill-rule="evenodd" clip-rule="evenodd" d="M396.636 495.605L390.196 546.252L460.702 552.125L476.811 502.996" fill="white"/><path id="Fill 8" fill-rule="evenodd" clip-rule="evenodd" d="M460.703 554.125C460.647 554.125 460.592 554.123 460.536 554.118L390.029 548.246C389.485 548.201 388.984 547.936 388.64 547.512C388.298 547.088 388.142 546.542 388.211 546.001L394.651 495.354C394.791 494.256 395.811 493.481 396.888 493.621C397.983 493.761 398.759 494.762 398.62 495.857L392.442 544.434L459.294 550.001L474.91 502.373C475.254 501.324 476.381 500.75 477.433 501.096C478.483 501.439 479.055 502.569 478.711 503.619L462.602 552.748C462.332 553.575 461.56 554.125 460.703 554.125" fill="#141414"/><path id="Fill 10" fill-rule="evenodd" clip-rule="evenodd" d="M387.312 543.515C387.57 542.498 388.57 541.855 389.603 542.039C390.586 542.216 391.831 542.455 393.296 542.738C402.278 544.466 420.967 548.063 438.678 548.077H438.723C449.157 548.077 458.333 545.223 464.561 540.038C465.056 539.626 465.718 539.48 466.344 539.64C496.742 547.554 518.705 553.272 534.981 564.127C537.841 566.036 548.158 574.364 546.374 580.254C545.548 582.978 542.61 584.359 537.64 584.359C519.496 584.359 480.405 584.46 445.916 584.55C418.009 584.623 393.909 584.686 384.835 584.686C383.876 584.686 383.011 584.251 382.398 583.462C378.825 578.866 384.644 553.994 387.312 543.515" fill="#ff8333"/><path id="Fill 12" fill-rule="evenodd" clip-rule="evenodd" d="M385.2 593.494H542.036C544.642 593.494 546.756 591.381 546.756 588.774V587.215C546.756 584.608 544.642 582.495 542.036 582.495H385.2C382.594 582.495 380.48 584.608 380.48 587.215V588.774C380.48 591.381 382.594 593.494 385.2 593.494" fill="#141414"/><path id="Fill 15" fill-rule="evenodd" clip-rule="evenodd" d="M497.495 558.483C498.29 558.483 499.052 558.036 499.416 557.27C502.753 550.262 509.164 551.977 509.885 552.198C511.003 552.537 512.192 551.912 512.54 550.796C512.887 549.678 512.272 548.493 511.158 548.139C507.522 546.985 499.584 547.027 495.576 555.442C495.071 556.503 495.521 557.771 496.582 558.276C496.877 558.417 497.188 558.483 497.495 558.483" fill="#141414"/><path id="Fill 17" fill-rule="evenodd" clip-rule="evenodd" d="M478.714 553.361C479.509 553.361 480.272 552.914 480.636 552.148C483.973 545.14 490.384 546.855 491.104 547.076C492.223 547.416 493.412 546.79 493.759 545.674C494.106 544.556 493.491 543.371 492.377 543.017C488.737 541.864 480.801 541.907 476.796 550.32C476.291 551.381 476.741 552.649 477.802 553.154C478.097 553.295 478.407 553.361 478.714 553.361" fill="#141414"/></g><g id="Assets 43"><path id="Fill 19" fill-rule="evenodd" clip-rule="evenodd" d="M161.996 120C161.996 120 139.142 194.987 178.881 246.245C208.262 284.141 322.335 294.315 398.104 270.631C399.408 266.749 403.664 253.773 407.498 238.711C407.771 237.641 408.86 236.994 409.93 237.266C411 237.539 411.647 238.627 411.375 239.697C407.747 253.949 403.743 266.354 402.17 271.083L335.189 481.201C383.628 505.597 434.794 520.234 501.493 517.076C501.493 517.076 522.75 428.853 536.031 348.861C550.413 262.245 601.741 122 429.829 122L161.996 120Z" fill="#0B379B"/><g id="Combined Shape_2"><path fill-rule="evenodd" clip-rule="evenodd" d="M254.558 127.149C255.609 126.817 256.732 127.401 257.065 128.454C257.166 128.773 266.355 158.94 242.728 170.868C244.454 171.663 246.239 172.414 248.085 173.102C249.12 173.487 249.646 174.639 249.26 175.674C248.961 176.479 248.197 176.976 247.386 176.976C247.154 176.976 246.918 176.936 246.688 176.85C243.391 175.622 240.244 174.216 237.336 172.671C237.104 172.548 236.909 172.384 236.75 172.196C236.504 171.981 236.294 171.72 236.175 171.392C235.798 170.354 236.334 169.206 237.372 168.829C247.803 165.037 253.661 157.392 254.782 146.106C255.645 137.422 253.274 129.733 253.25 129.657C252.919 128.603 253.505 127.48 254.558 127.149ZM211.851 135.592C212.955 135.515 213.911 136.329 213.998 137.428C214.004 137.499 214.342 141.22 216.652 146.351C217.105 147.359 216.656 148.543 215.649 148.996C215.382 149.116 215.103 149.173 214.829 149.173C214.066 149.173 213.338 148.734 213.004 147.993C210.374 142.15 210.024 137.917 210.01 137.74C209.926 136.638 210.75 135.677 211.851 135.592ZM259.319 176.468C262.386 177.189 265.631 177.804 268.965 178.298C270.058 178.46 270.812 179.477 270.651 180.569C270.504 181.563 269.65 182.277 268.674 182.277C268.577 182.277 268.478 182.27 268.379 182.255C264.935 181.745 261.579 181.108 258.404 180.361C257.329 180.109 256.662 179.032 256.915 177.957C257.167 176.881 258.248 176.215 259.319 176.468ZM229.545 162.772C227.008 160.702 224.713 158.435 222.727 156.034C222.023 155.183 220.761 155.064 219.911 155.768C219.06 156.473 218.941 157.733 219.645 158.584C221.797 161.186 224.278 163.638 227.017 165.872C227.388 166.174 227.835 166.322 228.28 166.322C228.86 166.322 229.435 166.071 229.831 165.586C230.529 164.73 230.401 163.47 229.545 162.772ZM280.745 179.549C283.957 179.792 287.303 180.015 290.691 180.212C291.794 180.276 292.636 181.222 292.571 182.325C292.509 183.388 291.628 184.209 290.577 184.209C290.538 184.209 290.498 184.208 290.459 184.205C287.047 184.006 283.678 183.782 280.443 183.537C279.342 183.454 278.517 182.494 278.6 181.392C278.683 180.292 279.633 179.46 280.745 179.549ZM356.521 181.199C353.555 181.266 350.205 181.325 346.542 181.367C345.437 181.38 344.551 182.286 344.564 183.39C344.577 184.487 345.469 185.367 346.564 185.367H346.586C350.267 185.325 353.631 185.265 356.611 185.198C357.715 185.173 358.59 184.258 358.565 183.154C358.541 182.049 357.622 181.155 356.521 181.199ZM324.584 181.361C328.03 181.404 331.366 181.425 334.563 181.429C335.667 181.43 336.561 182.327 336.56 183.431C336.559 184.535 335.664 185.429 334.56 185.429H334.558C331.346 185.425 327.995 185.404 324.535 185.361C323.43 185.347 322.545 184.441 322.559 183.336C322.573 182.24 323.465 181.361 324.558 181.361H324.584ZM312.613 181.127C309.264 181.038 305.91 180.926 302.644 180.795C301.558 180.757 300.61 181.61 300.566 182.714C300.522 183.817 301.381 184.748 302.484 184.793C305.768 184.924 309.14 185.036 312.507 185.126C312.525 185.127 312.543 185.127 312.561 185.127C313.64 185.127 314.53 184.266 314.559 183.18C314.589 182.076 313.717 181.157 312.613 181.127ZM402.478 379.923C401.407 379.636 400.315 380.271 400.029 381.337C399.162 384.571 398.293 387.799 397.424 391.009C397.136 392.075 397.766 393.173 398.832 393.462C399.007 393.509 399.183 393.532 399.356 393.532C400.238 393.532 401.044 392.945 401.286 392.054C402.155 388.84 403.025 385.61 403.892 382.372C404.178 381.306 403.545 380.209 402.478 379.923ZM411.267 338.698C411.543 337.629 412.631 336.985 413.705 337.265C414.774 337.542 415.416 338.634 415.138 339.703C414.307 342.905 413.464 346.142 412.61 349.406C412.376 350.305 411.565 350.901 410.677 350.901C410.51 350.901 410.34 350.879 410.17 350.834C409.101 350.556 408.462 349.463 408.741 348.394C409.593 345.132 410.435 341.897 411.267 338.698ZM408.133 358.6C407.068 358.319 405.971 358.958 405.69 360.026C404.844 363.24 403.99 366.467 403.133 369.697C402.849 370.764 403.485 371.86 404.552 372.143C404.724 372.189 404.897 372.21 405.067 372.21C405.951 372.21 406.761 371.62 406.998 370.724C407.858 367.491 408.711 364.261 409.559 361.043C409.839 359.976 409.201 358.881 408.133 358.6ZM416.774 317.349C417.049 316.279 418.141 315.634 419.208 315.908C420.278 316.182 420.924 317.272 420.649 318.342C419.836 321.516 419.002 324.758 418.152 328.054C417.92 328.956 417.107 329.554 416.217 329.554C416.052 329.554 415.884 329.534 415.717 329.491C414.646 329.216 414.003 328.125 414.279 327.055C415.129 323.762 415.961 320.522 416.774 317.349ZM424.655 294.527C423.577 294.253 422.496 294.904 422.225 295.974C421.433 299.098 420.608 302.343 419.755 305.691C419.482 306.761 420.129 307.85 421.199 308.124C421.365 308.166 421.531 308.185 421.694 308.185C422.587 308.185 423.4 307.584 423.632 306.679C424.485 303.33 425.31 300.083 426.102 296.957C426.374 295.886 425.726 294.798 424.655 294.527ZM427.623 274.569C427.893 273.498 428.982 272.853 430.05 273.115C431.121 273.384 431.773 274.47 431.504 275.542C430.752 278.539 429.934 281.797 429.055 285.281C428.825 286.188 428.011 286.792 427.117 286.792C426.955 286.792 426.79 286.772 426.626 286.731C425.555 286.461 424.906 285.374 425.176 284.303C426.055 280.82 426.873 277.564 427.623 274.569ZM435.395 251.62C434.324 251.356 433.238 252.01 432.973 253.083C432.973 253.085 432.098 256.639 430.544 262.881C430.277 263.953 430.93 265.038 432.001 265.305C432.163 265.346 432.326 265.365 432.486 265.365C433.382 265.365 434.199 264.757 434.424 263.848C435.981 257.598 436.859 254.04 436.859 254.04C437.122 252.968 436.466 251.884 435.395 251.62ZM394.269 402.609C394.56 401.544 395.661 400.913 396.726 401.209C397.791 401.501 398.418 402.601 398.126 403.666C397.235 406.923 396.345 410.149 395.461 413.334C395.216 414.22 394.412 414.801 393.536 414.801C393.359 414.801 393.179 414.776 393 414.727C391.936 414.432 391.312 413.33 391.608 412.266C392.49 409.085 393.377 405.862 394.269 402.609ZM371.109 485.653C370.093 485.22 368.919 485.696 368.487 486.713C367.844 488.224 367.255 489.482 366.737 490.452C366.215 491.425 366.582 492.637 367.555 493.159C367.856 493.32 368.179 493.396 368.498 493.396C369.212 493.396 369.902 493.013 370.262 492.34C370.838 491.265 371.48 489.898 372.169 488.275C372.6 487.258 372.127 486.085 371.109 485.653ZM375.817 466.077C376.155 465.025 377.277 464.444 378.332 464.783C379.384 465.12 379.964 466.246 379.626 467.298C378.505 470.794 377.437 474.013 376.452 476.869C376.166 477.697 375.391 478.218 374.561 478.218C374.346 478.218 374.125 478.181 373.909 478.107C372.865 477.747 372.311 476.608 372.671 475.564C373.646 472.736 374.705 469.545 375.817 466.077ZM390.836 422.462C389.774 422.166 388.669 422.781 388.368 423.844C387.443 427.12 386.528 430.334 385.626 433.477C385.32 434.538 385.934 435.646 386.996 435.95C387.181 436.004 387.366 436.029 387.549 436.029C388.418 436.029 389.218 435.458 389.47 434.58C390.374 431.433 391.291 428.212 392.218 424.93C392.518 423.867 391.899 422.762 390.836 422.462ZM382.268 445.018C382.58 443.959 383.691 443.355 384.752 443.666C385.812 443.978 386.417 445.091 386.104 446.15C385.121 449.479 384.158 452.693 383.221 455.774C382.959 456.637 382.166 457.193 381.309 457.193C381.115 457.193 380.92 457.165 380.726 457.105C379.669 456.784 379.073 455.667 379.395 454.61C380.328 451.539 381.287 448.335 382.268 445.018Z" fill="white" fill-opacity="0.8" style="mix-blend-mode:overlay"/></g></g></g></g></g><g id="Upper Body" transform="translate(272 187) scale(1 1)"><g id="Upper Body/Run"><g id="Assets 110"><path id="Fill 1" fill-rule="evenodd" clip-rule="evenodd" d="M445.877 242.29C432.881 241.773 387.808 239.303 361.319 221.992C360.994 221.833 398.29 140.89 398.208 140.717L398.283 140.649C398.527 140.762 418.809 150.479 432.525 150.395C439.906 150.243 453.189 140.21 466.363 124.837C484.253 104.217 494.023 83.6679 500.072 62.1359C501.419 57.4889 502.481 51.9299 501.31 46.8839C498.151 36.5109 503.71 35.1389 511.284 40.8559C514.168 33.1749 517.45 24.9359 519.84 16.3889C521.124 10.9479 525.555 2.95189 530.927 7.26189C533.708 10.1569 532.944 18.4509 532.409 24.3229C535.968 24.5329 538.989 26.5689 539.237 30.6009C539.355 31.3559 538.38 33.6109 538.183 34.3789C539.289 34.4269 541.532 34.2939 542.568 34.5889C547.306 35.9209 548.044 40.1739 546.272 44.2309C549.307 44.0709 552.721 44.5339 554.314 47.5869C556.119 50.4209 554.645 53.2369 553.049 55.5909C553.879 55.9869 556.355 56.0279 556.963 56.8249C559.83 60.4299 558.516 65.1049 557.994 69.4589C540.635 144.025 509.525 236.861 445.877 242.29" fill="white"/><path id="Fill 3" fill-rule="evenodd" clip-rule="evenodd" d="M552.206 52.5126C549.392 55.5346 544.257 59.7046 540.343 57.2046H540.342C537.562 53.1446 544.319 47.2656 548.162 46.5786C551.065 45.9796 554.367 49.6106 552.206 52.5126M531.104 48.2586C527.98 43.2296 537.279 35.5686 542.018 36.7486C544.107 37.2366 545.669 39.5586 544.741 41.5816C543.129 44.5126 534.231 51.0906 531.104 48.2586M525.373 35.0786C524.582 32.3746 527.066 29.8326 527.573 29.3486C531.057 25.8876 536.458 25.5236 536.989 30.7846C537.09 32.0016 533.147 36.1656 528.884 36.9556C526.417 37.4116 525.737 36.3246 525.373 35.0786M560.199 58.6366C559.868 56.9696 558.264 54.5756 556.162 54.2516C559.297 49.3666 554.594 42.1166 548.965 42.2856C550.43 37.3326 545.982 32.1776 540.947 32.4016C542.173 27.9476 538.784 23.2796 534.559 22.6666C535.165 15.6486 535.381 9.15461 532.397 5.90861C527.36 1.49261 520.957 4.7136 517.911 15.8536C515.824 23.3556 512.814 31.1596 510.3 37.7956C507.215 35.4836 501.157 33.9236 499.03 38.3936C497.009 43.6836 500.859 48.9206 499.672 54.3416C494.595 79.0836 484.131 100.844 464.843 123.536C452.076 138.433 438.971 148.465 432.271 148.398C422.77 148.36 410.215 143.615 403.663 140.832C402.424 140.305 401.02 141.049 400.748 142.368C400.544 143.363 401.066 144.361 402 144.76C408.895 147.7 422.171 152.703 432.523 152.649C454.124 151.863 495.028 97.2016 502.217 62.7916C503.678 57.6296 504.696 51.8256 503.445 46.4586C503.088 44.6126 502.086 41.8146 502.775 40.1816C503.067 39.6476 503.339 39.6686 504.016 39.6446C509.607 40.4276 513.331 46.2096 514.69 51.3406C515.899 55.9336 515.602 60.9616 514.727 65.8426C514.531 66.9286 515.252 67.9696 516.339 68.1666C518.895 68.5336 518.824 65.4726 519.105 63.7106C528.732 65.8316 529.369 78.8156 528.445 81.5856C528.153 82.8286 529.17 84.0566 530.442 84.0146C533.475 84.6896 534.408 72.7406 528.304 64.9656C525.858 61.8926 522.246 60.3976 519.474 59.6606C519.875 53.0296 518.192 45.9366 513.709 40.8066C516.489 33.4316 519.686 25.3136 522.01 16.9906C523.632 11.3986 526.25 6.89561 529.266 8.78761C531.323 11.0266 530.639 18.7626 530.267 22.9376C525.72 24.4776 519.723 28.8756 521.291 36.2726C522.222 39.4556 524.564 41.2316 527.714 41.2906C524.161 47.3406 528.481 55.1856 535.877 52.5546C534.858 55.4906 535.402 58.3736 537.384 60.2606H537.383C538.774 61.6096 540.685 62.2926 542.887 62.2376C541.677 66.6286 546.486 70.5856 550.554 68.9236C552.397 68.3916 551.834 65.4566 549.898 65.6796C547.342 66.0406 546.162 64.1026 547.441 62.2216C548.861 60.1556 552.337 58.3746 554.962 58.5436C556.435 59.6346 556.223 61.8036 556.159 63.5156C546.992 124.06 515.531 195.833 488.435 219.761C473.798 233.834 457.866 240.825 442.331 239.978C433.666 239.505 391.707 236.555 367.451 223.123C366.369 222.524 365.011 222.978 364.495 224.102C364.026 225.125 364.436 226.327 365.422 226.87C390.6 240.739 433.272 243.743 442.1 244.225C507.784 243.633 540.703 150.381 558.793 74.9696C560.102 69.5326 561.415 64.3166 560.199 58.6366" fill="#141414"/></g><g id="Assets 111"><path id="Fill 6" fill-rule="evenodd" clip-rule="evenodd" d="M130.865 135.302C56.5819 174.817 6.23188 283.987 -22.2121 339.153C-39.2811 372.26 -44.2651 398.63 -46.0361 407.31C-46.8531 411.315 -47.9471 417.246 -44.5691 419.983C-42.1601 421.934 -38.8671 421.134 -37.7011 418.261C-37.7011 418.261 -39.3831 422.023 -39.8421 425.286C-40.2761 428.373 -39.0261 431.314 -36.8161 432.38C-33.4091 434.024 -30.6511 432.102 -29.2561 428.85L-30.4641 432.523C-31.8061 436.009 -30.9401 439.743 -27.3011 441.705C-24.5921 443.165 -19.9901 440.963 -18.1771 437.443C-17.5241 436.175 -15.6221 432.326 -15.6221 432.326C-16.7011 435.355 -15.3821 440.339 -12.2871 441.178C-8.28412 442.264 -5.39712 438.998 -4.18212 436.317C1.42288 423.949 10.4579 411.413 15.3799 403.028C15.3799 403.028 19.0839 412.702 21.6779 415.336C24.0949 417.79 30.0009 418.781 31.5969 409.921C32.0839 407.222 31.1839 397.1 34.2159 384.619C39.6319 362.325 66.0939 317.796 90.1349 288.218C128.1 241.508 163.851 226.349 163.851 226.349L130.865 135.302Z" fill="white"/><path id="Fill 8" fill-rule="evenodd" clip-rule="evenodd" d="M161.63 227.605C161.163 226.432 159.792 225.918 158.672 226.501C154.704 228.565 148.217 232.251 140.008 238.028C127.414 246.89 108.252 262.559 88.4857 286.876C63.1947 317.994 37.3967 362.524 32.1507 384.117C29.9217 393.295 29.7657 401.2 29.6727 405.923C29.6407 407.545 29.6137 408.947 29.5057 409.543C28.9757 412.488 27.8857 414.357 26.4377 414.804C25.2817 415.162 23.9317 414.591 23.1947 413.844C21.5347 412.158 18.7387 405.848 17.3677 402.267C17.0757 401.504 16.3717 400.976 15.5567 400.909C14.7337 400.841 13.9617 401.247 13.5477 401.951C12.0677 404.472 10.1687 407.44 8.15768 410.583C3.56168 417.764 -2.15832 426.701 -6.11732 435.439C-6.33232 435.914 -8.32132 440.051 -11.7283 439.126C-12.4293 438.936 -12.9203 438.168 -13.1503 437.728C-13.8873 436.32 -14.0833 434.348 -13.6173 433.039C-13.5883 432.957 -13.5733 432.873 -13.5553 432.789C-13.0883 431.492 -12.5523 430.165 -12.0053 428.848C-11.4243 427.453 -10.8243 426.059 -10.2113 424.667C-8.98932 421.886 -7.72632 419.105 -6.44632 416.349L-6.44132 416.338C-6.04332 415.477 -6.50432 414.415 -7.51732 414.176C-8.19832 414.015 -8.90032 414.387 -9.23332 415.002C-10.6853 417.691 -12.1073 420.381 -13.5043 423.101C-14.2063 424.467 -14.8993 425.841 -15.5793 427.23C-16.2213 428.547 -16.8513 429.867 -17.4493 431.257C-17.4743 431.301 -17.5053 431.338 -17.5273 431.384C-17.5273 431.384 -19.4173 435.209 -20.0663 436.469C-20.8513 437.993 -22.4363 439.312 -24.1033 439.828C-24.9883 440.103 -25.7863 440.104 -26.2903 439.833C-29.9083 437.883 -28.8793 434.33 -28.4773 433.287C-28.4653 433.254 -28.4533 433.221 -28.4423 433.187L-27.2343 429.514C-27.2113 429.445 -27.2033 429.375 -27.1873 429.304C-25.7723 425.753 -24.1903 422.173 -22.6253 418.618L-17.6653 407.598L-17.6553 407.575C-17.2583 406.69 -17.7133 405.624 -18.6983 405.334C-19.4703 405.105 -20.2903 405.531 -20.6493 406.252L-26.0113 417.041C-27.7603 420.635 -29.5063 424.198 -31.1493 427.916C-31.1663 427.95 -31.1943 427.976 -31.2093 428.012C-31.7963 429.381 -32.6583 430.363 -33.5723 430.705C-34.2623 430.963 -35.0203 430.883 -35.8903 430.464C-37.2413 429.813 -38.0343 427.714 -37.7343 425.583C-37.3813 423.073 -36.1843 420.13 -35.8473 419.334C-35.8063 419.244 -35.7663 419.153 -35.7293 419.06C-35.7013 418.991 -35.6873 418.92 -35.6673 418.85L-30.1713 404.443L-30.1663 404.43C-29.8233 403.524 -30.3303 402.481 -31.3333 402.235C-32.1193 402.042 -32.9233 402.503 -33.2543 403.242L-39.4413 417.043C-39.5173 417.152 -39.5853 417.268 -39.6413 417.393C-39.6503 417.414 -39.6853 417.492 -39.7403 417.62C-40.0463 418.265 -40.5463 418.704 -41.1623 418.862C-41.8513 419.042 -42.5853 418.851 -43.2293 418.33C-45.7033 416.326 -44.5633 410.737 -43.9513 407.735L-43.7623 406.806C-41.8263 397.25 -36.6853 371.868 -20.3203 340.127C-17.9083 335.451 -15.3403 330.386 -12.6123 325.009C15.2547 270.063 61.2677 179.338 125.182 140.965C126.075 140.428 126.452 139.333 126.067 138.365C125.584 137.154 124.128 136.648 123.01 137.319C58.0327 176.333 11.6717 267.724 -16.4063 323.085C-19.1283 328.453 -21.6933 333.509 -24.1003 338.178C-40.7363 370.444 -45.9633 396.248 -47.9303 405.961L-48.1183 406.885C-48.9113 410.772 -50.3873 418.005 -45.9063 421.635C-44.6343 422.665 -43.1273 423.183 -41.5993 423.181C-41.7413 423.782 -41.8613 424.392 -41.9463 424.991C-42.5103 429.002 -40.7793 432.829 -37.7383 434.295C-36.2023 435.037 -34.6403 435.271 -33.1633 434.991C-33.3753 438.555 -31.6263 441.788 -28.3073 443.577C-27.4323 444.048 -26.4213 444.286 -25.3403 444.286C-24.5373 444.286 -23.6963 444.155 -22.8453 443.891C-20.5313 443.174 -18.3813 441.571 -16.9843 439.572C-16.9633 439.615 -16.9413 439.657 -16.9193 439.699C-15.9663 441.522 -14.5183 442.776 -12.8423 443.23C-8.00732 444.543 -4.03432 441.145 -2.24332 437.195C1.58968 428.736 6.98268 420.31 11.7397 412.875C12.8837 411.087 13.9927 409.355 15.0137 407.721C16.3977 410.89 18.4197 415.056 20.1647 416.828C21.8057 418.494 24.7707 419.772 27.6927 418.868C29.8447 418.203 32.6327 416.176 33.6917 410.298C33.8587 409.368 33.8857 408.031 33.9257 406.006C34.0147 401.458 34.1647 393.845 36.2837 385.121C41.4067 364.034 66.8237 320.272 91.7867 289.559C111.193 265.683 129.979 250.301 142.32 241.601C150.361 235.934 156.773 232.295 160.634 230.284C161.606 229.777 162.036 228.623 161.63 227.605" fill="#141414"/></g><path id="T shirt" fill-rule="evenodd" clip-rule="evenodd" d="M339.57 197.984C339.294 196.914 339.937 195.824 341.007 195.548C342.077 195.269 343.168 195.916 343.443 196.985L351.251 227.267C357.045 230.128 367.553 235.062 376.673 237.962C390.083 242.225 405.89 136.956 405.89 136.956C405.89 136.956 377.253 123.591 338.566 102.342C304.354 83.5488 207.928 78.5768 161.633 107.692C141.137 116.806 111.872 136.776 101.195 146.149C101.195 146.149 116.456 211.265 140.245 255.927C149.14 251.832 157.216 246.51 165.464 241.36L165.463 241.37C174.078 235.525 182.787 228.768 182.903 228.678C183.773 227.998 185.03 228.153 185.71 229.026C186.389 229.896 186.234 231.153 185.362 231.832C184.833 232.245 171.492 242.89 162 249L153.834 393.948L390.562 390.454L348.134 231.198L339.57 197.984Z" fill="#ff8333"/><g id="neck"><path id="Fill 13" fill-rule="evenodd" clip-rule="evenodd" d="M237.122 51.1382C237.122 51.1382 237.711 91.4872 235.559 97.5142C233.406 103.542 241.458 120.349 267.473 124.242C294.972 128.358 295.552 114.29 296.148 108.93C293.17 87.4872 294.076 66.0512 294.076 66.0512" fill="white"/><path id="Fill 15" fill-rule="evenodd" clip-rule="evenodd" d="M276.484 126.976C273.651 126.976 270.547 126.725 267.178 126.22C246.852 123.178 238.621 112.771 236.026 108.437C233.48 104.186 232.601 99.8514 233.676 96.8424C235.166 92.6694 235.358 67.2414 235.123 51.1674C235.107 50.0624 235.989 49.1544 237.094 49.1384C238.171 49.1524 239.107 50.0044 239.123 51.1084C239.184 55.2754 239.654 91.9974 237.443 98.1874C236.905 99.6944 237.319 102.812 239.457 106.382C241.761 110.228 249.131 119.475 267.77 122.264C277.939 123.785 285.228 122.907 289.436 119.651C293.322 116.644 293.792 112.194 294.103 109.249L294.134 108.96C291.206 87.6644 292.07 66.1824 292.079 65.9664C292.126 64.8634 293.043 63.9994 294.162 64.0534C295.265 64.0994 296.122 65.0324 296.075 66.1354C296.067 66.3484 295.213 87.6494 298.13 108.654C298.153 108.818 298.155 108.985 298.137 109.15L298.081 109.669C297.745 112.848 297.12 118.763 291.883 122.814C288.302 125.585 283.142 126.976 276.484 126.976" fill="#141414"/></g></g></g><g id="Head" transform="translate(439 92) scale(1 1)"><g id="Head/Senior Hair 2"><path id="Path 7 Copy" fill-rule="evenodd" clip-rule="evenodd" d="M138.592 59.4493C152.407 61.9632 166.853 69.9582 163.931 91.6152C161.009 113.272 142.145 112.278 142.145 112.278L136.031 102.19C136.031 102.19 129.49 100.508 124.478 105.21C119.467 109.913 113 99.6712 113 82.3476C113 65.024 124.777 56.9355 138.592 59.4493Z" fill="white"/><path id="Path 7 Copy 3" fill-rule="evenodd" clip-rule="evenodd" d="M115.541 102.754C113.007 98.0794 111.5 90.7628 111.5 82.3476C111.5 64.9243 123.298 55.1417 138.861 57.9736C157.366 61.3409 168.071 72.1476 165.417 91.8158C163.37 106.988 155.469 114.482 142.066 113.776L141.274 113.735L135.076 103.508L134.961 103.483C131.51 102.786 128.494 103.629 125.776 106.056L125.329 106.464C122.03 109.374 118.19 107.641 115.541 102.754ZM162.444 91.4146C164.853 73.5666 155.409 64.0342 138.323 60.9251C124.598 58.4275 114.5 66.8007 114.5 82.3476C114.5 90.3 115.908 97.1359 118.179 101.324C120.066 104.806 121.878 105.593 123.452 104.116L123.739 103.853C127.39 100.575 131.668 99.5193 136.405 100.738L136.997 100.89L143.011 110.812L143.732 110.822C154.419 110.837 160.536 104.663 162.382 91.8589L162.444 91.4146Z" fill="#141414"/><g id="No Hair"><path id="SKIN" fill-rule="evenodd" clip-rule="evenodd" d="M153.721 98.5126C153.397 96.3856 153.044 94.2566 152.643 92.1276C142.714 39.4366 109.865 32.3476 82.3974 39.1686C64.2104 43.6856 39.6484 56.4706 44.7274 104.214C33.7724 101.486 28.6414 107.492 29.0194 115.89C29.3584 123.43 35.0404 128.929 46.2164 129.528C49.4704 155.095 73.4054 194.828 119.692 185.733C146.706 180.425 156.802 151.38 155.575 117.792C154.982 110.822 154.982 104.999 153.721 98.5126Z" fill="white"/><path id="shape" fill-rule="evenodd" clip-rule="evenodd" d="M48.2004 129.276C49.9034 142.655 57.9594 162.657 75.0614 174.998C87.6854 184.107 102.571 187.06 119.307 183.771C140.913 179.525 162.092 153.074 150.677 92.4976C146.442 70.0186 137.685 54.3786 124.65 46.0136C111.857 37.8026 97.2974 38.1476 86.3274 40.3386C86.8234 40.4596 87.2434 40.9006 87.0854 41.5396C86.7704 42.8156 84.7914 42.3256 85.1054 41.0506C85.1674 40.8026 85.3014 40.6396 85.4594 40.5176C84.5744 40.7056 83.7104 40.9036 82.8794 41.1096C54.7854 48.0866 42.9574 68.6596 46.7164 104.003C46.7854 104.652 46.5334 105.294 46.0414 105.722C45.5494 106.152 44.8804 106.311 44.2444 106.155C42.6234 105.751 41.1204 105.551 39.7534 105.551C37.4004 105.551 35.4544 106.146 34.0114 107.327C31.9124 109.045 30.8494 112.054 31.0174 115.801C31.3304 122.751 36.9094 127.027 46.3234 127.531C47.2884 127.583 48.0784 128.317 48.2004 129.276ZM154.609 91.7576C154.926 93.4396 155.219 95.1386 155.491 96.8496L157.597 119.876C158.261 151.66 148.939 182.025 120.078 187.696C115.384 188.618 110.822 189.078 106.402 189.078C94.0024 189.079 82.7164 185.454 72.7204 178.242C55.2584 165.64 46.6884 145.528 44.4624 131.399C33.8924 130.336 27.4124 124.654 27.0214 115.98C26.7944 110.941 28.3774 106.769 31.4784 104.232C33.4684 102.602 36.9254 100.985 42.4814 101.743C39.4374 66.1826 52.6954 44.4846 81.9154 37.2276C93.9034 34.2506 111.425 32.7736 126.811 42.6476C140.808 51.6306 150.161 68.1536 154.609 91.7576Z" fill="#141414"/></g><path id="Path 7" fill-rule="evenodd" clip-rule="evenodd" d="M48.1252 61.5657C61.9403 64.0795 76.3863 72.0746 73.4642 93.7315C70.542 115.389 51.6785 114.395 51.6785 114.395L45.564 104.307C45.564 104.307 39.0229 102.624 34.0115 107.327C29 112.029 22.5332 101.788 22.5332 84.4639C22.5332 67.1403 34.3101 59.0518 48.1252 61.5657Z" fill="white"/><path id="Path 7 Copy 2" fill-rule="evenodd" clip-rule="evenodd" d="M25.0743 104.87C22.5406 100.196 21.0332 92.8791 21.0332 84.4639C21.0332 67.0407 32.8307 57.258 48.3937 60.0899C66.8989 63.4572 77.6045 74.264 74.9507 93.9321C72.9035 109.105 65.0022 116.599 51.5996 115.893L50.8071 115.851L44.6082 105.624L44.4943 105.599C41.0431 104.902 38.027 105.746 35.3087 108.172L34.8617 108.581C31.5635 111.491 27.7235 109.757 25.0743 104.87ZM71.9776 93.531C74.3858 75.683 64.9426 66.1505 47.8567 63.0415C34.1309 60.5439 24.0332 68.917 24.0332 84.4639C24.0332 92.4163 25.4415 99.2522 27.7118 103.44C29.5995 106.923 31.4111 107.71 32.9851 106.233L33.272 105.969C36.9234 102.691 41.2016 101.636 45.9377 102.854L46.5299 103.006L52.5432 112.928L52.8905 112.935C63.809 113.096 70.0478 106.929 71.9157 93.9752L71.9776 93.531Z" fill="#141414"/></g></g><g id="Face" transform="translate(499 178) scale(1 1)"><g id="Face/Happy Teeth"><path id="happy" fill-rule="evenodd" clip-rule="evenodd" d="M22.0073 16.1298C21.2611 16.03 20.5134 15.93 19.7634 15.946C17.7104 15.896 15.8084 16.321 13.8334 16.983C12.4564 17.451 11.3764 15.585 12.4114 14.616C15.1454 11.727 19.4234 10.675 23.2934 11.086C25.6994 10.977 29.5814 14.227 26.1914 15.923C24.7997 16.5034 23.4063 16.317 22.0073 16.1298ZM62.1316 28.901C65.8716 26.102 71.0336 26.767 74.5036 29.366C76.3106 30.622 74.4186 33.473 72.5656 32.328C71.2706 31.551 69.8196 31.109 68.4416 31.133C67.3189 30.9731 66.3557 31.5613 65.4444 32.1178C64.2119 32.8704 63.0742 33.5652 61.7646 32.274C60.8406 31.285 61.0226 29.67 62.1316 28.901ZM50.972 39.9271C63.513 44.9991 58.198 58.2721 45.571 53.1821C43.602 51.5601 45.875 49.8141 47.75 50.6141L47.9028 50.6233L48.0142 50.6302C50.409 50.7781 55.1459 51.0708 54.046 47.4831C53.6944 46.0007 52.2187 45.1294 50.7351 44.2535C49.2482 43.3757 47.7534 42.4932 47.374 40.9861C46.543 38.9921 45.668 27.3381 48.466 27.5051C49.058 27.5951 49.477 28.1211 49.447 28.7061C49.4474 29.1003 49.4452 29.4998 49.4429 29.9031C49.4237 33.3028 49.4031 36.9654 50.972 39.9271ZM32.1852 34.1042C32.8422 34.4982 33.7062 34.4282 34.2982 33.8822C36.7002 30.5912 29.0312 27.0892 26.1792 27.3372C22.9342 26.7482 12.4212 31.8242 14.8212 35.6072C15.4982 36.3332 16.6452 36.3592 17.3572 35.6662C19.4462 33.7012 21.8632 32.1702 24.6752 31.8182C27.5382 31.3312 29.6352 32.5622 32.1852 34.1042ZM77.2292 16.3435C73.1682 12.7715 67.0922 10.5375 61.8292 12.9185C60.3132 13.5675 60.6732 16.0275 62.3572 16.1655C63.4751 16.2892 64.5859 16.3152 65.6902 16.341C67.9772 16.3945 70.2363 16.4473 72.4732 17.3665L75.9492 18.6135C77.2762 19.1385 78.3892 17.2305 77.2292 16.3435ZM46.4511 65.3132C44.6891 65.2012 42.9131 65.0152 41.1951 64.7702C41.1171 66.2652 41.1151 67.8362 41.4401 69.2822C43.3725 69.5861 45.3739 69.4425 47.3318 69.3019C47.4287 69.295 47.5254 69.288 47.6221 69.2812C46.6373 68.1783 46.5514 66.856 46.4643 65.5146C46.4599 65.4475 46.4556 65.3803 46.4511 65.3132ZM49.4221 65.4443C49.5687 66.6128 49.7409 67.9857 49.0491 68.9752C49.0248 69.0223 48.9908 69.0588 48.9565 69.0955C48.9429 69.1101 48.9292 69.1248 48.9161 69.1402C49.3214 69.0874 49.7493 69.0407 50.1872 68.9929C51.7511 68.822 53.4429 68.6373 54.6921 68.1162C55.1486 67.4498 55.0629 66.3083 54.9938 65.3889C54.9898 65.3355 54.9859 65.2829 54.9821 65.2312C53.2821 65.3592 51.3401 65.4542 49.4201 65.4282L49.4221 65.4443ZM66.2871 59.6602C66.6831 59.1322 67.3751 58.8652 68.0241 59.0022C69.3891 59.3022 69.7971 60.5432 69.4141 61.5862C69.0501 70.9412 62.7521 80.6062 45.9841 80.6062C37.4081 80.6062 28.1781 74.3822 28.1781 60.7182C28.0561 59.6192 28.3241 58.2482 29.6121 58.0462C37.5791 61.9012 55.8621 63.5012 66.2871 59.6602Z" fill="#141414"/></g></g><g id="Accessories" transform="translate(491 176) scale(103 60)"><g id="Accessories/None" stroke="none" stroke-width="1" fill="none" fill-rule="evenodd" fill-opacity="0"/></g><g id="Facial Hair" transform="translate(501 234) scale(90 60)"><g id="Facial Hair/None" stroke="none" stroke-width="1" fill="none" fill-rule="evenodd" fill-opacity="0"/></g></g></g></g></svg>